{"glyphs":{"0":{"ha":889,"x_min":64,"x_max":825,"o":"m 64 888 q 128 1065 64 999 q 310 1131 192 1131 l 579 1131 q 761 1065 697 1131 q 825 888 825 999 l 825 243 q 761 66 825 132 q 579 0 697 0 l 310 0 q 128 66 192 0 q 64 243 64 132 l 64 888 m 568 904 l 321 904 l 321 226 l 568 226 l 568 904 z "},"1":{"ha":889,"x_min":183,"x_max":736,"o":"m 183 226 l 338 226 l 338 904 l 188 904 l 188 1131 l 596 1131 l 596 226 l 736 226 l 736 0 l 183 0 l 183 226 z "},"2":{"ha":889,"x_min":81,"x_max":819,"o":"m 569 1131 q 738 1067 678 1131 q 797 903 797 1004 l 797 724 q 782 623 797 665 q 726 538 767 581 l 439 226 l 819 226 l 819 0 l 93 0 l 93 189 l 522 678 q 544 765 544 706 l 544 904 l 331 904 l 331 749 l 81 749 l 81 903 q 141 1067 81 1003 q 310 1131 201 1131 l 569 1131 z "},"3":{"ha":889,"x_min":74,"x_max":817,"o":"m 804 740 q 787 649 804 683 q 731 594 769 615 q 796 531 775 571 q 817 429 817 490 l 817 228 q 757 63 817 126 q 589 0 697 0 l 303 0 q 134 64 194 0 q 74 228 74 128 l 74 356 l 324 356 l 324 226 l 564 226 l 564 482 l 297 482 l 297 693 l 551 693 l 551 904 l 324 904 l 324 807 l 74 807 l 74 903 q 134 1067 74 1003 q 303 1131 194 1131 l 576 1131 q 744 1067 685 1131 q 804 903 804 1004 l 804 740 z "},"4":{"ha":889,"x_min":7,"x_max":915,"o":"m 11 190 l 7 215 l 256 1131 l 522 1131 l 336 417 l 488 417 l 488 768 l 742 768 l 742 417 l 915 417 l 817 190 l 739 190 l 739 0 l 488 0 l 488 190 l 11 190 z "},"5":{"ha":889,"x_min":69,"x_max":813,"o":"m 340 904 l 340 735 l 585 735 q 753 672 693 735 q 813 507 813 608 l 813 228 q 753 63 813 126 q 585 0 693 0 l 299 0 q 130 64 190 0 q 69 228 69 128 l 69 356 l 319 356 l 319 226 l 560 226 l 560 515 l 88 515 l 88 1131 l 804 1131 l 710 904 l 340 904 z "},"6":{"ha":889,"x_min":74,"x_max":824,"o":"m 611 699 q 772 644 719 699 q 824 488 824 589 l 824 228 q 764 63 824 126 q 596 0 704 0 l 303 0 q 134 64 194 0 q 74 228 74 128 l 74 903 q 133 1067 74 1004 q 301 1131 193 1131 l 585 1131 q 754 1068 694 1131 q 814 906 814 1006 l 814 786 l 564 786 l 564 904 l 326 904 l 326 514 l 406 699 l 611 699 m 326 479 l 326 226 l 571 226 l 571 479 l 326 479 z "},"7":{"ha":889,"x_min":65,"x_max":815,"o":"m 65 899 l 65 1131 l 815 1131 l 815 978 l 435 0 l 138 0 l 496 899 l 65 899 z "},"8":{"ha":889,"x_min":63,"x_max":826,"o":"m 586 1131 q 754 1067 694 1131 q 814 903 814 1004 l 814 740 q 797 649 814 683 q 740 594 779 615 q 806 531 785 571 q 826 429 826 490 l 826 228 q 767 63 826 126 q 599 0 707 0 l 290 0 q 122 63 182 0 q 63 228 63 126 l 63 429 q 83 531 63 490 q 149 594 104 571 q 92 649 110 615 q 75 740 75 683 l 75 903 q 135 1067 75 1004 q 303 1131 194 1131 l 586 1131 m 315 482 l 315 226 l 574 226 l 574 482 l 315 482 m 561 904 l 328 904 l 328 693 l 561 693 l 561 904 z "},"9":{"ha":889,"x_min":65,"x_max":815,"o":"m 278 417 q 65 625 65 417 l 65 903 q 125 1067 65 1004 q 293 1131 185 1131 l 586 1131 q 755 1067 694 1131 q 815 903 815 1003 l 815 228 q 756 63 815 126 q 588 0 696 0 l 311 0 q 142 63 201 0 q 82 225 82 125 l 82 344 l 332 344 l 332 226 l 563 226 l 563 600 l 483 417 l 278 417 m 318 636 l 563 636 l 563 904 l 318 904 l 318 636 z "},"\u0000":{"ha":0,"x_min":0,"x_max":0,"o":""},"\r":{"ha":347,"x_min":0,"x_max":0,"o":""}," ":{"ha":347,"x_min":0,"x_max":0,"o":""}," ":{"ha":347,"x_min":0,"x_max":0,"o":""},"!":{"ha":528,"x_min":125,"x_max":403,"o":"m 139 -10 l 139 229 l 389 229 l 389 -10 l 139 -10 m 403 1186 l 375 356 l 153 356 l 125 1186 l 403 1186 z "},"\"":{"ha":667,"x_min":103,"x_max":564,"o":"m 294 1225 l 294 856 l 103 856 l 103 1225 l 294 1225 m 564 1225 l 564 856 l 372 856 l 372 1225 l 564 1225 z "},"#":{"ha":1236,"x_min":14,"x_max":1222,"o":"m 14 256 l 126 449 l 265 449 l 329 708 l 139 708 l 251 901 l 376 901 l 433 1131 l 672 1131 l 615 901 l 779 901 l 836 1131 l 1075 1131 l 1018 901 l 1222 901 l 1110 708 l 971 708 l 907 449 l 1097 449 l 985 256 l 860 256 l 797 0 l 558 0 l 621 256 l 457 256 l 394 0 l 156 0 l 218 256 l 14 256 m 732 708 l 568 708 l 504 449 l 668 449 l 732 708 z "},"$":{"ha":931,"x_min":110,"x_max":861,"o":"m 578 468 l 110 468 l 110 889 q 156 1013 110 967 q 281 1060 201 1060 l 344 1060 l 344 1214 l 597 1214 l 597 1060 l 861 1060 l 707 844 l 353 844 l 353 674 l 821 674 l 821 240 q 775 117 821 163 q 650 71 729 71 l 597 71 l 597 -83 l 344 -83 l 344 71 l 110 71 l 110 286 l 578 286 l 578 468 z "},"%":{"ha":1319,"x_min":69,"x_max":1250,"o":"m 554 765 q 514 638 554 683 q 393 592 474 592 l 231 592 q 110 638 150 592 q 69 765 69 683 l 69 957 q 110 1085 69 1039 q 231 1131 150 1131 l 393 1131 q 514 1085 474 1131 q 554 957 554 1039 l 554 765 m 257 946 l 257 776 l 367 776 l 367 946 l 257 946 m 765 365 q 806 493 765 447 q 926 539 846 539 l 1089 539 q 1210 493 1169 539 q 1250 365 1250 447 l 1250 174 q 1210 46 1250 92 q 1089 0 1169 0 l 926 0 q 806 46 846 0 q 765 174 765 92 l 765 365 m 1063 185 l 1063 354 l 953 354 l 953 185 l 1063 185 m 808 1131 l 1028 1131 l 511 0 l 292 0 l 808 1131 z "},"&":{"ha":1181,"x_min":133,"x_max":1046,"o":"m 1046 -28 l 782 -28 l 739 111 l 649 -28 l 361 -28 q 193 35 253 -28 q 133 200 133 99 l 133 443 q 156 549 133 508 q 228 613 179 590 q 179 667 194 633 q 164 754 164 700 l 164 958 q 224 1123 164 1060 q 392 1186 283 1186 l 690 1186 q 840 1131 789 1186 q 892 986 892 1076 l 892 818 l 642 818 l 642 961 l 417 961 l 417 701 l 1046 701 l 1046 497 l 882 497 l 1046 -28 m 621 497 l 386 497 l 386 197 l 713 197 l 621 497 z "},"'":{"ha":417,"x_min":104,"x_max":313,"o":"m 313 1225 l 313 856 l 104 856 l 104 1225 l 313 1225 z "},"(":{"ha":667,"x_min":181,"x_max":563,"o":"m 403 33 l 563 33 l 563 -167 l 433 -167 q 251 -100 321 -167 q 181 82 181 -33 l 181 1050 q 251 1231 181 1165 q 433 1297 321 1297 l 563 1297 l 563 1096 l 403 1096 l 403 33 z "},")":{"ha":667,"x_min":104,"x_max":486,"o":"m 233 1297 q 416 1231 346 1297 q 486 1050 486 1165 l 486 82 q 416 -100 486 -33 q 233 -167 346 -167 l 104 -167 l 104 33 l 264 33 l 264 1096 l 104 1096 l 104 1297 l 233 1297 z "},"*":{"ha":896,"x_min":88,"x_max":800,"o":"m 800 1047 l 714 988 l 569 958 l 789 863 l 703 692 l 608 736 l 513 846 l 539 608 l 347 597 l 339 701 l 386 842 l 193 700 l 88 858 l 172 918 l 318 946 l 99 1043 l 185 1214 l 278 1169 l 375 1057 l 349 1297 l 540 1308 l 549 1204 l 501 1064 l 694 1206 l 800 1047 z "},"+":{"ha":875,"x_min":111,"x_max":764,"o":"m 111 465 l 111 685 l 324 685 l 324 915 l 551 915 l 551 685 l 764 685 l 764 465 l 551 465 l 551 235 l 324 235 l 324 465 l 111 465 z "},",":{"ha":458,"x_min":97,"x_max":347,"o":"m 243 -200 l 97 -200 l 97 257 l 347 257 l 347 60 l 243 -200 z "},"-":{"ha":764,"x_min":111,"x_max":653,"o":"m 111 692 l 653 692 l 653 458 l 111 458 l 111 692 z "},".":{"ha":458,"x_min":97,"x_max":347,"o":"m 97 -10 l 97 257 l 347 257 l 347 -10 l 97 -10 z "},"/":{"ha":792,"x_min":56,"x_max":736,"o":"m 56 -56 l 485 1186 l 736 1186 l 307 -56 l 56 -56 z "},":":{"ha":597,"x_min":174,"x_max":424,"o":"m 174 163 l 174 415 l 424 415 l 424 163 l 174 163 m 174 715 l 174 968 l 424 968 l 424 715 l 174 715 z "},";":{"ha":597,"x_min":174,"x_max":424,"o":"m 174 715 l 174 968 l 424 968 l 424 715 l 174 715 m 319 -28 l 174 -28 l 174 415 l 424 415 l 424 218 l 319 -28 z "},"<":{"ha":792,"x_min":83,"x_max":708,"o":"m 407 964 l 708 964 l 379 579 l 708 194 l 407 194 l 83 579 l 407 964 z "},"=":{"ha":764,"x_min":111,"x_max":653,"o":"m 111 844 l 653 844 l 653 646 l 111 646 l 111 844 m 111 504 l 653 504 l 653 306 l 111 306 l 111 504 z "},">":{"ha":792,"x_min":83,"x_max":708,"o":"m 385 194 l 83 194 l 413 579 l 83 964 l 385 964 l 708 579 l 385 194 z "},"?":{"ha":931,"x_min":76,"x_max":819,"o":"m 285 -10 l 285 229 l 535 229 l 535 -10 l 285 -10 m 567 707 l 567 961 l 326 961 l 326 849 l 76 849 l 76 958 q 137 1122 76 1058 q 306 1186 197 1186 l 592 1186 q 760 1123 700 1186 q 819 958 819 1060 l 819 718 q 767 560 819 617 q 606 504 714 504 l 525 504 l 519 331 l 294 331 l 288 707 l 567 707 z "},"@":{"ha":1194,"x_min":104,"x_max":1090,"o":"m 928 -28 l 303 -28 q 158 26 211 -28 q 104 169 104 79 l 104 989 q 158 1133 104 1079 q 303 1186 211 1186 l 892 1186 q 1037 1133 983 1186 q 1090 989 1090 1079 l 1090 261 l 857 261 l 857 406 l 757 261 l 625 261 q 472 413 472 261 l 472 729 q 625 881 472 881 l 857 881 l 857 969 l 340 969 l 340 189 l 1090 189 l 928 -28 m 857 689 l 689 689 l 689 453 l 857 453 l 857 689 z "},"A":{"ha":992,"x_min":22,"x_max":967,"o":"m 604 540 l 539 900 l 450 900 l 385 540 l 604 540 m 644 313 l 343 313 l 286 0 l 22 0 l 210 975 q 381 1131 240 1131 l 747 1131 l 967 0 l 701 0 l 644 313 z "},"B":{"ha":976,"x_min":6,"x_max":893,"o":"m 640 226 l 640 465 l 353 465 l 353 226 l 640 226 m 622 904 l 353 904 l 353 676 l 622 676 l 622 904 m 663 1131 q 820 1079 765 1131 q 875 932 875 1028 l 875 714 q 794 575 875 629 q 869 519 846 556 q 893 425 893 483 l 893 179 q 844 48 893 96 q 710 0 796 0 l 100 0 l 100 756 l 228 904 l 6 904 l 169 1131 l 663 1131 z "},"C":{"ha":860,"x_min":93,"x_max":853,"o":"m 283 0 q 144 51 196 0 q 93 189 93 103 l 93 940 q 144 1079 93 1028 q 283 1131 196 1131 l 853 1131 l 685 904 l 353 904 l 353 226 l 793 226 l 793 0 l 283 0 z "},"D":{"ha":1004,"x_min":4,"x_max":911,"o":"m 226 904 l 4 904 l 169 1131 l 719 1131 q 860 1079 808 1131 q 911 940 911 1028 l 911 189 q 860 51 911 101 q 719 0 808 0 l 100 0 l 100 758 l 226 904 m 658 226 l 658 904 l 353 904 l 353 226 l 658 226 z "},"E":{"ha":875,"x_min":100,"x_max":867,"o":"m 100 1131 l 867 1131 l 699 904 l 356 904 l 356 693 l 722 693 l 722 482 l 356 482 l 356 226 l 804 226 l 804 0 l 100 0 l 100 1131 z "},"F":{"ha":881,"x_min":100,"x_max":875,"o":"m 875 1131 l 707 904 l 357 904 l 357 683 l 743 683 l 743 456 l 357 456 l 357 0 l 100 0 l 100 1131 l 875 1131 z "},"G":{"ha":981,"x_min":93,"x_max":911,"o":"m 283 0 q 144 51 196 0 q 93 189 93 103 l 93 940 q 144 1079 93 1028 q 283 1131 196 1131 l 911 1131 l 743 904 l 346 904 l 346 226 l 644 226 l 644 471 l 428 471 l 572 668 l 897 668 l 897 0 l 283 0 z "},"H":{"ha":1019,"x_min":100,"x_max":919,"o":"m 353 1131 l 353 692 l 665 692 l 665 1131 l 919 1131 l 919 0 l 665 0 l 665 464 l 353 464 l 353 0 l 100 0 l 100 1131 l 353 1131 z "},"I":{"ha":469,"x_min":104,"x_max":365,"o":"m 365 1131 l 365 0 l 104 0 l 104 1131 l 365 1131 z "},"J":{"ha":660,"x_min":-50,"x_max":563,"o":"m 563 1131 l 563 206 q 505 57 563 114 q 354 0 447 0 l -50 0 l 117 229 l 306 229 l 306 1131 l 563 1131 z "},"K":{"ha":958,"x_min":100,"x_max":950,"o":"m 353 1131 l 353 689 l 447 689 l 653 1131 l 928 1131 l 667 579 l 950 0 l 663 0 l 450 461 l 353 461 l 353 0 l 100 0 l 100 1131 l 353 1131 z "},"L":{"ha":838,"x_min":100,"x_max":835,"o":"m 100 1131 l 358 1131 l 358 229 l 835 229 l 665 0 l 100 0 l 100 1131 z "},"M":{"ha":1301,"x_min":97,"x_max":1201,"o":"m 347 904 l 347 0 l 97 0 l 97 940 q 149 1079 97 1028 q 288 1131 200 1131 l 1201 1131 l 1201 0 l 954 0 l 954 904 l 774 904 l 774 0 l 528 0 l 528 904 l 347 904 z "},"N":{"ha":1015,"x_min":97,"x_max":915,"o":"m 350 904 l 350 0 l 97 0 l 97 940 q 149 1079 97 1028 q 288 1131 200 1131 l 915 1131 l 915 0 l 663 0 l 663 904 l 350 904 z "},"O":{"ha":1014,"x_min":93,"x_max":921,"o":"m 283 0 q 144 51 196 0 q 93 189 93 103 l 93 940 q 144 1079 93 1028 q 283 1131 196 1131 l 729 1131 q 869 1079 818 1131 q 921 940 921 1028 l 921 189 q 869 51 921 101 q 729 0 818 0 l 283 0 m 664 226 l 664 904 l 350 904 l 350 226 l 664 226 z "},"P":{"ha":949,"x_min":6,"x_max":881,"o":"m 357 904 l 357 547 l 624 547 l 624 904 l 357 904 m 100 0 l 100 757 l 228 904 l 6 904 l 171 1131 l 697 1131 q 833 1083 785 1131 q 881 951 881 1035 l 881 500 q 833 369 881 417 q 697 321 785 321 l 357 321 l 357 0 l 100 0 z "},"Q":{"ha":1006,"x_min":93,"x_max":925,"o":"m 651 226 l 651 904 l 350 904 l 350 226 l 651 226 m 579 0 l 283 0 q 144 51 196 0 q 93 189 93 103 l 93 940 q 144 1079 93 1028 q 283 1131 196 1131 l 717 1131 q 857 1079 806 1131 q 908 940 908 1028 l 908 224 q 883 126 908 169 q 817 57 858 83 l 925 -157 l 658 -157 l 579 0 z "},"R":{"ha":968,"x_min":6,"x_max":954,"o":"m 357 389 l 357 0 l 100 0 l 100 756 l 228 904 l 6 904 l 169 1131 l 672 1131 q 830 1079 775 1131 q 885 932 885 1028 l 885 611 q 849 493 885 540 q 742 426 813 446 l 954 0 l 675 0 l 492 389 l 357 389 m 625 904 l 357 904 l 357 615 l 625 615 l 625 904 z "},"S":{"ha":908,"x_min":86,"x_max":868,"o":"m 564 463 l 89 463 l 89 940 q 140 1079 89 1028 q 279 1131 192 1131 l 868 1131 l 700 904 l 346 904 l 346 679 l 821 679 l 821 189 q 770 51 821 103 q 631 0 719 0 l 86 0 l 86 226 l 564 226 l 564 463 z "},"T":{"ha":933,"x_min":33,"x_max":943,"o":"m 33 899 l 33 1131 l 943 1131 l 775 899 l 575 899 l 575 0 l 313 0 l 313 899 l 33 899 z "},"U":{"ha":1015,"x_min":97,"x_max":915,"o":"m 288 0 q 149 51 200 0 q 97 190 97 103 l 97 1131 l 350 1131 l 350 226 l 663 226 l 663 1131 l 915 1131 l 915 0 l 288 0 z "},"V":{"ha":1000,"x_min":22,"x_max":979,"o":"m 396 0 q 225 156 258 0 l 22 1131 l 290 1131 l 467 226 l 535 226 l 710 1131 l 979 1131 l 744 0 l 396 0 z "},"W":{"ha":1282,"x_min":31,"x_max":1244,"o":"m 751 0 q 642 35 683 0 q 588 136 601 71 l 497 0 l 342 0 q 172 147 193 0 l 31 1131 l 294 1131 l 415 226 l 578 226 l 482 1131 l 733 1131 l 813 226 l 889 226 l 982 1131 l 1244 1131 l 1096 0 l 751 0 z "},"X":{"ha":942,"x_min":26,"x_max":915,"o":"m 915 0 l 643 0 l 513 451 l 428 451 l 299 0 l 26 0 l 214 588 l 33 1131 l 304 1131 l 431 679 l 511 679 l 638 1131 l 908 1131 l 726 588 l 915 0 z "},"Y":{"ha":1000,"x_min":22,"x_max":978,"o":"m 317 375 q 231 398 260 375 q 188 475 201 421 l 22 1131 l 282 1131 l 399 599 l 601 599 l 718 1131 l 978 1131 l 813 475 q 771 398 799 421 q 686 375 743 375 l 632 375 l 632 0 l 371 0 l 371 375 l 317 375 z "},"Z":{"ha":908,"x_min":69,"x_max":846,"o":"m 825 985 q 813 905 825 946 q 778 831 800 864 l 389 226 l 846 226 l 846 0 l 69 0 l 69 196 l 525 904 l 69 904 l 69 1131 l 825 1131 l 825 985 z "},"[":{"ha":667,"x_min":188,"x_max":563,"o":"m 410 33 l 563 33 l 563 -167 l 188 -167 l 188 1297 l 563 1297 l 563 1097 l 410 1097 l 410 33 z "},"\\":{"ha":1389,"x_min":0,"x_max":1389,"o":"m 768 26 q 667 57 701 26 q 626 150 633 88 l 535 26 l 411 26 q 309 58 343 26 q 268 156 275 89 l 222 551 l 0 551 l 83 749 l 199 749 l 158 1101 l 404 1101 l 440 749 l 588 749 l 564 1101 l 794 1101 l 810 749 l 954 749 l 985 1101 l 1231 1101 l 1190 749 l 1389 749 l 1306 551 l 1167 551 l 1107 26 l 768 26 m 460 551 l 493 239 l 621 239 l 600 551 l 460 551 m 833 239 l 910 239 l 936 551 l 819 551 l 833 239 z "},"]":{"ha":667,"x_min":104,"x_max":479,"o":"m 257 1097 l 104 1097 l 104 1297 l 479 1297 l 479 -167 l 104 -167 l 104 33 l 257 33 l 257 1097 z "},"^":{"ha":781,"x_min":56,"x_max":725,"o":"m 725 856 l 507 856 l 401 1071 l 379 1071 l 274 856 l 56 856 l 276 1242 l 504 1242 l 725 856 z "},"_":{"ha":893,"x_min":83,"x_max":810,"o":"m 83 233 l 810 233 l 810 0 l 83 0 l 83 233 z "},"`":{"ha":417,"x_min":65,"x_max":347,"o":"m 274 1203 l 347 856 l 160 856 l 65 1203 l 274 1203 z "},"a":{"ha":899,"x_min":76,"x_max":815,"o":"m 442 0 l 251 0 q 123 47 169 0 q 76 174 76 94 l 76 715 q 123 842 76 794 q 251 889 169 889 l 815 889 l 815 0 l 565 0 l 565 168 l 442 0 m 565 664 l 326 664 l 326 225 l 565 225 l 565 664 z "},"b":{"ha":904,"x_min":90,"x_max":828,"o":"m 464 889 l 653 889 q 781 842 735 889 q 828 715 828 794 l 828 174 q 781 47 828 94 q 653 0 735 0 l 90 0 l 90 1186 l 340 1186 l 340 719 l 464 889 m 578 225 l 578 664 l 340 664 l 340 225 l 578 225 z "},"c":{"ha":750,"x_min":76,"x_max":746,"o":"m 690 0 l 251 0 q 123 47 169 0 q 76 174 76 94 l 76 715 q 123 842 76 794 q 251 889 169 889 l 746 889 l 579 664 l 329 664 l 329 225 l 690 225 l 690 0 z "},"d":{"ha":904,"x_min":76,"x_max":814,"o":"m 564 225 l 564 664 l 326 664 l 326 225 l 564 225 m 814 0 l 564 0 l 564 168 l 440 0 l 251 0 q 123 47 169 0 q 76 174 76 94 l 76 715 q 123 842 76 794 q 251 889 169 889 l 564 889 l 564 1186 l 814 1186 l 814 0 z "},"e":{"ha":889,"x_min":76,"x_max":828,"o":"m 251 0 q 123 47 169 0 q 76 174 76 94 l 76 715 q 123 842 76 794 q 251 889 169 889 l 632 889 q 769 840 722 889 q 815 703 815 792 l 815 482 q 780 362 815 401 q 664 322 744 322 l 326 322 l 326 218 l 828 218 l 683 0 l 251 0 m 568 671 l 326 671 l 326 522 l 568 522 l 568 671 z "},"f":{"ha":760,"x_min":28,"x_max":785,"o":"m 183 1013 q 230 1139 183 1092 q 358 1186 276 1186 l 785 1186 l 618 967 l 436 967 l 436 856 l 754 856 l 588 633 l 436 633 l 436 0 l 183 0 l 183 633 l 28 633 l 28 856 l 183 856 l 183 1013 z "},"g":{"ha":904,"x_min":81,"x_max":821,"o":"m 331 669 l 331 293 l 571 293 l 571 669 l 331 669 m 256 78 q 127 125 174 78 q 81 251 81 172 l 81 715 q 127 842 81 794 q 256 889 174 889 l 821 889 l 821 -54 q 761 -210 821 -150 q 604 -269 701 -269 l 83 -269 l 228 -47 l 571 -47 l 571 235 l 457 78 l 256 78 z "},"h":{"ha":913,"x_min":90,"x_max":829,"o":"m 346 663 l 346 0 l 90 0 l 90 1186 l 346 1186 l 346 889 l 654 889 q 783 842 736 889 q 829 715 829 794 l 829 0 l 574 0 l 574 663 l 346 663 z "},"i":{"ha":447,"x_min":97,"x_max":350,"o":"m 97 0 l 97 889 l 350 889 l 350 0 l 97 0 m 97 1186 l 350 1186 l 350 964 l 97 964 l 97 1186 z "},"j":{"ha":533,"x_min":-69,"x_max":443,"o":"m 190 889 l 443 889 l 443 29 q 383 -126 443 -67 q 226 -186 324 -186 l -69 -186 l 75 36 l 190 36 l 190 889 m 190 1186 l 443 1186 l 443 964 l 190 964 l 190 1186 z "},"k":{"ha":904,"x_min":90,"x_max":897,"o":"m 340 363 l 340 0 l 90 0 l 90 1186 l 340 1186 l 340 589 l 426 589 l 608 889 l 882 889 l 625 479 l 897 0 l 614 0 l 415 363 l 340 363 z "},"l":{"ha":486,"x_min":90,"x_max":454,"o":"m 265 0 q 137 47 183 0 q 90 174 90 94 l 90 1186 l 343 1186 l 343 225 l 454 225 l 454 0 l 265 0 z "},"m":{"ha":1206,"x_min":83,"x_max":1122,"o":"m 83 715 q 130 842 83 794 q 258 889 176 889 l 1122 889 l 1122 0 l 888 0 l 888 664 l 722 664 l 722 0 l 488 0 l 488 664 l 322 664 l 322 0 l 83 0 l 83 715 z "},"n":{"ha":899,"x_min":83,"x_max":815,"o":"m 83 715 q 130 842 83 794 q 258 889 176 889 l 815 889 l 815 0 l 565 0 l 565 664 l 333 664 l 333 0 l 83 0 l 83 715 z "},"o":{"ha":901,"x_min":76,"x_max":825,"o":"m 825 174 q 778 47 825 94 q 650 0 732 0 l 251 0 q 123 47 169 0 q 76 174 76 94 l 76 715 q 123 842 76 794 q 251 889 169 889 l 650 889 q 778 842 732 889 q 825 715 825 794 l 825 174 m 326 664 l 326 225 l 575 225 l 575 664 l 326 664 z "},"p":{"ha":897,"x_min":83,"x_max":821,"o":"m 333 889 l 333 719 l 457 889 l 646 889 q 774 842 728 889 q 821 715 821 794 l 821 174 q 774 47 821 94 q 646 0 728 0 l 333 0 l 333 -269 l 83 -269 l 83 889 l 333 889 m 571 225 l 571 664 l 333 664 l 333 225 l 571 225 z "},"q":{"ha":897,"x_min":76,"x_max":814,"o":"m 440 0 l 251 0 q 123 47 169 0 q 76 174 76 94 l 76 715 q 123 842 76 794 q 251 889 169 889 l 814 889 l 814 -269 l 564 -269 l 564 168 l 440 0 m 564 664 l 326 664 l 326 225 l 564 225 l 564 664 z "},"r":{"ha":644,"x_min":83,"x_max":692,"o":"m 83 715 q 130 842 83 794 q 258 889 176 889 l 692 889 l 525 664 l 336 664 l 336 0 l 83 0 l 83 715 z "},"s":{"ha":832,"x_min":76,"x_max":813,"o":"m 83 715 q 130 842 83 794 q 258 889 176 889 l 813 889 l 646 668 l 333 668 l 333 546 l 756 546 l 756 174 q 709 47 756 94 q 581 0 663 0 l 76 0 l 76 221 l 506 221 l 506 346 l 83 346 l 83 715 z "},"t":{"ha":732,"x_min":28,"x_max":740,"o":"m 183 1131 l 436 1131 l 436 889 l 740 889 l 574 667 l 436 667 l 436 225 l 654 225 l 654 0 l 358 0 q 230 47 276 0 q 183 174 183 94 l 183 667 l 28 667 l 28 889 l 183 889 l 183 1131 z "},"u":{"ha":899,"x_min":83,"x_max":815,"o":"m 565 225 l 565 889 l 815 889 l 815 0 l 258 0 q 130 47 176 0 q 83 174 83 94 l 83 889 l 333 889 l 333 225 l 565 225 z "},"v":{"ha":903,"x_min":22,"x_max":881,"o":"m 333 0 q 231 33 265 0 q 181 136 196 67 l 22 889 l 294 889 l 408 226 l 494 226 l 607 889 l 881 889 l 694 0 l 333 0 z "},"w":{"ha":1176,"x_min":22,"x_max":1156,"o":"m 647 0 q 547 29 578 0 q 510 128 517 58 l 432 0 l 276 0 q 178 29 208 0 q 139 128 149 58 l 22 889 l 281 889 l 367 226 l 500 226 l 438 889 l 688 889 l 739 226 l 801 226 l 897 889 l 1156 889 l 1001 0 l 647 0 z "},"x":{"ha":908,"x_min":13,"x_max":896,"o":"m 896 0 l 625 0 l 481 332 l 428 332 l 283 0 l 13 0 l 224 453 l 21 889 l 289 889 l 426 558 l 482 558 l 619 889 l 888 889 l 683 453 l 896 0 z "},"y":{"ha":900,"x_min":19,"x_max":883,"o":"m 342 78 q 238 107 274 78 q 188 203 203 136 l 19 889 l 288 889 l 411 303 l 485 303 l 622 889 l 883 889 l 567 -269 l 311 -269 l 418 78 l 342 78 z "},"z":{"ha":819,"x_min":61,"x_max":758,"o":"m 61 181 l 446 664 l 65 664 l 65 889 l 743 889 l 743 729 q 729 649 743 682 q 679 571 715 617 l 397 225 l 758 225 l 758 0 l 61 0 l 61 181 z "},"{":{"ha":667,"x_min":54,"x_max":563,"o":"m 151 667 q 183 676 175 667 q 192 710 192 685 l 192 1064 q 255 1238 192 1179 q 431 1297 318 1297 l 563 1297 l 563 1099 l 414 1099 l 414 724 q 396 628 414 667 q 333 565 378 590 q 396 502 378 540 q 414 407 414 464 l 414 32 l 563 32 l 563 -167 l 431 -167 q 255 -107 318 -167 q 192 68 192 -47 l 192 421 q 183 455 192 446 q 151 464 175 464 l 54 464 l 54 667 l 151 667 z "},"|":{"ha":833,"x_min":290,"x_max":543,"o":"m 543 1164 l 543 -101 l 290 -101 l 290 1164 l 543 1164 z "},"}":{"ha":667,"x_min":104,"x_max":613,"o":"m 515 464 q 483 455 492 464 q 475 421 475 446 l 475 67 q 412 -108 475 -49 q 236 -167 349 -167 l 104 -167 l 104 32 l 253 32 l 253 407 q 271 502 253 464 q 333 565 289 540 q 271 628 289 590 q 253 724 253 667 l 253 1099 l 104 1099 l 104 1297 l 236 1297 q 412 1238 349 1297 q 475 1063 475 1178 l 475 710 q 483 676 475 685 q 515 667 492 667 l 613 667 l 613 464 l 515 464 z "},"~":{"ha":944,"x_min":90,"x_max":854,"o":"m 651 781 l 854 781 l 854 674 q 794 499 854 560 q 633 439 735 439 q 507 462 560 439 q 415 538 454 485 l 357 618 l 293 618 l 293 458 l 90 458 l 90 565 q 150 740 90 679 q 311 800 210 800 q 438 777 385 800 q 529 701 490 754 l 588 621 l 651 621 l 651 781 z "},"₩":{"ha":1389,"x_min":0,"x_max":1389,"o":"m 768 26 q 667 57 701 26 q 626 150 633 88 l 535 26 l 411 26 q 309 58 343 26 q 268 156 275 89 l 222 551 l 0 551 l 83 749 l 199 749 l 158 1101 l 404 1101 l 440 749 l 588 749 l 564 1101 l 794 1101 l 810 749 l 954 749 l 985 1101 l 1231 1101 l 1190 749 l 1389 749 l 1306 551 l 1167 551 l 1107 26 l 768 26 m 460 551 l 493 239 l 621 239 l 600 551 l 460 551 m 833 239 l 910 239 l 936 551 l 819 551 l 833 239 z "},"©":{"ha":1389,"x_min":125,"x_max":1264,"o":"m 394 -36 q 198 33 271 -36 q 125 218 125 101 l 125 876 q 198 1062 125 993 q 394 1131 271 1131 l 994 1131 q 1191 1062 1118 1131 q 1264 876 1264 993 l 1264 218 q 1191 33 1264 101 q 994 -36 1118 -36 l 394 -36 m 1097 978 l 292 978 l 292 117 l 1097 117 l 1097 978 m 592 206 q 498 241 533 206 q 463 335 463 276 l 463 764 q 498 858 463 822 q 592 894 533 894 l 968 894 l 844 722 l 654 722 l 654 376 l 917 376 l 917 206 l 592 206 z "},"　":{"ha":1389,"x_min":0,"x_max":0,"o":""},"ㅤ":{"ha":1389,"x_min":0,"x_max":0,"o":""},"、":{"ha":639,"x_min":69,"x_max":549,"o":"m 215 290 l 549 -36 l 378 -203 l 69 151 l 215 290 z "},"。":{"ha":639,"x_min":88,"x_max":538,"o":"m 538 35 q 495 -78 538 -36 q 375 -119 453 -119 l 250 -119 q 130 -78 172 -119 q 88 35 88 -36 l 88 151 q 130 264 88 222 q 250 306 172 306 l 375 306 q 495 264 453 306 q 538 151 538 222 l 538 35 m 385 167 l 240 167 l 240 19 l 385 19 l 385 167 z "},"·":{"ha":556,"x_min":153,"x_max":403,"o":"m 153 472 l 153 739 l 403 739 l 403 472 l 153 472 z "},"‥":{"ha":972,"x_min":150,"x_max":822,"o":"m 150 472 l 150 739 l 400 739 l 400 472 l 150 472 m 572 472 l 572 739 l 822 739 l 822 472 l 572 472 z "},"…":{"ha":1389,"x_min":147,"x_max":1242,"o":"m 147 472 l 147 739 l 397 739 l 397 472 l 147 472 m 569 472 l 569 739 l 819 739 l 819 472 l 569 472 m 992 472 l 992 739 l 1242 739 l 1242 472 l 992 472 z "},"⋯":{"ha":1389,"x_min":147,"x_max":1242,"o":"m 147 472 l 147 739 l 397 739 l 397 472 l 147 472 m 569 472 l 569 739 l 819 739 l 819 472 l 569 472 m 992 472 l 992 739 l 1242 739 l 1242 472 l 992 472 z "},"¨":{"ha":833,"x_min":146,"x_max":688,"o":"m 375 996 l 146 996 l 146 1239 l 375 1239 l 375 996 m 688 996 l 458 996 l 458 1239 l 688 1239 l 688 996 z "},"〃":{"ha":1111,"x_min":211,"x_max":900,"o":"m 417 353 l 211 353 l 408 783 l 615 783 l 417 353 m 701 353 l 496 353 l 693 783 l 900 783 l 701 353 z "},"­":{"ha":903,"x_min":89,"x_max":815,"o":"m 89 458 l 89 692 l 815 692 l 815 458 l 89 458 z "},"–":{"ha":903,"x_min":89,"x_max":815,"o":"m 89 458 l 89 692 l 815 692 l 815 458 l 89 458 z "},"—":{"ha":1111,"x_min":89,"x_max":1022,"o":"m 89 458 l 89 692 l 1022 692 l 1022 458 l 89 458 z "},"―":{"ha":1111,"x_min":89,"x_max":1022,"o":"m 89 458 l 89 692 l 1022 692 l 1022 458 l 89 458 z "},"‖":{"ha":1389,"x_min":422,"x_max":967,"o":"m 422 -269 l 422 1186 l 639 1186 l 639 -269 l 422 -269 m 967 -269 l 750 -269 l 750 1186 l 967 1186 l 967 -269 z "},"＼":{"ha":1389,"x_min":56,"x_max":1333,"o":"m 1035 -56 l 56 1186 l 354 1186 l 1333 -56 l 1035 -56 z "},"∼":{"ha":1389,"x_min":257,"x_max":1132,"o":"m 1132 836 l 1132 646 q 1067 463 1132 529 q 883 397 1001 397 q 731 425 788 397 q 638 510 675 453 l 551 646 l 460 646 l 460 403 l 257 403 l 257 593 q 322 776 257 710 q 506 842 388 842 q 644 813 581 842 q 738 729 708 785 l 810 593 l 929 593 l 929 836 l 1132 836 z "},"〜":{"ha":1389,"x_min":257,"x_max":1132,"o":"m 1132 836 l 1132 646 q 1067 463 1132 529 q 883 397 1001 397 q 731 425 788 397 q 638 510 675 453 l 551 646 l 460 646 l 460 403 l 257 403 l 257 593 q 322 776 257 710 q 506 842 388 842 q 644 813 581 842 q 738 729 708 785 l 810 593 l 929 593 l 929 836 l 1132 836 z "},"～":{"ha":1389,"x_min":257,"x_max":1132,"o":"m 1132 836 l 1132 646 q 1067 463 1132 529 q 883 397 1001 397 q 731 425 788 397 q 638 510 675 453 l 551 646 l 460 646 l 460 403 l 257 403 l 257 593 q 322 776 257 710 q 506 842 388 842 q 644 813 581 842 q 738 729 708 785 l 810 593 l 929 593 l 929 836 l 1132 836 z "},"‘":{"ha":458,"x_min":111,"x_max":347,"o":"m 111 993 l 229 1281 l 347 1281 l 347 796 l 111 796 l 111 993 z "},"’":{"ha":458,"x_min":111,"x_max":347,"o":"m 347 1056 l 229 768 l 111 768 l 111 1253 l 347 1253 l 347 1056 z "},"“":{"ha":736,"x_min":111,"x_max":625,"o":"m 111 1021 l 215 1281 l 333 1281 l 333 824 l 111 824 l 111 1021 m 403 1021 l 507 1281 l 625 1281 l 625 824 l 403 824 l 403 1021 z "},"”":{"ha":736,"x_min":111,"x_max":625,"o":"m 625 1056 l 521 796 l 403 796 l 403 1253 l 625 1253 l 625 1056 m 333 1056 l 229 796 l 111 796 l 111 1253 l 333 1253 l 333 1056 z "},"〔":{"ha":694,"x_min":206,"x_max":676,"o":"m 676 1138 l 429 978 l 429 157 l 676 -4 l 549 -187 l 206 39 l 206 1097 l 549 1321 l 676 1138 z "},"〕":{"ha":694,"x_min":18,"x_max":489,"o":"m 146 -187 l 18 -4 l 265 157 l 265 978 l 18 1138 l 146 1321 l 489 1097 l 489 39 l 146 -187 z "},"〈":{"ha":708,"x_min":39,"x_max":694,"o":"m 454 -175 l 39 572 l 442 1283 l 682 1283 l 281 571 l 694 -175 l 454 -175 z "},"〉":{"ha":708,"x_min":11,"x_max":667,"o":"m 667 572 l 251 -175 l 11 -175 l 425 571 l 24 1283 l 264 1283 l 667 572 z "},"《":{"ha":1042,"x_min":50,"x_max":990,"o":"m 990 -161 l 771 -161 l 376 557 l 771 1269 l 990 1269 l 596 556 l 990 -161 m 664 -161 l 444 -161 l 50 557 l 444 1269 l 664 1269 l 269 556 l 664 -161 z "},"》":{"ha":1042,"x_min":50,"x_max":990,"o":"m 664 557 l 269 -161 l 50 -161 l 444 556 l 50 1269 l 269 1269 l 664 557 m 990 557 l 596 -161 l 376 -161 l 771 556 l 376 1269 l 596 1269 l 990 557 z "},"「":{"ha":694,"x_min":231,"x_max":639,"o":"m 461 1103 l 461 639 l 231 639 l 231 1297 l 639 1297 l 639 1103 l 461 1103 z "},"」":{"ha":694,"x_min":56,"x_max":464,"o":"m 464 492 l 464 -167 l 56 -167 l 56 28 l 233 28 l 233 492 l 464 492 z "},"『":{"ha":694,"x_min":210,"x_max":646,"o":"m 411 749 l 411 1114 l 538 1114 l 538 1189 l 318 1189 l 318 749 l 411 749 m 518 640 l 210 640 l 210 1297 l 646 1297 l 646 1006 l 518 1006 l 518 640 z "},"』":{"ha":694,"x_min":49,"x_max":485,"o":"m 283 379 l 283 14 l 157 14 l 157 -61 l 376 -61 l 376 379 l 283 379 m 176 488 l 485 488 l 485 -169 l 49 -169 l 49 122 l 176 122 l 176 488 z "},"【":{"ha":625,"x_min":115,"x_max":576,"o":"m 576 1213 q 438 1055 499 1157 q 344 824 378 953 q 310 565 310 696 q 344 306 310 435 q 438 76 378 178 q 576 -82 499 -26 l 576 -143 l 115 -143 l 115 1274 l 576 1274 l 576 1213 z "},"】":{"ha":625,"x_min":49,"x_max":510,"o":"m 49 -143 l 49 -82 q 187 76 126 -26 q 281 306 247 178 q 315 565 315 435 q 281 824 315 696 q 187 1055 247 953 q 49 1213 126 1157 l 49 1274 l 510 1274 l 510 -143 l 49 -143 z "},"±":{"ha":847,"x_min":111,"x_max":736,"o":"m 736 597 l 524 597 l 524 401 l 324 401 l 324 597 l 111 597 l 111 789 l 324 789 l 324 985 l 524 985 l 524 789 l 736 789 l 736 597 m 132 135 l 132 326 l 715 326 l 715 135 l 132 135 z "},"×":{"ha":972,"x_min":147,"x_max":826,"o":"m 663 218 l 486 393 l 311 218 l 147 382 l 322 557 l 147 733 l 311 897 l 486 721 l 663 897 l 826 733 l 650 557 l 826 382 l 663 218 z "},"÷":{"ha":972,"x_min":97,"x_max":875,"o":"m 97 451 l 97 671 l 875 671 l 875 451 l 97 451 m 607 764 l 365 764 l 365 1006 l 607 1006 l 607 764 m 607 103 l 365 103 l 365 344 l 607 344 l 607 103 z "},"≠":{"ha":1042,"x_min":154,"x_max":888,"o":"m 765 982 l 717 844 l 888 844 l 888 625 l 642 625 l 600 504 l 888 504 l 888 285 l 524 285 l 476 149 l 278 149 l 325 285 l 154 285 l 154 504 l 400 504 l 442 625 l 154 625 l 154 844 l 518 844 l 565 982 l 765 982 z "},"≤":{"ha":1250,"x_min":156,"x_max":1094,"o":"m 156 49 l 156 257 l 1094 257 l 1094 49 l 156 49 m 635 319 l 163 654 l 635 989 l 1019 989 l 547 654 l 1019 319 l 635 319 z "},"≥":{"ha":1250,"x_min":156,"x_max":1094,"o":"m 156 49 l 156 257 l 1094 257 l 1094 49 l 156 49 m 1088 654 l 615 319 l 231 319 l 703 654 l 231 989 l 615 989 l 1088 654 z "},"∞":{"ha":1389,"x_min":79,"x_max":1310,"o":"m 79 713 q 142 881 79 821 q 307 940 206 940 l 542 940 q 638 920 603 940 q 694 854 674 900 q 751 920 715 900 q 847 940 786 940 l 1082 940 q 1247 881 1183 940 q 1310 713 1310 821 l 1310 429 q 1247 261 1310 321 q 1082 201 1183 201 l 847 201 q 751 222 786 201 q 694 288 715 242 q 638 222 674 242 q 542 201 603 201 l 307 201 q 142 261 206 201 q 79 429 79 321 l 79 713 m 1065 426 l 1065 715 l 817 715 l 817 426 l 1065 426 m 572 715 l 324 715 l 324 426 l 572 426 l 572 715 z "},"∴":{"ha":1319,"x_min":210,"x_max":1110,"o":"m 785 711 l 535 711 l 535 978 l 785 978 l 785 711 m 460 174 l 210 174 l 210 440 l 460 440 l 460 174 m 1110 174 l 860 174 l 860 440 l 1110 440 l 1110 174 z "},"°":{"ha":556,"x_min":50,"x_max":506,"o":"m 506 965 q 463 853 506 894 q 343 811 421 811 l 213 811 q 92 853 135 811 q 50 965 50 894 l 50 1101 q 92 1214 50 1172 q 213 1256 135 1256 l 343 1256 q 463 1214 421 1256 q 506 1101 506 1172 l 506 965 m 353 1117 l 203 1117 l 203 950 l 353 950 l 353 1117 z "},"′":{"ha":625,"x_min":125,"x_max":540,"o":"m 269 1203 l 540 1203 l 306 856 l 125 856 l 269 1203 z "},"″":{"ha":903,"x_min":78,"x_max":825,"o":"m 222 1203 l 493 1203 l 258 856 l 78 856 l 222 1203 m 554 1203 l 825 1203 l 590 856 l 410 856 l 554 1203 z "},"℃":{"ha":1250,"x_min":43,"x_max":1214,"o":"m 644 0 q 506 51 557 0 q 454 189 454 103 l 454 940 q 506 1079 454 1028 q 644 1131 557 1131 l 1214 1131 l 1046 904 l 714 904 l 714 226 l 1154 226 l 1154 0 l 644 0 m 396 1025 q 274 908 396 908 l 165 908 q 43 1025 43 908 l 43 1133 q 165 1250 43 1250 l 274 1250 q 396 1133 396 1250 l 396 1025 m 271 1133 l 168 1133 l 168 1025 l 271 1025 l 271 1133 z "},"Å":{"ha":992,"x_min":22,"x_max":967,"o":"m 343 313 l 286 0 l 22 0 l 210 975 q 381 1131 240 1131 l 747 1131 l 967 0 l 701 0 l 644 313 l 343 313 m 672 1300 q 550 1183 672 1183 l 442 1183 q 319 1300 319 1183 l 319 1394 q 442 1511 319 1511 l 550 1511 q 672 1394 672 1511 l 672 1300 m 539 900 l 450 900 l 385 540 l 604 540 l 539 900 m 547 1394 l 444 1394 l 444 1300 l 547 1300 l 547 1394 z "},"¢":{"ha":915,"x_min":107,"x_max":881,"o":"m 713 835 l 367 835 l 367 296 l 821 296 l 821 69 l 625 69 l 625 -83 l 372 -83 l 372 69 l 297 69 q 158 121 210 69 q 107 258 107 172 l 107 871 q 158 1010 107 958 q 297 1061 210 1061 l 372 1061 l 372 1214 l 625 1214 l 625 1061 l 881 1061 l 713 835 z "},"￠":{"ha":915,"x_min":107,"x_max":881,"o":"m 713 835 l 367 835 l 367 296 l 821 296 l 821 69 l 625 69 l 625 -83 l 372 -83 l 372 69 l 297 69 q 158 121 210 69 q 107 258 107 172 l 107 871 q 158 1010 107 958 q 297 1061 210 1061 l 372 1061 l 372 1214 l 625 1214 l 625 1061 l 881 1061 l 713 835 z "},"£":{"ha":1017,"x_min":90,"x_max":1008,"o":"m 249 940 q 300 1079 249 1028 q 439 1131 351 1131 l 1008 1131 l 840 904 l 508 904 l 508 682 l 838 682 l 838 458 l 508 458 l 508 222 l 963 222 l 963 -1 l 104 -1 l 104 222 l 249 222 l 249 458 l 90 458 l 90 682 l 249 682 l 249 940 z "},"￡":{"ha":1017,"x_min":90,"x_max":1008,"o":"m 249 940 q 300 1079 249 1028 q 439 1131 351 1131 l 1008 1131 l 840 904 l 508 904 l 508 682 l 838 682 l 838 458 l 508 458 l 508 222 l 963 222 l 963 -1 l 104 -1 l 104 222 l 249 222 l 249 458 l 90 458 l 90 682 l 249 682 l 249 940 z "},"¥":{"ha":1111,"x_min":94,"x_max":1018,"o":"m 94 1131 l 354 1131 l 454 631 l 657 631 l 758 1131 l 1018 1131 l 892 607 l 981 607 l 981 410 l 688 410 l 688 347 l 981 347 l 981 149 l 688 149 l 688 0 l 426 0 l 426 149 l 131 149 l 131 347 l 426 347 l 426 410 l 131 410 l 131 607 l 219 607 l 94 1131 z "},"￥":{"ha":1111,"x_min":94,"x_max":1018,"o":"m 94 1131 l 354 1131 l 454 631 l 657 631 l 758 1131 l 1018 1131 l 892 607 l 981 607 l 981 410 l 688 410 l 688 347 l 981 347 l 981 149 l 688 149 l 688 0 l 426 0 l 426 149 l 131 149 l 131 347 l 426 347 l 426 410 l 131 410 l 131 607 l 219 607 l 94 1131 z "},"♂":{"ha":1250,"x_min":50,"x_max":1174,"o":"m 874 640 q 944 399 944 533 q 889 182 944 279 q 732 28 833 85 q 497 -28 631 -28 q 263 28 364 -28 q 106 182 161 85 q 50 399 50 279 q 106 615 50 518 q 263 769 161 713 q 497 825 364 825 q 713 779 614 825 l 854 921 l 593 921 l 761 1089 l 1174 1089 l 1174 676 l 1006 515 l 1006 772 l 874 640 m 297 399 q 350 253 297 308 q 497 199 403 199 q 644 253 592 199 q 697 399 697 308 q 644 544 697 489 q 497 599 592 599 q 350 544 403 599 q 297 399 297 489 z "},"♀":{"ha":1250,"x_min":178,"x_max":1072,"o":"m 178 804 q 233 1021 178 924 q 390 1174 289 1118 q 625 1231 492 1231 q 860 1174 758 1231 q 1017 1021 961 1118 q 1072 804 1072 924 q 986 541 1072 653 q 751 393 900 429 l 751 296 l 1003 296 l 1003 100 l 751 100 l 751 -83 l 499 -83 l 499 100 l 247 100 l 247 296 l 499 296 l 499 393 q 264 541 350 429 q 178 804 178 653 m 425 804 q 478 659 425 714 q 625 604 531 604 q 772 659 719 604 q 825 804 825 714 q 772 949 825 894 q 625 1004 719 1004 q 478 949 531 1004 q 425 804 425 894 z "},"∠":{"ha":1389,"x_min":146,"x_max":1264,"o":"m 1264 294 l 1264 57 l 146 57 l 146 179 l 982 1078 l 1167 899 l 615 294 l 1264 294 z "},"⊥":{"ha":1250,"x_min":104,"x_max":1146,"o":"m 751 1033 l 751 340 l 1146 340 l 1146 118 l 104 118 l 104 340 l 499 340 l 499 1033 l 751 1033 z "},"⌒":{"ha":1250,"x_min":153,"x_max":1099,"o":"m 403 581 l 403 317 l 153 317 l 153 632 q 199 758 153 711 q 328 806 246 806 l 924 806 q 1052 758 1006 806 q 1099 632 1099 711 l 1099 317 l 849 317 l 849 581 l 403 581 z "},"∂":{"ha":1042,"x_min":93,"x_max":921,"o":"m 350 226 l 664 226 l 664 613 l 350 613 l 350 226 m 283 0 q 144 51 196 0 q 93 189 93 103 l 93 649 q 144 788 93 736 q 283 839 196 839 l 594 839 q 475 1022 544 922 q 349 1186 406 1121 l 647 1186 q 764 1022 704 1118 q 871 835 824 926 q 921 599 921 735 l 921 189 q 869 51 921 101 q 729 0 818 0 l 283 0 z "},"∇":{"ha":1389,"x_min":60,"x_max":1331,"o":"m 60 1032 l 1331 1032 l 690 47 l 60 1032 m 475 854 l 739 421 l 1015 854 l 475 854 z "},"≡":{"ha":1250,"x_min":197,"x_max":1053,"o":"m 197 768 l 197 983 l 1053 983 l 1053 768 l 197 768 m 197 479 l 197 694 l 1053 694 l 1053 479 l 197 479 m 197 190 l 197 406 l 1053 406 l 1053 190 l 197 190 z "},"≒":{"ha":1250,"x_min":115,"x_max":1136,"o":"m 115 586 l 115 785 l 1136 785 l 1136 586 l 115 586 m 115 274 l 115 472 l 1136 472 l 1136 274 l 115 274 m 419 863 l 178 863 l 178 1104 l 419 1104 l 419 863 m 1082 -46 l 840 -46 l 840 196 l 1082 196 l 1082 -46 z "},"§":{"ha":903,"x_min":89,"x_max":868,"o":"m 574 546 l 335 546 l 335 318 l 574 318 l 574 546 m 819 374 q 760 231 819 279 q 813 96 813 175 l 813 -79 q 761 -218 813 -167 q 622 -269 710 -269 l 103 -269 l 103 -50 l 556 -50 l 556 107 l 271 107 q 136 154 183 107 q 89 289 89 201 l 89 490 q 149 633 89 585 q 96 768 96 689 l 96 940 q 147 1079 96 1028 q 286 1131 199 1131 l 868 1131 l 706 911 l 353 911 l 353 757 l 638 757 q 772 710 725 757 q 819 575 819 663 l 819 374 z "},"※":{"ha":1250,"x_min":39,"x_max":1211,"o":"m 981 71 l 625 428 l 269 71 l 125 215 l 481 572 l 125 931 l 271 1075 l 625 718 l 979 1075 l 1125 931 l 769 572 l 1125 215 l 981 71 m 514 1149 l 736 1149 l 736 926 l 514 926 l 514 1149 m 514 219 l 736 219 l 736 -3 l 514 -3 l 514 219 m 989 696 l 1211 696 l 1211 474 l 989 474 l 989 696 m 261 474 l 39 474 l 39 696 l 261 696 l 261 474 z "},"☆":{"ha":1389,"x_min":28,"x_max":1361,"o":"m 433 469 l 28 774 l 538 774 l 694 1253 l 851 774 l 1361 774 l 956 469 l 1115 -29 l 694 285 l 274 -29 l 433 469 m 761 650 l 694 857 l 628 650 l 399 650 l 583 524 l 518 315 l 694 447 l 871 315 l 806 524 l 990 650 l 761 650 z "},"★":{"ha":1389,"x_min":28,"x_max":1361,"o":"m 433 469 l 28 774 l 538 774 l 694 1253 l 851 774 l 1361 774 l 956 469 l 1115 -29 l 694 285 l 274 -29 l 433 469 z "},"○":{"ha":1389,"x_min":117,"x_max":1271,"o":"m 693 -40 q 406 38 538 -40 q 195 249 274 117 q 117 536 117 381 q 195 824 117 692 q 406 1035 274 957 q 693 1114 538 1114 q 981 1035 849 1114 q 1192 824 1114 957 q 1271 536 1271 692 q 1192 249 1271 381 q 981 38 1114 117 q 693 -40 849 -40 m 275 536 q 330 324 275 419 q 481 173 385 228 q 693 118 576 118 q 907 173 811 118 q 1058 324 1003 228 q 1113 536 1113 419 q 1058 750 1113 654 q 907 901 1003 846 q 693 956 811 956 q 481 901 576 956 q 330 750 385 846 q 275 536 275 654 z "},"●":{"ha":1389,"x_min":117,"x_max":1271,"o":"m 693 -40 q 406 38 538 -40 q 195 249 274 117 q 117 536 117 381 q 195 824 117 692 q 406 1035 274 957 q 693 1114 538 1114 q 981 1035 849 1114 q 1192 824 1114 957 q 1271 536 1271 692 q 1192 249 1271 381 q 981 38 1114 117 q 693 -40 849 -40 z "},"◎":{"ha":1389,"x_min":117,"x_max":1271,"o":"m 365 538 q 410 701 365 626 q 529 821 454 776 q 693 865 604 865 q 858 821 782 865 q 978 701 933 776 q 1022 538 1022 626 q 978 373 1022 449 q 858 253 933 297 q 693 208 782 208 q 529 253 604 208 q 410 373 454 297 q 365 538 365 449 m 117 536 q 195 824 117 692 q 406 1035 274 957 q 693 1114 538 1114 q 981 1035 849 1114 q 1192 824 1114 957 q 1271 536 1271 692 q 1192 249 1271 381 q 981 38 1114 117 q 693 -40 849 -40 q 406 38 538 -40 q 195 249 274 117 q 117 536 117 381 m 275 536 q 330 324 275 419 q 481 173 385 228 q 693 118 576 118 q 907 173 811 118 q 1058 324 1003 228 q 1113 536 1113 419 q 1058 750 1113 654 q 907 901 1003 846 q 693 956 811 956 q 481 901 576 956 q 330 750 385 846 q 275 536 275 654 m 515 538 q 563 407 515 456 q 693 358 611 358 q 824 407 775 358 q 872 538 872 456 q 824 667 872 619 q 693 715 775 715 q 564 667 613 715 q 515 538 515 619 z "},"◇":{"ha":1389,"x_min":67,"x_max":1321,"o":"m 694 -99 l 67 532 l 693 1164 l 1321 533 l 694 -99 m 693 954 l 281 532 l 693 113 l 1104 533 l 693 954 z "},"◆":{"ha":1389,"x_min":67,"x_max":1321,"o":"m 694 -99 l 67 532 l 693 1164 l 1321 533 l 694 -99 z "},"□":{"ha":1389,"x_min":171,"x_max":1218,"o":"m 171 8 l 171 1057 l 1218 1057 l 1218 8 l 171 8 m 332 897 l 332 169 l 1058 169 l 1058 897 l 332 897 z "},"■":{"ha":1389,"x_min":171,"x_max":1218,"o":"m 171 8 l 171 1057 l 1218 1057 l 1218 8 l 171 8 z "},"△":{"ha":1389,"x_min":85,"x_max":1304,"o":"m 360 164 l 1029 164 l 694 789 l 360 164 m 694 1142 l 1304 8 l 85 8 l 694 1142 z "},"▲":{"ha":1389,"x_min":85,"x_max":1304,"o":"m 694 1142 l 1304 8 l 85 8 l 694 1142 z "},"▽":{"ha":1389,"x_min":85,"x_max":1304,"o":"m 1029 917 l 360 917 l 694 292 l 1029 917 m 1304 1072 l 694 -61 l 85 1072 l 1304 1072 z "},"▼":{"ha":1389,"x_min":85,"x_max":1304,"o":"m 1304 1072 l 694 -61 l 85 1072 l 1304 1072 z "},"→":{"ha":1250,"x_min":107,"x_max":1207,"o":"m 107 496 l 107 710 l 833 710 l 610 935 l 876 935 l 1207 603 l 876 271 l 610 271 l 833 496 l 107 496 z "},"←":{"ha":1250,"x_min":82,"x_max":1182,"o":"m 413 935 l 679 935 l 454 710 l 1182 710 l 1182 496 l 454 496 l 679 271 l 413 271 l 82 603 l 413 935 z "},"↑":{"ha":1250,"x_min":293,"x_max":957,"o":"m 293 528 l 293 794 l 625 1125 l 957 794 l 957 528 l 732 751 l 732 25 l 518 25 l 518 751 l 293 528 z "},"↓":{"ha":1250,"x_min":293,"x_max":957,"o":"m 293 556 l 518 331 l 518 1058 l 732 1058 l 732 331 l 957 556 l 957 289 l 625 -42 l 293 289 l 293 556 z "},"↔":{"ha":1389,"x_min":18,"x_max":1372,"o":"m 775 935 l 1042 935 l 1372 603 l 1042 271 l 775 271 l 999 496 l 390 496 l 615 271 l 349 271 l 18 603 l 349 935 l 615 935 l 390 710 l 999 710 l 775 935 z "},"〓":{"ha":1250,"x_min":160,"x_max":1092,"o":"m 1092 824 l 1092 601 l 160 601 l 160 824 l 1092 824 m 1092 465 l 1092 243 l 160 243 l 160 465 l 1092 465 z "},"«":{"ha":875,"x_min":39,"x_max":826,"o":"m 268 554 l 517 242 l 292 242 l 39 554 l 292 867 l 521 867 l 268 554 m 578 554 l 826 242 l 601 242 l 349 554 l 601 867 l 822 867 l 578 554 z "},"»":{"ha":875,"x_min":49,"x_max":836,"o":"m 583 242 l 358 242 l 607 554 l 354 867 l 583 867 l 836 554 l 583 242 m 274 242 l 49 242 l 297 554 l 53 867 l 274 867 l 526 554 l 274 242 z "},"√":{"ha":1111,"x_min":56,"x_max":1022,"o":"m 367 638 q 435 619 408 638 q 479 563 463 600 l 556 385 l 760 1126 l 1022 1126 l 707 -14 l 568 -14 q 469 12 508 -14 q 407 92 429 38 l 269 411 l 56 411 l 56 638 l 367 638 z "},"∽":{"ha":1389,"x_min":257,"x_max":1132,"o":"m 651 729 q 744 813 681 785 q 883 842 808 842 q 1067 776 1001 842 q 1132 593 1132 710 l 1132 403 l 929 403 l 929 646 l 838 646 l 751 510 q 658 425 714 453 q 506 397 601 397 q 322 463 388 397 q 257 646 257 529 l 257 836 l 460 836 l 460 593 l 579 593 l 651 729 z "},"∝":{"ha":1389,"x_min":174,"x_max":1222,"o":"m 174 713 q 237 881 174 821 q 401 940 300 940 l 639 940 q 735 920 700 940 q 792 854 771 900 q 848 920 813 900 q 944 940 883 940 l 1222 940 l 1222 715 l 914 715 l 914 426 l 1222 426 l 1222 201 l 944 201 q 848 222 883 201 q 792 288 813 242 q 735 222 771 242 q 639 201 700 201 l 401 201 q 237 261 300 201 q 174 429 174 321 l 174 713 m 669 715 l 418 715 l 418 426 l 669 426 l 669 715 z "},"∵":{"ha":1319,"x_min":210,"x_max":1110,"o":"m 785 372 l 785 106 l 535 106 l 535 372 l 785 372 m 460 910 l 460 643 l 210 643 l 210 910 l 460 910 m 1110 910 l 1110 643 l 860 643 l 860 910 l 1110 910 z "},"∫":{"ha":972,"x_min":178,"x_max":794,"o":"m 611 -79 q 560 -218 611 -167 q 421 -269 508 -269 l 178 -269 l 178 -47 l 361 -47 l 361 996 q 413 1135 361 1083 q 551 1186 464 1186 l 794 1186 l 794 964 l 611 964 l 611 -79 z "},"∬":{"ha":1250,"x_min":101,"x_max":1149,"o":"m 507 -79 q 456 -218 507 -167 q 317 -269 404 -269 l 101 -269 l 101 -47 l 257 -47 l 257 996 q 308 1135 257 1083 q 447 1186 360 1186 l 663 1186 l 663 964 l 507 964 l 507 -79 m 993 -79 q 942 -218 993 -167 q 803 -269 890 -269 l 588 -269 l 588 -47 l 743 -47 l 743 996 q 794 1135 743 1083 q 933 1186 846 1186 l 1149 1186 l 1149 964 l 993 964 l 993 -79 z "},"∈":{"ha":1250,"x_min":153,"x_max":1097,"o":"m 153 811 q 204 950 153 899 q 343 1001 256 1001 l 1097 1001 l 1097 790 l 407 790 l 407 693 l 1083 693 l 1083 496 l 407 496 l 407 399 l 1097 399 l 1097 188 l 343 188 q 204 239 256 188 q 153 378 153 290 l 153 811 z "},"∋":{"ha":1250,"x_min":153,"x_max":1097,"o":"m 843 790 l 153 790 l 153 1001 l 907 1001 q 1046 950 994 1001 q 1097 811 1097 899 l 1097 378 q 1046 239 1097 290 q 907 188 994 188 l 153 188 l 153 399 l 843 399 l 843 496 l 167 496 l 167 693 l 843 693 l 843 790 z "},"⊆":{"ha":1250,"x_min":103,"x_max":1118,"o":"m 103 54 l 103 278 l 1118 278 l 1118 54 l 103 54 m 153 853 q 204 992 153 940 q 343 1043 256 1043 l 1097 1043 l 1097 818 l 407 818 l 407 594 l 1097 594 l 1097 369 l 343 369 q 204 421 256 369 q 153 560 153 472 l 153 853 z "},"⊇":{"ha":1250,"x_min":132,"x_max":1147,"o":"m 1147 54 l 132 54 l 132 278 l 1147 278 l 1147 54 m 1097 560 q 1046 421 1097 472 q 907 369 994 369 l 153 369 l 153 594 l 843 594 l 843 818 l 153 818 l 153 1043 l 907 1043 q 1046 992 994 1043 q 1097 853 1097 940 l 1097 560 z "},"⊂":{"ha":1250,"x_min":153,"x_max":1097,"o":"m 153 797 q 204 936 153 885 q 343 988 256 988 l 1097 988 l 1097 763 l 407 763 l 407 428 l 1097 428 l 1097 203 l 343 203 q 204 254 256 203 q 153 393 153 306 l 153 797 z "},"⊃":{"ha":1250,"x_min":153,"x_max":1097,"o":"m 1097 393 q 1046 254 1097 306 q 907 203 994 203 l 153 203 l 153 428 l 843 428 l 843 763 l 153 763 l 153 988 l 907 988 q 1046 936 994 988 q 1097 797 1097 885 l 1097 393 z "},"∪":{"ha":1111,"x_min":164,"x_max":949,"o":"m 354 42 q 215 93 267 42 q 164 232 164 144 l 164 1063 l 417 1063 l 417 268 l 696 268 l 696 1063 l 949 1063 l 949 232 q 897 93 949 144 q 758 42 846 42 l 354 42 z "},"∩":{"ha":1111,"x_min":164,"x_max":949,"o":"m 758 1063 q 897 1011 846 1063 q 949 872 949 960 l 949 42 l 696 42 l 696 836 l 417 836 l 417 42 l 164 42 l 164 872 q 215 1011 164 960 q 354 1063 267 1063 l 758 1063 z "},"∧":{"ha":1181,"x_min":149,"x_max":1032,"o":"m 761 56 l 604 793 l 576 793 l 418 56 l 149 56 l 404 1047 l 776 1047 l 1032 56 l 761 56 z "},"∨":{"ha":1181,"x_min":149,"x_max":1032,"o":"m 419 1047 l 576 310 l 604 310 l 763 1047 l 1032 1047 l 776 56 l 404 56 l 149 1047 l 419 1047 z "},"￢":{"ha":1389,"x_min":153,"x_max":1208,"o":"m 153 651 l 153 876 l 1208 876 l 1208 243 l 954 243 l 954 651 l 153 651 z "},"⇒":{"ha":1389,"x_min":111,"x_max":1333,"o":"m 111 383 l 111 564 l 1028 564 l 1067 603 l 1029 640 l 111 640 l 111 821 l 849 821 l 736 935 l 1003 935 l 1333 603 l 1003 271 l 736 271 l 847 383 l 111 383 z "},"⇔":{"ha":1389,"x_min":18,"x_max":1372,"o":"m 349 935 l 615 935 l 501 821 l 888 821 l 775 935 l 1042 935 l 1372 603 l 1042 271 l 775 271 l 886 383 l 503 383 l 615 271 l 349 271 l 18 603 l 349 935 m 285 603 l 324 564 l 1067 564 l 1106 603 l 1068 640 l 322 640 l 285 603 z "},"∀":{"ha":1069,"x_min":63,"x_max":1007,"o":"m 421 -4 q 250 151 281 -4 l 63 1126 l 326 1126 l 383 814 l 685 814 l 742 1126 l 1007 1126 l 788 -4 l 421 -4 m 644 586 l 425 586 l 490 226 l 579 226 l 644 586 z "},"∃":{"ha":1250,"x_min":242,"x_max":1008,"o":"m 753 904 l 304 904 l 304 1131 l 1008 1131 l 1008 0 l 242 0 l 410 226 l 753 226 l 753 438 l 386 438 l 386 649 l 753 649 l 753 904 z "},"´":{"ha":694,"x_min":204,"x_max":511,"o":"m 204 1226 l 296 1532 l 511 1532 l 360 1226 l 204 1226 z "},"˜":{"ha":833,"x_min":139,"x_max":696,"o":"m 696 1436 l 696 1344 q 652 1229 696 1271 q 535 1188 608 1188 q 442 1204 481 1188 q 376 1258 403 1221 l 333 1318 l 286 1318 l 286 1201 l 139 1201 l 139 1293 q 183 1408 139 1367 q 300 1450 228 1450 q 392 1433 353 1450 q 458 1379 431 1417 l 501 1319 l 547 1319 l 547 1436 l 696 1436 z "},"ˇ":{"ha":833,"x_min":96,"x_max":738,"o":"m 406 1338 l 428 1338 l 515 1458 l 738 1458 l 524 1192 l 310 1192 l 96 1458 l 318 1458 l 406 1338 z "},"˘":{"ha":833,"x_min":169,"x_max":664,"o":"m 272 1211 q 197 1239 225 1211 q 169 1313 169 1267 l 169 1456 l 344 1456 l 344 1357 l 489 1357 l 489 1456 l 664 1456 l 664 1313 q 636 1239 664 1267 q 561 1211 608 1211 l 272 1211 z "},"˝":{"ha":833,"x_min":125,"x_max":722,"o":"m 125 1157 l 204 1460 l 435 1460 l 290 1157 l 125 1157 m 576 1157 l 414 1157 l 496 1460 l 722 1460 l 576 1157 z "},"˚":{"ha":833,"x_min":240,"x_max":593,"o":"m 593 1282 q 471 1165 593 1165 l 363 1165 q 240 1282 240 1165 l 240 1390 q 363 1507 240 1507 l 471 1507 q 593 1390 593 1507 l 593 1282 m 468 1390 l 365 1390 l 365 1282 l 468 1282 l 468 1390 z "},"˙":{"ha":694,"x_min":233,"x_max":463,"o":"m 463 1204 l 233 1204 l 233 1447 l 463 1447 l 463 1204 z "},"¸":{"ha":694,"x_min":189,"x_max":529,"o":"m 375 -203 l 201 -203 l 251 24 l 421 24 l 393 -92 l 422 -92 q 503 -119 476 -92 q 529 -197 529 -147 l 529 -314 q 499 -397 529 -365 q 414 -429 469 -429 l 189 -429 l 189 -293 l 375 -293 l 375 -203 z "},"˛":{"ha":694,"x_min":189,"x_max":532,"o":"m 297 -325 q 217 -299 246 -325 q 189 -226 189 -272 q 192 -201 189 -218 l 228 14 l 379 14 l 346 -197 l 532 -197 l 532 -325 l 297 -325 z "},"¡":{"ha":528,"x_min":125,"x_max":403,"o":"m 389 926 l 389 688 l 139 688 l 139 926 l 389 926 m 125 -269 l 153 561 l 375 561 l 403 -269 l 125 -269 z "},"¿":{"ha":931,"x_min":111,"x_max":854,"o":"m 646 926 l 646 688 l 396 688 l 396 926 l 646 926 m 364 210 l 364 -44 l 604 -44 l 604 68 l 854 68 l 854 -42 q 794 -206 854 -142 q 625 -269 733 -269 l 339 -269 q 171 -206 231 -269 q 111 -42 111 -143 l 111 199 q 164 356 111 300 q 325 413 217 413 l 406 413 l 411 586 l 636 586 l 643 210 l 364 210 z "},"∶":{"ha":1389,"x_min":569,"x_max":819,"o":"m 819 163 l 569 163 l 569 415 l 819 415 l 819 163 m 819 715 l 569 715 l 569 968 l 819 968 l 819 715 z "},"∮":{"ha":1250,"x_min":161,"x_max":1089,"o":"m 1089 285 q 1042 158 1089 206 q 914 111 996 111 l 750 111 l 750 -79 q 699 -218 750 -167 q 560 -269 647 -269 l 344 -269 l 344 -47 l 500 -47 l 500 111 l 336 111 q 208 158 254 111 q 161 285 161 206 l 161 660 q 208 786 161 739 q 336 833 254 833 l 500 833 l 500 996 q 551 1135 500 1083 q 690 1186 603 1186 l 906 1186 l 906 964 l 750 964 l 750 833 l 914 833 q 1042 786 996 833 q 1089 660 1089 739 l 1089 285 m 506 619 l 399 619 l 399 325 l 506 325 l 506 619 m 851 325 l 851 619 l 744 619 l 744 325 l 851 325 z "},"∑":{"ha":1111,"x_min":160,"x_max":943,"o":"m 943 -28 l 160 -28 l 160 174 l 444 538 l 228 814 q 194 871 204 842 q 185 939 185 900 l 185 1103 l 943 1103 l 943 876 l 489 876 l 750 542 l 489 199 l 943 199 l 943 -28 z "},"∏":{"ha":1250,"x_min":119,"x_max":1131,"o":"m 1131 1103 l 1131 875 l 963 875 l 963 -28 l 708 -28 l 708 875 l 538 875 l 538 -28 l 286 -28 l 286 875 l 119 875 l 119 1103 l 1131 1103 z "},"¤":{"ha":1111,"x_min":39,"x_max":1072,"o":"m 399 914 q 424 915 407 915 l 688 915 q 713 914 704 915 l 783 1024 l 1072 1024 l 911 776 q 922 701 922 740 l 922 431 q 911 354 922 390 l 1072 107 l 783 107 l 713 215 l 399 215 l 328 107 l 39 107 l 199 354 q 189 431 189 385 l 189 701 q 199 776 189 746 l 39 1024 l 328 1024 l 399 914 m 692 700 l 419 700 l 419 432 l 692 432 l 692 700 z "},"℉":{"ha":1250,"x_min":43,"x_max":1222,"o":"m 1090 456 l 718 456 l 718 0 l 461 0 l 461 1131 l 1222 1131 l 1054 904 l 718 904 l 718 683 l 1090 683 l 1090 456 m 396 1025 q 274 908 396 908 l 165 908 q 43 1025 43 908 l 43 1133 q 165 1250 43 1250 l 274 1250 q 396 1133 396 1250 l 396 1025 m 271 1133 l 168 1133 l 168 1025 l 271 1025 l 271 1133 z "},"‰":{"ha":1389,"x_min":33,"x_max":1356,"o":"m 92 0 l 647 1131 l 854 1131 l 299 0 l 92 0 m 186 810 l 278 810 l 278 982 l 186 982 l 186 810 m 33 988 q 69 1093 33 1056 q 171 1131 106 1131 l 293 1131 q 394 1093 358 1131 q 431 988 431 1056 l 431 804 q 394 699 431 736 q 293 661 358 661 l 171 661 q 69 699 106 661 q 33 804 33 736 l 33 988 m 761 321 l 669 321 l 669 149 l 761 149 l 761 321 m 914 143 q 878 38 914 75 q 776 0 842 0 l 654 0 q 553 38 589 0 q 517 143 517 75 l 517 326 q 553 432 517 394 q 654 469 589 469 l 776 469 q 878 432 842 469 q 914 326 914 394 l 914 143 m 1203 321 l 1111 321 l 1111 149 l 1203 149 l 1203 321 m 1356 143 q 1319 38 1356 75 q 1218 0 1283 0 l 1096 0 q 994 38 1031 0 q 958 143 958 75 l 958 326 q 994 432 958 394 q 1096 469 1031 469 l 1218 469 q 1319 432 1283 469 q 1356 326 1356 394 l 1356 143 z "},"◁":{"ha":1389,"x_min":81,"x_max":1171,"o":"m 1171 -54 l 81 542 l 1171 1136 l 1171 -54 m 1014 206 l 1014 876 l 388 542 l 1014 206 z "},"◀":{"ha":1389,"x_min":81,"x_max":1171,"o":"m 1171 -54 l 81 542 l 1171 1136 l 1171 -54 z "},"▷":{"ha":1389,"x_min":218,"x_max":1308,"o":"m 1308 542 l 218 -54 l 218 1136 l 1308 542 m 375 876 l 375 206 l 1001 542 l 375 876 z "},"▶":{"ha":1389,"x_min":218,"x_max":1308,"o":"m 1308 542 l 218 -54 l 218 1136 l 1308 542 z "},"♤":{"ha":1389,"x_min":113,"x_max":1276,"o":"m 528 144 q 413 124 474 124 q 269 159 339 124 q 156 261 200 194 q 113 418 113 328 q 138 556 113 494 q 222 686 164 617 q 399 874 281 756 q 553 1047 486 961 q 694 1253 621 1132 q 835 1047 768 1132 q 990 874 903 961 q 1167 686 1108 756 q 1251 556 1225 617 q 1276 418 1276 494 q 1233 261 1276 328 q 1119 159 1189 194 q 976 124 1050 124 q 861 144 915 124 l 988 22 l 988 -93 l 401 -93 l 401 22 l 528 144 m 629 117 q 579 22 611 65 l 810 22 q 760 117 778 65 q 742 207 747 154 q 736 332 738 260 q 847 278 788 300 q 943 257 906 257 q 1074 299 1021 257 q 1128 418 1128 340 q 1109 524 1128 481 q 1049 615 1090 568 q 896 775 1007 663 q 768 910 811 861 q 694 1008 725 960 q 621 910 664 960 q 493 775 578 861 q 340 615 382 663 q 280 524 299 568 q 261 418 261 481 q 315 299 261 340 q 446 257 368 257 q 542 278 483 257 q 653 332 601 300 q 647 207 651 260 q 629 117 642 154 z "},"♠":{"ha":1389,"x_min":113,"x_max":1276,"o":"m 556 186 q 484 160 532 168 q 399 151 436 151 q 258 180 324 151 q 153 268 193 208 q 113 418 113 328 q 138 556 113 494 q 222 686 164 617 q 399 874 281 756 q 553 1047 486 961 q 694 1253 621 1132 q 835 1047 768 1132 q 990 874 903 961 q 1167 686 1108 756 q 1251 556 1225 617 q 1276 418 1276 494 q 1236 268 1276 328 q 1131 180 1196 208 q 990 151 1065 151 q 905 160 953 151 q 833 186 857 168 l 960 -6 l 960 -93 l 429 -93 l 429 -6 l 556 186 z "},"♡":{"ha":1389,"x_min":97,"x_max":1292,"o":"m 694 -119 q 597 17 651 -49 q 454 179 542 82 l 425 211 q 244 425 311 336 q 137 609 176 514 q 97 811 97 704 q 140 990 97 914 q 257 1106 183 1065 q 421 1146 331 1146 q 580 1108 515 1146 q 694 1001 644 1071 q 809 1108 744 1071 q 968 1146 874 1146 q 1132 1106 1058 1146 q 1249 990 1206 1065 q 1292 811 1292 914 q 1252 609 1292 704 q 1145 425 1213 514 q 964 211 1078 336 l 935 179 q 792 17 847 82 q 694 -119 738 -49 m 694 118 q 815 261 713 140 l 858 310 q 882 338 881 336 q 1012 494 961 428 q 1098 638 1063 561 q 1133 790 1133 714 q 1085 944 1133 893 q 947 996 1038 996 q 694 736 794 996 q 442 996 594 996 q 303 944 351 996 q 256 790 256 893 q 291 638 256 714 q 377 494 326 561 q 507 338 428 428 q 531 310 508 336 l 574 261 q 694 118 676 140 z "},"♥":{"ha":1389,"x_min":97,"x_max":1292,"o":"m 694 -119 q 597 17 651 -49 q 454 179 542 82 l 425 211 q 244 425 311 336 q 137 609 176 514 q 97 811 97 704 q 140 990 97 914 q 257 1106 183 1065 q 421 1146 331 1146 q 584 1101 519 1146 q 694 960 649 1056 q 805 1101 740 1056 q 968 1146 869 1146 q 1132 1106 1058 1146 q 1249 990 1206 1065 q 1292 811 1292 914 q 1252 609 1292 704 q 1145 425 1213 514 q 964 211 1078 336 l 935 179 q 792 17 847 82 q 694 -119 738 -49 z "},"♧":{"ha":1389,"x_min":39,"x_max":1350,"o":"m 522 168 q 433 131 485 144 q 332 117 382 117 q 194 152 261 117 q 83 257 126 188 q 39 422 39 326 q 77 588 39 517 q 185 698 115 660 q 349 736 256 736 q 406 733 369 736 q 368 815 381 776 q 356 906 356 854 q 398 1060 356 993 q 517 1165 440 1128 q 694 1201 594 1201 q 872 1165 794 1201 q 991 1060 949 1128 q 1033 906 1033 993 q 1021 815 1033 854 q 983 733 1008 776 q 1040 736 1019 736 q 1203 698 1133 736 q 1312 588 1274 660 q 1350 422 1350 517 q 1306 257 1350 326 q 1195 152 1263 188 q 1057 117 1128 117 q 956 131 1007 117 q 867 168 904 144 l 996 21 l 996 -94 l 393 -94 l 393 21 l 522 168 m 618 139 q 578 19 604 82 l 811 19 q 771 139 785 82 q 755 231 761 182 q 749 313 749 279 q 765 351 749 336 q 804 367 782 367 q 846 344 829 367 q 932 269 882 297 q 1039 242 982 242 q 1167 288 1114 242 q 1219 422 1219 333 q 1168 562 1219 508 q 1029 615 1117 615 q 947 610 981 615 q 881 585 914 604 q 847 575 864 575 q 810 592 826 575 q 793 631 793 610 q 806 663 793 649 q 897 893 897 772 q 844 1026 897 978 q 694 1075 792 1075 q 544 1026 597 1075 q 492 893 492 978 q 583 663 492 772 q 596 631 596 649 q 579 592 596 610 q 542 575 563 575 q 508 585 525 575 q 442 610 475 604 q 360 615 408 615 q 221 562 272 615 q 169 422 169 508 q 222 288 169 333 q 350 242 275 242 q 457 269 407 242 q 543 344 507 297 q 585 367 560 367 q 624 351 607 367 q 640 313 640 336 q 634 231 640 279 q 618 139 628 182 z "},"♣":{"ha":1389,"x_min":39,"x_max":1350,"o":"m 407 -7 l 547 196 q 443 151 507 171 q 332 131 379 131 q 192 163 260 131 q 82 260 125 194 q 39 422 39 326 q 116 651 39 567 q 331 736 193 736 q 388 728 358 736 q 436 710 418 721 q 381 797 401 744 q 360 906 360 849 q 401 1060 360 993 q 519 1165 443 1128 q 694 1201 594 1201 q 870 1165 794 1201 q 988 1060 946 1128 q 1029 906 1029 993 q 1008 797 1029 850 q 953 710 988 744 q 1000 728 971 721 q 1058 736 1029 736 q 1273 651 1196 736 q 1350 422 1350 567 q 1307 260 1350 326 q 1197 163 1264 194 q 1057 131 1129 131 q 946 151 1010 131 q 842 196 882 171 l 982 -7 l 982 -94 l 407 -94 l 407 -7 z "},"◉":{"ha":1389,"x_min":117,"x_max":1271,"o":"m 693 -40 q 406 38 538 -40 q 195 249 274 117 q 117 536 117 381 q 195 824 117 692 q 406 1035 274 957 q 693 1114 538 1114 q 981 1035 849 1114 q 1192 824 1114 957 q 1271 536 1271 692 q 1192 249 1271 381 q 981 38 1114 117 q 693 -40 849 -40 m 275 536 q 330 324 275 419 q 481 173 385 228 q 693 118 576 118 q 907 173 811 118 q 1058 324 1003 228 q 1113 536 1113 419 q 1058 750 1113 654 q 907 901 1003 846 q 693 956 811 956 q 481 901 576 956 q 330 750 385 846 q 275 536 275 654 m 457 536 q 488 657 457 603 q 574 742 519 711 q 693 774 628 774 q 814 742 760 774 q 899 657 868 711 q 931 536 931 603 q 899 417 931 471 q 814 331 868 363 q 693 300 760 300 q 574 331 628 300 q 488 417 519 363 q 457 536 457 471 z "},"◈":{"ha":1389,"x_min":67,"x_max":1321,"o":"m 939 533 l 693 282 l 446 532 l 693 785 l 939 533 m 694 -99 l 67 532 l 693 1164 l 1321 533 l 694 -99 m 693 954 l 281 532 l 693 113 l 1104 533 l 693 954 z "},"▣":{"ha":1389,"x_min":171,"x_max":1218,"o":"m 171 8 l 171 1057 l 1218 1057 l 1218 8 l 171 8 m 1058 897 l 332 897 l 332 169 l 1058 169 l 1058 897 m 924 761 l 924 300 l 467 300 l 467 761 l 924 761 z "},"◐":{"ha":1389,"x_min":117,"x_max":1271,"o":"m 693 -40 q 406 38 538 -40 q 195 249 274 117 q 117 536 117 381 q 195 824 117 692 q 406 1035 274 957 q 693 1114 538 1114 q 981 1035 849 1114 q 1192 824 1114 957 q 1271 536 1271 692 q 1192 249 1271 381 q 981 38 1114 117 q 693 -40 849 -40 m 693 118 q 907 173 811 118 q 1058 324 1003 228 q 1113 536 1113 419 q 1058 750 1113 654 q 907 901 1003 846 q 693 956 811 956 l 693 118 z "},"◑":{"ha":1389,"x_min":117,"x_max":1271,"o":"m 693 -40 q 406 38 538 -40 q 195 249 274 117 q 117 536 117 381 q 195 824 117 692 q 406 1035 274 957 q 693 1114 538 1114 l 694 1114 q 982 1035 850 1114 q 1192 824 1114 957 q 1271 536 1271 692 q 1192 249 1271 381 q 982 38 1114 117 q 694 -40 850 -40 l 693 -40 m 275 536 q 330 324 275 419 q 481 173 385 228 q 693 118 576 118 l 694 118 l 694 956 l 693 956 q 481 901 576 956 q 330 750 385 846 q 275 536 275 654 z "},"▒":{"ha":1389,"x_min":171,"x_max":1218,"o":"m 171 8 l 171 1057 l 1218 1057 l 1218 8 l 171 8 m 461 375 l 538 375 l 538 300 l 461 300 l 461 217 l 538 217 l 538 138 l 618 138 l 618 217 l 696 217 l 696 300 l 618 300 l 618 375 l 696 375 l 696 456 l 618 456 l 618 535 l 696 535 l 696 611 l 618 611 l 618 693 l 696 693 l 696 769 l 618 769 l 618 851 l 696 851 l 696 931 l 618 931 l 618 851 l 538 851 l 538 931 l 461 931 l 461 851 l 538 851 l 538 769 l 461 769 l 461 693 l 538 693 l 538 611 l 461 611 l 461 535 l 538 535 l 538 456 l 461 456 l 461 375 m 618 375 l 538 375 l 538 456 l 618 456 l 618 375 m 618 693 l 538 693 l 538 769 l 618 769 l 618 693 m 618 535 l 538 535 l 538 611 l 618 611 l 618 535 m 1013 217 l 1013 300 l 1090 300 l 1090 375 l 1013 375 l 1013 456 l 1090 456 l 1090 535 l 1013 535 l 1013 611 l 1090 611 l 1090 693 l 1013 693 l 1013 769 l 1090 769 l 1090 851 l 1013 851 l 1013 931 l 931 931 l 931 851 l 1013 851 l 1013 769 l 931 769 l 931 693 l 1013 693 l 1013 611 l 931 611 l 931 535 l 1013 535 l 1013 456 l 931 456 l 931 375 l 1013 375 l 1013 300 l 931 300 l 931 217 l 1013 217 l 1013 138 l 1090 138 l 1090 217 l 1013 217 m 618 217 l 538 217 l 538 300 l 618 300 l 618 217 m 854 456 l 772 456 l 772 535 l 854 535 l 854 611 l 772 611 l 772 693 l 854 693 l 854 769 l 772 769 l 772 851 l 854 851 l 854 931 l 772 931 l 772 851 l 697 851 l 697 769 l 772 769 l 772 693 l 697 693 l 697 611 l 772 611 l 772 535 l 697 535 l 697 456 l 772 456 l 772 375 l 697 375 l 697 300 l 772 300 l 772 217 l 697 217 l 697 138 l 772 138 l 772 217 l 854 217 l 854 300 l 772 300 l 772 375 l 854 375 l 854 456 m 379 693 l 379 611 l 460 611 l 460 693 l 379 693 m 379 851 l 379 769 l 460 769 l 460 851 l 379 851 m 300 300 l 300 217 l 378 217 l 378 300 l 300 300 m 379 217 l 379 138 l 460 138 l 460 217 l 379 217 m 379 535 l 379 456 l 460 456 l 460 535 l 379 535 m 300 456 l 300 375 l 378 375 l 378 456 l 300 456 m 300 931 l 300 851 l 378 851 l 378 931 l 300 931 m 379 375 l 379 300 l 460 300 l 460 375 l 379 375 m 856 851 l 856 769 l 929 769 l 929 851 l 856 851 m 856 693 l 856 611 l 929 611 l 929 693 l 856 693 m 300 769 l 300 693 l 378 693 l 378 769 l 300 769 m 300 611 l 300 535 l 378 535 l 378 611 l 300 611 m 856 535 l 856 456 l 929 456 l 929 535 l 856 535 m 856 217 l 856 138 l 929 138 l 929 217 l 856 217 m 856 375 l 856 300 l 929 300 l 929 375 l 856 375 z "},"▤":{"ha":1389,"x_min":171,"x_max":1218,"o":"m 171 8 l 171 1057 l 1218 1057 l 1218 8 l 171 8 m 1072 689 l 317 689 l 317 599 l 1072 599 l 1072 689 m 1072 911 l 317 911 l 317 821 l 1072 821 l 1072 911 m 1072 467 l 317 467 l 317 376 l 1072 376 l 1072 467 m 317 244 l 317 154 l 1072 154 l 1072 244 l 317 244 z "},"▥":{"ha":1389,"x_min":171,"x_max":1218,"o":"m 171 1057 l 1218 1057 l 1218 8 l 171 8 l 171 1057 m 629 911 l 539 911 l 539 154 l 629 154 l 629 911 m 851 911 l 761 911 l 761 154 l 851 154 l 851 911 m 407 911 l 317 911 l 317 154 l 407 154 l 407 911 m 1072 154 l 1072 911 l 983 911 l 983 154 l 1072 154 z "},"▨":{"ha":1389,"x_min":171,"x_max":1218,"o":"m 1218 8 l 171 8 l 171 1057 l 1218 1057 l 1218 8 m 1018 139 l 1088 139 l 1088 210 l 1018 139 m 699 139 l 857 139 l 1088 369 l 1088 528 l 699 139 m 378 139 l 540 139 l 1088 686 l 1088 847 l 378 139 m 300 379 l 300 219 l 1010 928 l 847 928 l 300 379 m 300 697 l 300 538 l 689 928 l 528 928 l 300 697 m 300 857 l 369 928 l 300 928 l 300 857 z "},"▧":{"ha":1389,"x_min":171,"x_max":1218,"o":"m 171 8 l 171 1057 l 1218 1057 l 1218 8 l 171 8 m 301 210 l 301 139 l 371 139 l 301 210 m 690 139 l 301 528 l 301 369 l 532 139 l 690 139 m 1011 139 l 301 847 l 301 686 l 849 139 l 1011 139 m 1089 379 l 542 928 l 379 928 l 1089 219 l 1089 379 m 1089 697 l 861 928 l 700 928 l 1089 538 l 1089 697 m 1089 928 l 1019 928 l 1089 857 l 1089 928 z "},"▦":{"ha":1389,"x_min":171,"x_max":1219,"o":"m 1219 10 l 1218 10 l 1218 8 l 171 8 l 171 1057 l 1219 1057 l 1219 10 m 413 250 l 301 250 l 301 140 l 413 140 l 413 250 m 413 475 l 301 475 l 301 364 l 413 364 l 413 475 m 413 701 l 301 701 l 301 590 l 413 590 l 413 701 m 413 928 l 301 928 l 301 815 l 413 815 l 413 928 m 638 250 l 526 250 l 526 140 l 638 140 l 638 250 m 638 475 l 526 475 l 526 364 l 638 364 l 638 475 m 638 701 l 526 701 l 526 590 l 638 590 l 638 701 m 638 928 l 526 928 l 526 815 l 638 815 l 638 928 m 864 250 l 753 250 l 753 140 l 864 140 l 864 250 m 864 475 l 753 475 l 753 364 l 864 364 l 864 475 m 864 701 l 753 701 l 753 590 l 864 590 l 864 701 m 864 928 l 753 928 l 753 815 l 864 815 l 864 928 m 1089 250 l 978 250 l 978 140 l 1089 140 l 1089 250 m 1089 475 l 978 475 l 978 364 l 1089 364 l 1089 475 m 1089 701 l 978 701 l 978 590 l 1089 590 l 1089 701 m 1089 928 l 978 928 l 978 815 l 1089 815 l 1089 928 z "},"▩":{"ha":1389,"x_min":171,"x_max":1218,"o":"m 171 8 l 171 1057 l 1218 1057 l 1218 8 l 171 8 m 301 199 l 331 228 l 301 256 l 301 199 m 388 479 l 301 393 l 301 367 l 386 283 l 485 381 l 388 479 m 301 506 l 331 535 l 301 564 l 301 506 m 386 786 l 301 703 l 301 675 l 388 592 l 485 689 l 386 786 m 301 814 l 331 843 l 301 871 l 301 814 m 354 138 l 418 138 l 388 171 l 354 138 m 357 929 l 388 900 l 417 929 l 357 929 m 639 228 l 540 324 l 443 226 l 531 138 l 550 138 l 639 228 m 540 633 l 443 535 l 540 438 l 638 535 l 540 633 m 553 929 l 528 929 l 443 843 l 540 744 l 639 843 l 553 929 m 694 478 l 597 381 l 694 283 l 793 381 l 694 478 m 694 786 l 597 689 l 694 592 l 793 689 l 694 786 m 661 138 l 728 138 l 694 171 l 661 138 m 664 929 l 694 899 l 725 929 l 664 929 m 946 226 l 849 324 l 751 228 l 839 138 l 858 138 l 946 226 m 850 633 l 751 535 l 850 438 l 946 535 l 850 633 m 861 929 l 838 929 l 751 843 l 849 744 l 946 843 l 861 929 m 1089 392 l 1003 479 l 906 381 l 1003 283 l 1089 368 l 1089 392 m 1089 701 l 1003 786 l 906 689 l 1003 592 l 1089 676 l 1089 701 m 971 138 l 1035 138 l 1003 171 l 971 138 m 972 929 l 1003 900 l 1032 929 l 972 929 m 1058 535 l 1089 504 l 1089 565 l 1058 535 m 1060 228 l 1089 197 l 1089 256 l 1060 228 m 1060 843 l 1089 813 l 1089 872 l 1060 843 z "},"♨":{"ha":1389,"x_min":79,"x_max":1311,"o":"m 694 -24 q 425 2 564 -24 q 183 99 286 28 q 79 297 79 171 q 128 431 79 372 q 248 528 176 490 q 392 585 319 567 l 408 529 q 283 442 338 500 q 228 329 228 385 q 360 198 228 229 q 681 167 493 167 q 890 181 778 167 q 1087 236 1001 196 q 1172 347 1172 276 q 1130 444 1172 399 q 1035 514 1088 490 l 1061 571 q 1240 478 1168 539 q 1311 318 1311 417 q 1207 106 1311 182 q 964 3 1103 31 q 694 -24 825 -24 m 400 886 q 412 952 400 919 q 444 1025 424 985 q 493 1165 479 1092 l 544 1165 q 558 1082 558 1125 q 547 988 558 1051 q 539 942 546 978 q 532 876 532 906 q 542 810 532 846 q 553 769 551 775 q 564 733 563 742 q 588 656 581 686 q 594 585 594 625 q 583 512 594 546 q 556 447 571 478 q 535 404 540 415 q 521 377 528 393 q 508 350 514 361 q 494 315 504 338 q 481 267 485 292 l 440 267 q 413 326 421 304 q 406 372 404 347 q 428 474 411 426 q 446 597 446 538 q 441 656 446 631 q 424 731 436 682 q 406 813 411 782 q 400 886 400 843 m 593 878 q 606 960 593 922 q 646 1051 619 999 q 694 1228 689 1138 l 746 1225 q 782 1100 782 1158 q 764 988 782 1049 q 747 886 747 917 q 753 837 747 860 q 771 781 758 814 q 777 763 774 772 q 785 742 781 754 q 808 667 801 693 q 815 607 815 642 q 792 489 815 544 q 722 358 768 433 q 693 308 703 328 q 675 256 683 288 l 633 256 q 619 299 629 269 q 610 353 610 329 q 622 419 610 382 q 636 467 633 456 q 655 537 649 507 q 661 597 661 567 q 656 647 661 625 q 641 693 650 669 q 628 728 632 717 q 618 754 624 744 q 599 819 606 793 q 593 878 593 844 m 807 886 q 818 949 807 918 q 850 1021 829 979 q 906 1164 890 1085 l 953 1164 q 974 1069 974 1125 q 960 985 974 1022 q 947 875 947 949 q 954 813 947 842 q 976 739 961 783 q 990 688 983 707 q 1004 635 1000 657 q 1008 585 1008 613 q 992 500 1008 540 q 946 410 976 460 q 913 350 922 374 q 901 319 904 325 q 886 267 890 285 l 847 267 q 831 311 836 292 q 826 356 826 331 q 842 476 826 400 q 864 607 864 563 q 846 699 864 644 q 831 757 835 735 q 813 825 818 800 q 807 886 807 850 z "},"☏":{"ha":1389,"x_min":47,"x_max":1342,"o":"m 208 83 q 164 106 178 83 q 153 163 150 129 q 199 397 164 300 q 311 569 233 494 q 410 692 383 638 q 436 829 436 746 l 436 854 q 433 896 436 881 q 403 882 413 892 q 393 854 393 872 q 401 813 393 840 q 413 751 413 774 q 394 702 413 722 q 332 661 375 682 q 231 626 292 643 q 133 610 171 610 q 72 640 96 610 q 47 717 47 669 q 239 1011 47 907 q 431 1076 321 1056 q 694 1099 540 1096 q 958 1076 849 1096 q 1150 1011 1068 1056 q 1342 717 1342 907 q 1317 640 1342 669 q 1256 610 1293 610 q 1158 626 1218 610 q 1057 661 1097 643 q 995 702 1014 682 q 976 751 976 722 q 988 813 976 774 q 996 854 996 840 q 986 882 996 872 q 956 896 976 892 q 953 856 953 875 q 953 829 953 836 q 979 692 953 746 q 1078 569 1006 638 q 1190 397 1156 494 q 1236 163 1225 300 q 1225 106 1239 129 q 1181 83 1211 83 l 208 83 m 1129 178 q 1143 193 1146 178 q 1123 309 1138 249 q 1094 401 1108 369 q 1007 524 1069 460 q 900 671 929 604 q 871 814 871 738 q 874 900 871 856 q 875 931 875 914 q 921 971 875 972 q 1036 930 988 968 q 1085 843 1085 892 q 1074 803 1085 826 q 1061 774 1064 781 l 1060 767 q 1076 744 1060 754 q 1157 714 1114 726 q 1235 701 1200 701 q 1252 710 1247 701 q 1257 740 1257 719 q 1206 867 1257 806 q 1069 961 1156 928 q 694 1021 918 1021 q 319 961 471 1021 q 183 867 233 928 q 132 740 132 806 q 137 710 132 719 q 154 701 142 701 q 232 714 189 701 q 313 744 275 726 q 327 758 324 750 q 328 774 331 767 q 315 803 325 781 q 304 843 304 826 q 353 930 304 892 q 468 971 401 968 q 514 931 514 972 q 515 900 514 914 q 518 814 518 856 q 489 671 518 738 q 382 524 460 604 q 294 401 319 460 q 266 309 281 369 q 246 193 251 249 l 246 189 q 260 178 246 178 l 1129 178 m 694 696 q 820 665 764 696 q 909 581 876 635 q 942 458 942 528 q 909 335 942 389 q 820 251 876 282 q 694 221 764 221 q 569 251 625 221 q 480 335 513 282 q 447 458 447 389 q 480 581 447 528 q 569 665 513 635 q 694 696 625 696 m 694 308 q 805 350 760 308 q 850 458 850 392 q 805 567 850 525 q 694 608 760 608 q 584 567 629 608 q 539 458 539 525 q 584 350 539 392 q 694 308 629 308 m 632 763 q 549 839 549 763 l 549 963 q 694 951 614 951 q 840 963 775 951 l 840 839 q 757 763 840 763 l 632 763 m 751 832 q 771 854 771 832 l 771 890 q 694 888 726 888 q 618 890 663 888 l 618 854 q 638 832 618 832 l 751 832 z "},"☎":{"ha":1389,"x_min":47,"x_max":1342,"o":"m 208 83 q 164 106 178 83 q 153 163 150 129 q 198 388 164 297 q 311 556 232 479 q 408 683 381 622 q 436 829 436 743 l 436 854 q 433 896 436 881 q 403 882 413 892 q 393 854 393 872 q 401 813 393 840 q 413 751 413 774 q 394 702 413 722 q 332 661 375 682 q 231 626 292 643 q 133 610 171 610 q 72 640 96 610 q 47 717 47 669 q 239 1011 47 907 q 431 1076 321 1056 q 694 1099 540 1096 q 958 1076 849 1096 q 1150 1011 1068 1056 q 1342 717 1342 907 q 1317 640 1342 669 q 1256 610 1293 610 q 1158 626 1218 610 q 1057 661 1097 643 q 995 702 1014 682 q 976 751 976 722 q 988 813 976 774 q 996 854 996 840 q 986 882 996 872 q 956 896 976 892 q 953 856 953 875 q 953 829 953 836 q 981 683 953 743 q 1078 556 1008 622 q 1191 388 1157 479 q 1236 163 1225 297 q 1225 106 1239 129 q 1181 83 1211 83 l 208 83 m 694 910 q 563 924 628 910 l 563 828 q 626 778 563 778 l 763 778 q 826 828 826 778 l 826 924 q 694 910 761 910 m 694 229 q 819 260 765 229 q 902 342 872 290 q 932 454 932 393 q 902 567 932 515 q 819 649 872 618 q 694 679 765 679 q 570 649 624 679 q 487 567 517 618 q 457 454 457 515 q 487 342 457 393 q 570 260 517 290 q 694 229 624 229 z "},"☜":{"ha":1389,"x_min":14,"x_max":1333,"o":"m 1086 265 q 1199 299 1163 265 q 1236 390 1236 333 l 1236 650 l 1040 808 l 721 808 q 635 782 663 808 q 608 715 608 756 l 608 654 l 728 654 l 728 746 l 817 746 l 817 654 l 846 654 q 914 628 888 654 q 940 564 940 601 l 940 508 l 1094 461 l 1094 378 l 940 428 l 940 265 l 1086 265 m 857 522 l 857 550 q 822 582 857 582 l 553 582 l 553 522 l 857 522 m 857 393 l 857 453 l 553 453 l 553 393 l 857 393 m 822 265 q 857 297 857 265 l 857 324 l 564 324 l 619 265 l 822 265 m 156 742 q 111 707 111 742 l 111 689 q 156 656 111 656 l 519 656 l 519 742 l 156 742 m 157 564 q 14 689 14 564 l 14 708 q 157 833 14 833 l 551 833 q 614 883 576 867 q 714 900 651 900 l 1086 900 l 1333 699 l 1333 390 q 1273 232 1333 290 q 1086 174 1213 174 l 583 174 l 461 306 l 461 564 l 157 564 z "},"☞":{"ha":1389,"x_min":42,"x_max":1361,"o":"m 281 378 l 281 461 l 435 508 l 435 564 q 461 628 435 601 q 529 654 488 654 l 558 654 l 558 746 l 647 746 l 647 654 l 767 654 l 767 715 q 740 782 767 756 q 654 808 713 808 l 335 808 l 139 650 l 139 390 q 176 299 139 333 q 289 265 213 265 l 435 265 l 435 428 l 281 378 m 553 582 q 518 550 518 582 l 518 522 l 822 522 l 822 582 l 553 582 m 822 393 l 822 453 l 518 453 l 518 393 l 822 393 m 518 324 l 518 297 q 553 265 518 265 l 756 265 l 811 324 l 518 324 m 1219 656 q 1264 689 1264 656 l 1264 707 q 1219 742 1264 742 l 856 742 l 856 656 l 1219 656 m 792 174 l 289 174 q 102 232 163 174 q 42 390 42 290 l 42 699 l 289 900 l 661 900 q 761 883 724 900 q 824 833 799 867 l 1218 833 q 1361 708 1361 833 l 1361 689 q 1218 564 1361 564 l 914 564 l 914 306 l 792 174 z "},"¶":{"ha":1042,"x_min":110,"x_max":888,"o":"m 353 479 q 174 542 238 479 q 110 717 110 604 l 110 893 q 174 1068 110 1006 q 353 1131 238 1131 l 888 1131 l 888 -269 l 688 -269 l 688 989 l 604 989 l 604 -269 l 404 -269 l 404 479 l 353 479 z "},"†":{"ha":1111,"x_min":172,"x_max":940,"o":"m 429 -101 l 429 647 l 172 647 l 172 869 l 429 869 l 429 1164 l 682 1164 l 682 869 l 940 869 l 940 647 l 682 647 l 682 -101 l 429 -101 z "},"‡":{"ha":1111,"x_min":172,"x_max":940,"o":"m 429 -101 l 429 331 l 172 331 l 172 553 l 429 553 l 429 689 l 172 689 l 172 911 l 429 911 l 429 1164 l 682 1164 l 682 911 l 940 911 l 940 689 l 682 689 l 682 553 l 940 553 l 940 331 l 682 331 l 682 -101 l 429 -101 z "},"↕":{"ha":1250,"x_min":293,"x_max":957,"o":"m 293 517 l 518 292 l 518 821 l 293 597 l 293 864 l 625 1194 l 957 864 l 957 597 l 732 821 l 732 292 l 957 517 l 957 250 l 625 -81 l 293 250 l 293 517 z "},"↗":{"ha":1250,"x_min":193,"x_max":1047,"o":"m 343 111 l 193 261 l 706 775 l 389 776 l 578 965 l 1046 964 l 1047 496 l 858 307 l 857 624 l 343 111 z "},"↙":{"ha":1250,"x_min":263,"x_max":1117,"o":"m 263 567 l 451 756 l 451 438 l 967 951 l 1117 801 l 603 286 l 921 286 l 732 97 l 264 99 l 263 567 z "},"↖":{"ha":1250,"x_min":221,"x_max":1075,"o":"m 925 97 l 410 610 l 410 293 l 221 482 l 222 950 l 690 951 l 879 763 l 561 761 l 1075 247 l 925 97 z "},"↘":{"ha":1250,"x_min":179,"x_max":1033,"o":"m 375 286 l 692 286 l 179 801 l 329 951 l 843 438 l 844 756 l 1033 567 l 1032 99 l 564 97 l 375 286 z "},"♭":{"ha":1250,"x_min":390,"x_max":953,"o":"m 590 594 l 657 758 l 799 803 q 850 811 826 811 q 926 773 900 811 q 953 661 953 735 l 953 303 q 919 171 953 221 q 813 99 886 121 l 390 -12 l 390 1126 l 590 1126 l 590 594 m 753 594 l 590 547 l 590 238 l 753 285 l 753 594 z "},"♩":{"ha":1250,"x_min":357,"x_max":854,"o":"m 854 296 q 808 119 854 201 q 683 -13 761 36 q 517 -62 604 -62 q 399 -19 442 -62 q 357 88 357 24 q 401 211 357 154 q 517 306 444 268 q 675 360 589 344 q 697 369 692 363 q 703 392 703 376 l 703 1171 l 854 1171 l 854 296 z "},"♪":{"ha":1250,"x_min":140,"x_max":1100,"o":"m 1072 776 q 1100 711 1100 751 q 1075 649 1100 678 l 829 367 l 742 426 l 854 660 l 638 847 l 638 296 q 591 119 638 201 q 466 -13 544 36 q 300 -62 388 -62 q 183 -19 225 -62 q 140 88 140 24 q 184 211 140 154 q 300 306 228 268 q 458 360 372 344 q 481 369 475 363 q 486 392 486 376 l 486 1171 l 643 1171 l 1072 776 z "},"♬":{"ha":1389,"x_min":57,"x_max":1217,"o":"m 1217 367 q 1173 201 1217 278 q 1056 77 1129 124 q 900 31 982 31 q 790 71 829 31 q 750 171 750 111 q 791 287 750 233 q 900 376 832 340 q 1049 426 968 413 q 1069 436 1064 429 q 1075 457 1075 443 l 1075 696 l 524 596 l 524 283 q 480 117 524 194 q 363 -6 436 40 q 207 -53 289 -53 q 97 -12 136 -53 q 57 88 57 28 q 98 203 57 150 q 207 293 139 257 q 356 343 275 329 q 376 353 371 346 q 382 374 382 360 l 383 1086 l 1215 1231 l 1217 367 m 1075 997 l 524 897 l 524 807 l 1075 907 l 1075 997 z "},"㉿":{"ha":1389,"x_min":54,"x_max":1335,"o":"m 58 413 q 54 485 54 435 q 140 810 54 661 q 373 1045 226 958 q 694 1132 519 1132 q 947 1080 828 1132 q 1156 933 1067 1028 q 1292 718 1244 839 l 1135 718 q 953 915 1071 842 q 694 989 836 989 q 462 931 569 989 q 285 771 354 872 q 200 547 215 669 l 351 547 l 351 413 l 58 413 m 250 256 q 430 58 310 132 q 694 -17 550 -17 q 928 41 819 -17 q 1105 199 1036 99 q 1188 422 1174 300 l 976 422 l 976 557 l 1331 557 q 1335 485 1335 524 q 1249 160 1335 308 q 1015 -75 1163 11 q 694 -161 868 -161 q 440 -108 560 -161 q 231 39 321 -56 q 97 256 142 133 l 250 256 m 569 557 l 772 717 l 986 717 l 800 575 l 982 257 l 828 257 l 688 493 l 569 408 l 569 256 l 433 256 l 433 715 l 569 715 l 569 557 z "},"㈜":{"ha":1389,"x_min":69,"x_max":1319,"o":"m 69 965 q 128 1131 69 1075 q 294 1186 188 1186 l 382 1186 l 382 1033 l 236 1033 l 236 61 l 382 61 l 382 -92 l 294 -92 q 128 -36 188 -92 q 69 129 69 19 l 69 965 m 1319 129 q 1260 -36 1319 19 q 1094 -92 1201 -92 l 1007 -92 l 1007 61 l 1153 61 l 1153 1033 l 1007 1033 l 1007 1186 l 1094 1186 q 1260 1131 1201 1186 q 1319 965 1319 1075 l 1319 129 m 963 821 q 953 772 963 789 q 919 739 944 754 q 863 703 893 719 l 1043 644 l 986 508 l 678 608 q 388 507 506 535 l 343 657 q 541 719 436 681 q 715 793 646 757 l 392 793 l 392 944 l 963 944 l 963 821 m 306 335 l 306 489 l 1082 489 l 1082 335 l 783 335 l 783 111 l 604 111 l 604 335 l 306 335 z "},"№":{"ha":1389,"x_min":56,"x_max":1344,"o":"m 468 904 l 294 904 l 294 0 l 56 0 l 56 940 q 107 1079 56 1028 q 246 1131 158 1131 l 707 1131 l 707 0 l 468 0 l 468 904 m 1344 0 l 785 0 l 785 200 l 1344 200 l 1344 0 m 1329 413 q 1294 317 1329 353 q 1200 282 1260 282 l 931 282 q 835 317 869 282 q 800 413 800 353 l 800 769 q 835 865 800 829 q 931 900 869 900 l 1200 900 q 1294 865 1260 900 q 1329 769 1329 829 l 1329 413 m 1133 713 l 996 713 l 996 469 l 1133 469 l 1133 713 z "},"㏇":{"ha":1667,"x_min":81,"x_max":1628,"o":"m 271 0 q 132 51 183 0 q 81 189 81 103 l 81 940 q 132 1079 81 1028 q 271 1131 183 1131 l 783 1131 l 624 904 l 340 904 l 340 226 l 697 226 l 697 0 l 271 0 m 1403 174 q 1356 47 1403 94 q 1228 0 1310 0 l 926 0 q 798 47 844 0 q 751 174 751 94 l 751 715 q 798 842 751 794 q 926 889 844 889 l 1228 889 q 1356 842 1310 889 q 1403 715 1403 794 l 1403 174 m 1167 678 l 988 678 l 988 211 l 1167 211 l 1167 678 m 1628 -10 l 1456 -10 l 1456 197 l 1628 197 l 1628 -10 z "},"™":{"ha":1250,"x_min":28,"x_max":1200,"o":"m 1025 1031 l 954 1031 l 954 629 l 782 629 l 782 1031 l 711 1031 l 711 629 l 536 629 l 536 1088 q 563 1159 536 1132 q 635 1186 589 1186 l 1200 1186 l 1200 629 l 1025 629 l 1025 1031 m 168 629 l 168 1031 l 28 1031 l 28 1186 l 540 1186 l 453 1031 l 356 1031 l 356 629 l 168 629 z "},"㏂":{"ha":1736,"x_min":26,"x_max":1704,"o":"m 1042 0 l 1042 692 l 972 692 l 972 0 l 781 0 l 781 715 q 827 842 781 794 q 956 889 874 889 l 1494 889 l 1494 0 l 1303 0 l 1303 692 l 1233 692 l 1233 0 l 1042 0 m 201 0 q 73 47 119 0 q 26 174 26 94 l 26 715 q 73 842 26 794 q 201 889 119 889 l 522 889 l 522 0 l 321 0 l 321 156 l 240 0 l 201 0 m 229 657 l 229 218 l 321 218 l 321 657 l 229 657 m 738 -10 l 569 -10 l 569 193 l 738 193 l 738 -10 m 1704 -10 l 1536 -10 l 1536 193 l 1704 193 l 1704 -10 z "},"㏘":{"ha":1806,"x_min":28,"x_max":1793,"o":"m 442 889 q 570 842 524 889 q 617 715 617 794 l 617 174 q 570 47 617 94 q 442 0 524 0 l 257 0 l 257 -269 l 28 -269 l 28 889 l 257 889 l 257 733 l 360 889 l 442 889 m 1128 0 l 1128 692 l 1053 692 l 1053 0 l 858 0 l 858 715 q 905 842 858 794 q 1033 889 951 889 l 1578 889 l 1578 0 l 1390 0 l 1390 692 l 1315 692 l 1315 0 l 1128 0 m 388 204 l 388 685 l 257 685 l 257 204 l 388 204 m 1793 -10 l 1625 -10 l 1625 193 l 1793 193 l 1793 -10 m 822 -10 l 654 -10 l 654 193 l 822 193 l 822 -10 z "},"℡":{"ha":1389,"x_min":13,"x_max":1408,"o":"m 189 0 l 189 932 l 13 932 l 13 1131 l 653 1131 l 526 932 l 408 932 l 408 0 l 189 0 m 511 0 l 511 889 l 963 889 l 838 694 l 713 694 l 713 544 l 881 544 l 881 363 l 713 363 l 713 194 l 917 194 l 917 0 l 511 0 m 976 0 l 976 889 l 1179 889 l 1179 182 l 1408 182 l 1283 0 l 976 0 z "},"！":{"ha":1389,"x_min":556,"x_max":833,"o":"m 569 -10 l 569 229 l 819 229 l 819 -10 l 569 -10 m 833 1186 l 806 356 l 583 356 l 556 1186 l 833 1186 z "},"＂":{"ha":1389,"x_min":472,"x_max":917,"o":"m 656 1203 l 656 856 l 472 856 l 472 1203 l 656 1203 m 917 1203 l 917 856 l 733 856 l 733 1203 l 917 1203 z "},"＃":{"ha":1389,"x_min":90,"x_max":1299,"o":"m 90 256 l 203 449 l 342 449 l 406 708 l 215 708 l 328 901 l 453 901 l 510 1131 l 749 1131 l 692 901 l 856 901 l 913 1131 l 1151 1131 l 1094 901 l 1299 901 l 1186 708 l 1047 708 l 983 449 l 1174 449 l 1061 256 l 936 256 l 874 0 l 635 0 l 697 256 l 533 256 l 471 0 l 232 0 l 294 256 l 90 256 m 808 708 l 644 708 l 581 449 l 744 449 l 808 708 z "},"＄":{"ha":1389,"x_min":319,"x_max":1071,"o":"m 788 468 l 319 468 l 319 889 q 365 1013 319 967 q 490 1060 411 1060 l 554 1060 l 554 1214 l 807 1214 l 807 1060 l 1071 1060 l 917 844 l 563 844 l 563 674 l 1031 674 l 1031 240 q 985 117 1031 163 q 860 71 939 71 l 807 71 l 807 -83 l 554 -83 l 554 71 l 319 71 l 319 286 l 788 286 l 788 468 z "},"％":{"ha":1389,"x_min":104,"x_max":1285,"o":"m 589 765 q 549 638 589 683 q 428 592 508 592 l 265 592 q 144 638 185 592 q 104 765 104 683 l 104 957 q 144 1085 104 1039 q 265 1131 185 1131 l 428 1131 q 549 1085 508 1131 q 589 957 589 1039 l 589 765 m 292 946 l 292 776 l 401 776 l 401 946 l 292 946 m 800 365 q 840 493 800 447 q 961 539 881 539 l 1124 539 q 1244 493 1204 539 q 1285 365 1285 447 l 1285 174 q 1244 46 1285 92 q 1124 0 1204 0 l 961 0 q 840 46 881 0 q 800 174 800 92 l 800 365 m 1097 185 l 1097 354 l 988 354 l 988 185 l 1097 185 m 843 1131 l 1063 1131 l 546 0 l 326 0 l 843 1131 z "},"＆":{"ha":1389,"x_min":239,"x_max":1151,"o":"m 1151 -28 l 888 -28 l 844 111 l 754 -28 l 467 -28 q 299 35 358 -28 q 239 200 239 99 l 239 443 q 262 549 239 508 q 333 613 285 590 q 285 667 300 633 q 269 754 269 700 l 269 958 q 329 1123 269 1060 q 497 1186 389 1186 l 796 1186 q 946 1131 894 1186 q 997 986 997 1076 l 997 818 l 747 818 l 747 961 l 522 961 l 522 701 l 1151 701 l 1151 497 l 988 497 l 1151 -28 m 726 497 l 492 497 l 492 197 l 818 197 l 726 497 z "},"＇":{"ha":1389,"x_min":597,"x_max":792,"o":"m 792 1203 l 792 856 l 597 856 l 597 1203 l 792 1203 z "},"（":{"ha":1389,"x_min":903,"x_max":1285,"o":"m 1125 33 l 1285 33 l 1285 -167 l 1156 -167 q 973 -100 1043 -167 q 903 82 903 -33 l 903 1050 q 973 1231 903 1165 q 1156 1297 1043 1297 l 1285 1297 l 1285 1096 l 1125 1096 l 1125 33 z "},"）":{"ha":1389,"x_min":104,"x_max":486,"o":"m 233 1297 q 416 1231 346 1297 q 486 1050 486 1165 l 486 82 q 416 -100 486 -33 q 233 -167 346 -167 l 104 -167 l 104 33 l 264 33 l 264 1096 l 104 1096 l 104 1297 l 233 1297 z "},"＊":{"ha":1389,"x_min":339,"x_max":1051,"o":"m 1051 1047 l 965 988 l 821 958 l 1040 863 l 954 692 l 860 736 l 764 846 l 790 608 l 599 597 l 590 701 l 638 842 l 444 700 l 339 858 l 424 918 l 569 946 l 350 1043 l 436 1214 l 529 1169 l 626 1057 l 600 1297 l 792 1308 l 800 1204 l 753 1064 l 946 1206 l 1051 1047 z "},"＋":{"ha":1389,"x_min":368,"x_max":1021,"o":"m 368 465 l 368 685 l 581 685 l 581 915 l 808 915 l 808 685 l 1021 685 l 1021 465 l 808 465 l 808 235 l 581 235 l 581 465 l 368 465 z "},"，":{"ha":1389,"x_min":160,"x_max":410,"o":"m 306 -200 l 160 -200 l 160 257 l 410 257 l 410 60 l 306 -200 z "},"－":{"ha":1389,"x_min":424,"x_max":965,"o":"m 424 692 l 965 692 l 965 458 l 424 458 l 424 692 z "},"．":{"ha":1389,"x_min":139,"x_max":389,"o":"m 139 -10 l 139 257 l 389 257 l 389 -10 l 139 -10 z "},"／":{"ha":1389,"x_min":354,"x_max":1035,"o":"m 354 -56 l 783 1186 l 1035 1186 l 606 -56 l 354 -56 z "},"０":{"ha":1389,"x_min":314,"x_max":1075,"o":"m 314 888 q 378 1065 314 999 q 560 1131 442 1131 l 829 1131 q 1011 1065 947 1131 q 1075 888 1075 999 l 1075 243 q 1011 66 1075 132 q 829 0 947 0 l 560 0 q 378 66 442 0 q 314 243 314 132 l 314 888 m 818 904 l 571 904 l 571 226 l 818 226 l 818 904 z "},"１":{"ha":1389,"x_min":418,"x_max":971,"o":"m 418 226 l 572 226 l 572 904 l 422 904 l 422 1131 l 831 1131 l 831 226 l 971 226 l 971 0 l 418 0 l 418 226 z "},"２":{"ha":1389,"x_min":325,"x_max":1064,"o":"m 814 1131 q 982 1067 922 1131 q 1042 903 1042 1004 l 1042 724 q 1026 623 1042 665 q 971 538 1011 581 l 683 226 l 1064 226 l 1064 0 l 338 0 l 338 189 l 767 678 q 789 765 789 706 l 789 904 l 575 904 l 575 749 l 325 749 l 325 903 q 385 1067 325 1003 q 554 1131 446 1131 l 814 1131 z "},"３":{"ha":1389,"x_min":324,"x_max":1067,"o":"m 1054 740 q 1037 649 1054 683 q 981 594 1019 615 q 1046 531 1025 571 q 1067 429 1067 490 l 1067 228 q 1007 63 1067 126 q 839 0 947 0 l 553 0 q 384 64 444 0 q 324 228 324 128 l 324 356 l 574 356 l 574 226 l 814 226 l 814 482 l 561 482 l 561 693 l 801 693 l 801 904 l 574 904 l 574 807 l 324 807 l 324 903 q 384 1067 324 1003 q 553 1131 444 1131 l 826 1131 q 994 1067 935 1131 q 1054 903 1054 1004 l 1054 740 z "},"４":{"ha":1389,"x_min":240,"x_max":1149,"o":"m 244 190 l 240 215 l 489 1131 l 756 1131 l 569 417 l 721 417 l 721 768 l 975 768 l 975 417 l 1149 417 l 1050 190 l 972 190 l 972 0 l 721 0 l 721 190 l 244 190 z "},"５":{"ha":1389,"x_min":324,"x_max":1067,"o":"m 594 904 l 594 735 l 839 735 q 1007 672 947 735 q 1067 507 1067 608 l 1067 228 q 1007 63 1067 126 q 839 0 947 0 l 553 0 q 384 64 444 0 q 324 228 324 128 l 324 356 l 574 356 l 574 226 l 814 226 l 814 515 l 342 515 l 342 1131 l 1058 1131 l 964 904 l 594 904 z "},"６":{"ha":1389,"x_min":319,"x_max":1069,"o":"m 857 699 q 1017 644 965 699 q 1069 488 1069 589 l 1069 228 q 1010 63 1069 126 q 842 0 950 0 l 549 0 q 380 64 440 0 q 319 228 319 128 l 319 903 q 379 1067 319 1004 q 547 1131 439 1131 l 831 1131 q 1000 1068 940 1131 q 1060 906 1060 1006 l 1060 786 l 810 786 l 810 904 l 572 904 l 572 514 l 651 699 l 857 699 m 572 479 l 572 226 l 817 226 l 817 479 l 572 479 z "},"７":{"ha":1389,"x_min":319,"x_max":1069,"o":"m 319 899 l 319 1131 l 1069 1131 l 1069 978 l 689 0 l 392 0 l 750 899 l 319 899 z "},"８":{"ha":1389,"x_min":313,"x_max":1076,"o":"m 836 1131 q 1004 1067 944 1131 q 1064 903 1064 1004 l 1064 740 q 1047 649 1064 683 q 990 594 1029 615 q 1056 531 1035 571 q 1076 429 1076 490 l 1076 228 q 1017 63 1076 126 q 849 0 957 0 l 540 0 q 372 63 432 0 q 313 228 313 126 l 313 429 q 333 531 313 490 q 399 594 354 571 q 342 649 360 615 q 325 740 325 683 l 325 903 q 385 1067 325 1004 q 553 1131 444 1131 l 836 1131 m 565 482 l 565 226 l 824 226 l 824 482 l 565 482 m 811 904 l 578 904 l 578 693 l 811 693 l 811 904 z "},"９":{"ha":1389,"x_min":319,"x_max":1069,"o":"m 532 417 q 319 625 319 417 l 319 903 q 379 1067 319 1004 q 547 1131 439 1131 l 840 1131 q 1009 1067 949 1131 q 1069 903 1069 1003 l 1069 228 q 1010 63 1069 126 q 842 0 950 0 l 565 0 q 396 63 456 0 q 336 225 336 125 l 336 344 l 586 344 l 586 226 l 817 226 l 817 600 l 738 417 l 532 417 m 572 636 l 817 636 l 817 904 l 572 904 l 572 636 z "},"：":{"ha":1389,"x_min":569,"x_max":819,"o":"m 569 163 l 569 415 l 819 415 l 819 163 l 569 163 m 569 715 l 569 968 l 819 968 l 819 715 l 569 715 z "},"；":{"ha":1389,"x_min":569,"x_max":819,"o":"m 569 715 l 569 968 l 819 968 l 819 715 l 569 715 m 715 -28 l 569 -28 l 569 415 l 819 415 l 819 218 l 715 -28 z "},"＜":{"ha":1389,"x_min":681,"x_max":1306,"o":"m 1004 964 l 1306 964 l 976 579 l 1306 194 l 1004 194 l 681 579 l 1004 964 z "},"＝":{"ha":1389,"x_min":424,"x_max":965,"o":"m 424 844 l 965 844 l 965 646 l 424 646 l 424 844 m 424 504 l 965 504 l 965 306 l 424 306 l 424 504 z "},"＞":{"ha":1389,"x_min":83,"x_max":708,"o":"m 385 194 l 83 194 l 413 579 l 83 964 l 385 964 l 708 579 l 385 194 z "},"？":{"ha":1389,"x_min":324,"x_max":1067,"o":"m 532 -10 l 532 229 l 782 229 l 782 -10 l 532 -10 m 814 707 l 814 961 l 574 961 l 574 849 l 324 849 l 324 958 q 384 1122 324 1058 q 553 1186 444 1186 l 839 1186 q 1007 1123 947 1186 q 1067 958 1067 1060 l 1067 718 q 1014 560 1067 617 q 853 504 961 504 l 772 504 l 767 331 l 542 331 l 535 707 l 814 707 z "},"＠":{"ha":1389,"x_min":201,"x_max":1188,"o":"m 1025 -28 l 400 -28 q 255 26 308 -28 q 201 169 201 79 l 201 989 q 255 1133 201 1079 q 400 1186 308 1186 l 989 1186 q 1134 1133 1081 1186 q 1188 989 1188 1079 l 1188 261 l 954 261 l 954 406 l 854 261 l 722 261 q 569 413 569 261 l 569 729 q 722 881 569 881 l 954 881 l 954 969 l 438 969 l 438 189 l 1188 189 l 1025 -28 m 954 689 l 786 689 l 786 453 l 954 453 l 954 689 z "},"Ａ":{"ha":1389,"x_min":222,"x_max":1167,"o":"m 543 313 l 486 0 l 222 0 l 410 975 q 581 1131 440 1131 l 947 1131 l 1167 0 l 901 0 l 844 313 l 543 313 m 739 900 l 650 900 l 585 540 l 804 540 l 739 900 z "},"Ｂ":{"ha":1389,"x_min":211,"x_max":1099,"o":"m 846 226 l 846 465 l 558 465 l 558 226 l 846 226 m 828 904 l 558 904 l 558 676 l 828 676 l 828 904 m 868 1131 q 1026 1079 971 1131 q 1081 932 1081 1028 l 1081 714 q 1000 575 1081 629 q 1075 519 1051 556 q 1099 425 1099 483 l 1099 179 q 1050 48 1099 96 q 915 0 1001 0 l 306 0 l 306 756 l 433 904 l 211 904 l 375 1131 l 868 1131 z "},"Ｃ":{"ha":1389,"x_min":340,"x_max":1100,"o":"m 531 0 q 392 51 443 0 q 340 189 340 103 l 340 940 q 392 1079 340 1028 q 531 1131 443 1131 l 1100 1131 l 932 904 l 600 904 l 600 226 l 1040 226 l 1040 0 l 531 0 z "},"Ｄ":{"ha":1389,"x_min":242,"x_max":1149,"o":"m 464 904 l 242 904 l 407 1131 l 957 1131 q 1097 1079 1046 1131 q 1149 940 1149 1028 l 1149 189 q 1097 51 1149 101 q 957 0 1046 0 l 338 0 l 338 758 l 464 904 m 896 226 l 896 904 l 590 904 l 590 226 l 896 226 z "},"Ｅ":{"ha":1389,"x_min":347,"x_max":1114,"o":"m 347 1131 l 1114 1131 l 946 904 l 603 904 l 603 693 l 969 693 l 969 482 l 603 482 l 603 226 l 1051 226 l 1051 0 l 347 0 l 347 1131 z "},"Ｆ":{"ha":1389,"x_min":349,"x_max":1124,"o":"m 1124 1131 l 956 904 l 606 904 l 606 683 l 992 683 l 992 456 l 606 456 l 606 0 l 349 0 l 349 1131 l 1124 1131 z "},"Ｇ":{"ha":1389,"x_min":286,"x_max":1104,"o":"m 476 0 q 338 51 389 0 q 286 189 286 103 l 286 940 q 338 1079 286 1028 q 476 1131 389 1131 l 1104 1131 l 936 904 l 539 904 l 539 226 l 838 226 l 838 471 l 621 471 l 765 668 l 1090 668 l 1090 0 l 476 0 z "},"Ｈ":{"ha":1389,"x_min":285,"x_max":1104,"o":"m 538 1131 l 538 692 l 850 692 l 850 1131 l 1104 1131 l 1104 0 l 850 0 l 850 464 l 538 464 l 538 0 l 285 0 l 285 1131 l 538 1131 z "},"Ｉ":{"ha":1389,"x_min":564,"x_max":825,"o":"m 825 1131 l 825 0 l 564 0 l 564 1131 l 825 1131 z "},"Ｊ":{"ha":1389,"x_min":319,"x_max":932,"o":"m 932 1131 l 932 206 q 874 57 932 114 q 724 0 817 0 l 319 0 l 486 229 l 675 229 l 675 1131 l 932 1131 z "},"Ｋ":{"ha":1389,"x_min":269,"x_max":1119,"o":"m 522 1131 l 522 689 l 617 689 l 822 1131 l 1097 1131 l 836 579 l 1119 0 l 832 0 l 619 461 l 522 461 l 522 0 l 269 0 l 269 1131 l 522 1131 z "},"Ｌ":{"ha":1389,"x_min":356,"x_max":1090,"o":"m 356 1131 l 614 1131 l 614 229 l 1090 229 l 921 0 l 356 0 l 356 1131 z "},"Ｍ":{"ha":1389,"x_min":143,"x_max":1247,"o":"m 393 904 l 393 0 l 143 0 l 143 940 q 194 1079 143 1028 q 333 1131 246 1131 l 1247 1131 l 1247 0 l 1000 0 l 1000 904 l 819 904 l 819 0 l 574 0 l 574 904 l 393 904 z "},"Ｎ":{"ha":1389,"x_min":286,"x_max":1104,"o":"m 539 904 l 539 0 l 286 0 l 286 940 q 338 1079 286 1028 q 476 1131 389 1131 l 1104 1131 l 1104 0 l 851 0 l 851 904 l 539 904 z "},"Ｏ":{"ha":1389,"x_min":281,"x_max":1108,"o":"m 471 0 q 332 51 383 0 q 281 189 281 103 l 281 940 q 332 1079 281 1028 q 471 1131 383 1131 l 917 1131 q 1057 1079 1006 1131 q 1108 940 1108 1028 l 1108 189 q 1057 51 1108 101 q 917 0 1006 0 l 471 0 m 851 226 l 851 904 l 538 904 l 538 226 l 851 226 z "},"Ｐ":{"ha":1389,"x_min":225,"x_max":1100,"o":"m 576 904 l 576 547 l 843 547 l 843 904 l 576 904 m 319 0 l 319 757 l 447 904 l 225 904 l 390 1131 l 917 1131 q 1052 1083 1004 1131 q 1100 951 1100 1035 l 1100 500 q 1052 369 1100 417 q 917 321 1004 321 l 576 321 l 576 0 l 319 0 z "},"Ｑ":{"ha":1389,"x_min":279,"x_max":1111,"o":"m 469 0 q 331 51 382 0 q 279 189 279 103 l 279 940 q 331 1079 279 1028 q 469 1131 382 1131 l 903 1131 q 1043 1079 992 1131 q 1094 940 1094 1028 l 1094 224 q 1069 126 1094 169 q 1003 57 1044 83 l 1111 -157 l 844 -157 l 765 0 l 469 0 m 838 904 l 536 904 l 536 226 l 838 226 l 838 904 z "},"Ｒ":{"ha":1389,"x_min":221,"x_max":1169,"o":"m 572 389 l 572 0 l 315 0 l 315 756 l 443 904 l 221 904 l 385 1131 l 888 1131 q 1045 1079 990 1131 q 1100 932 1100 1028 l 1100 611 q 1064 493 1100 540 q 957 426 1028 446 l 1169 0 l 890 0 l 707 389 l 572 389 m 840 904 l 572 904 l 572 615 l 840 615 l 840 904 z "},"Ｓ":{"ha":1389,"x_min":326,"x_max":1108,"o":"m 804 463 l 329 463 l 329 940 q 381 1079 329 1028 q 519 1131 432 1131 l 1108 1131 l 940 904 l 586 904 l 586 679 l 1061 679 l 1061 189 q 1010 51 1061 103 q 871 0 960 0 l 326 0 l 326 226 l 804 226 l 804 463 z "},"Ｔ":{"ha":1389,"x_min":268,"x_max":1178,"o":"m 268 899 l 268 1131 l 1178 1131 l 1010 899 l 810 899 l 810 0 l 547 0 l 547 899 l 268 899 z "},"Ｕ":{"ha":1389,"x_min":286,"x_max":1104,"o":"m 476 0 q 338 51 389 0 q 286 190 286 103 l 286 1131 l 539 1131 l 539 226 l 851 226 l 851 1131 l 1104 1131 l 1104 0 l 476 0 z "},"Ｖ":{"ha":1389,"x_min":217,"x_max":1174,"o":"m 590 0 q 419 156 453 0 l 217 1131 l 485 1131 l 661 226 l 729 226 l 904 1131 l 1174 1131 l 939 0 l 590 0 z "},"Ｗ":{"ha":1389,"x_min":88,"x_max":1301,"o":"m 808 0 q 699 35 740 0 q 644 136 658 71 l 554 0 l 399 0 q 229 147 250 0 l 88 1131 l 351 1131 l 472 226 l 635 226 l 539 1131 l 790 1131 l 869 226 l 946 226 l 1039 1131 l 1301 1131 l 1153 0 l 808 0 z "},"Ｘ":{"ha":1389,"x_min":250,"x_max":1139,"o":"m 1139 0 l 867 0 l 736 451 l 651 451 l 522 0 l 250 0 l 438 588 l 257 1131 l 528 1131 l 654 679 l 735 679 l 861 1131 l 1132 1131 l 950 588 l 1139 0 z "},"Ｙ":{"ha":1389,"x_min":217,"x_max":1172,"o":"m 511 375 q 425 398 454 375 q 382 475 396 421 l 217 1131 l 476 1131 l 593 599 l 796 599 l 913 1131 l 1172 1131 l 1007 475 q 965 398 993 421 q 881 375 938 375 l 826 375 l 826 0 l 565 0 l 565 375 l 511 375 z "},"Ｚ":{"ha":1389,"x_min":307,"x_max":1083,"o":"m 1063 985 q 1050 905 1063 946 q 1015 831 1038 864 l 626 226 l 1083 226 l 1083 0 l 307 0 l 307 196 l 763 904 l 307 904 l 307 1131 l 1063 1131 l 1063 985 z "},"［":{"ha":1389,"x_min":910,"x_max":1285,"o":"m 1132 33 l 1285 33 l 1285 -167 l 910 -167 l 910 1297 l 1285 1297 l 1285 1097 l 1132 1097 l 1132 33 z "},"￦":{"ha":1389,"x_min":0,"x_max":1389,"o":"m 768 26 q 667 57 701 26 q 626 150 633 88 l 535 26 l 411 26 q 309 58 343 26 q 268 156 275 89 l 222 551 l 0 551 l 83 749 l 199 749 l 158 1101 l 404 1101 l 440 749 l 588 749 l 564 1101 l 794 1101 l 810 749 l 954 749 l 985 1101 l 1231 1101 l 1190 749 l 1389 749 l 1306 551 l 1167 551 l 1107 26 l 768 26 m 460 551 l 493 239 l 621 239 l 600 551 l 460 551 m 833 239 l 910 239 l 936 551 l 819 551 l 833 239 z "},"］":{"ha":1389,"x_min":104,"x_max":479,"o":"m 257 1097 l 104 1097 l 104 1297 l 479 1297 l 479 -167 l 104 -167 l 104 33 l 257 33 l 257 1097 z "},"＾":{"ha":1389,"x_min":360,"x_max":1029,"o":"m 1029 856 l 811 856 l 706 1071 l 683 1071 l 578 856 l 360 856 l 581 1242 l 808 1242 l 1029 856 z "},"＿":{"ha":1389,"x_min":106,"x_max":1285,"o":"m 106 0 l 106 233 l 1285 233 l 1285 0 l 106 0 z "},"｀":{"ha":1389,"x_min":554,"x_max":836,"o":"m 763 1203 l 836 856 l 649 856 l 554 1203 l 763 1203 z "},"ａ":{"ha":1389,"x_min":325,"x_max":1064,"o":"m 690 0 l 500 0 q 372 47 418 0 q 325 174 325 94 l 325 715 q 372 842 325 794 q 500 889 418 889 l 1064 889 l 1064 0 l 814 0 l 814 168 l 690 0 m 814 664 l 575 664 l 575 225 l 814 225 l 814 664 z "},"ｂ":{"ha":1389,"x_min":326,"x_max":1064,"o":"m 700 889 l 889 889 q 1017 842 971 889 q 1064 715 1064 794 l 1064 174 q 1017 47 1064 94 q 889 0 971 0 l 326 0 l 326 1186 l 576 1186 l 576 719 l 700 889 m 814 225 l 814 664 l 576 664 l 576 225 l 814 225 z "},"ｃ":{"ha":1389,"x_min":382,"x_max":1051,"o":"m 996 0 l 557 0 q 428 47 475 0 q 382 174 382 94 l 382 715 q 428 842 382 794 q 557 889 475 889 l 1051 889 l 885 664 l 635 664 l 635 225 l 996 225 l 996 0 z "},"ｄ":{"ha":1389,"x_min":299,"x_max":1036,"o":"m 786 0 l 786 168 l 663 0 l 474 0 q 345 47 392 0 q 299 174 299 94 l 299 715 q 345 842 299 794 q 474 889 392 889 l 786 889 l 786 1186 l 1036 1186 l 1036 0 l 786 0 m 786 664 l 549 664 l 549 225 l 786 225 l 786 664 z "},"ｅ":{"ha":1389,"x_min":339,"x_max":1090,"o":"m 514 0 q 385 47 432 0 q 339 174 339 94 l 339 715 q 385 842 339 794 q 514 889 432 889 l 894 889 q 1031 840 985 889 q 1078 703 1078 792 l 1078 482 q 1042 362 1078 401 q 926 322 1007 322 l 589 322 l 589 218 l 1090 218 l 946 0 l 514 0 m 831 671 l 589 671 l 589 522 l 831 522 l 831 671 z "},"ｆ":{"ha":1389,"x_min":344,"x_max":1101,"o":"m 500 1013 q 547 1139 500 1092 q 675 1186 593 1186 l 1101 1186 l 935 967 l 753 967 l 753 856 l 1071 856 l 904 633 l 753 633 l 753 0 l 500 0 l 500 633 l 344 633 l 344 856 l 500 856 l 500 1013 z "},"ｇ":{"ha":1389,"x_min":297,"x_max":1038,"o":"m 547 293 l 788 293 l 788 669 l 547 669 l 547 293 m 472 78 q 344 125 390 78 q 297 251 297 172 l 297 715 q 344 842 297 794 q 472 889 390 889 l 1038 889 l 1038 -54 q 978 -210 1038 -150 q 821 -269 918 -269 l 300 -269 l 444 -47 l 788 -47 l 788 235 l 674 78 l 472 78 z "},"ｈ":{"ha":1389,"x_min":325,"x_max":1064,"o":"m 581 663 l 581 0 l 325 0 l 325 1186 l 581 1186 l 581 889 l 889 889 q 1017 842 971 889 q 1064 715 1064 794 l 1064 0 l 808 0 l 808 663 l 581 663 z "},"ｉ":{"ha":1389,"x_min":568,"x_max":821,"o":"m 568 0 l 568 889 l 821 889 l 821 0 l 568 0 m 568 1186 l 821 1186 l 821 964 l 568 964 l 568 1186 z "},"ｊ":{"ha":1389,"x_min":356,"x_max":868,"o":"m 615 889 l 868 889 l 868 29 q 808 -126 868 -67 q 651 -186 749 -186 l 356 -186 l 500 36 l 615 36 l 615 889 m 615 1186 l 868 1186 l 868 964 l 615 964 l 615 1186 z "},"ｋ":{"ha":1389,"x_min":326,"x_max":1133,"o":"m 576 363 l 576 0 l 326 0 l 326 1186 l 576 1186 l 576 589 l 663 589 l 844 889 l 1118 889 l 861 479 l 1133 0 l 850 0 l 651 363 l 576 363 z "},"ｌ":{"ha":1389,"x_min":540,"x_max":904,"o":"m 715 0 q 587 47 633 0 q 540 174 540 94 l 540 1186 l 793 1186 l 793 225 l 904 225 l 904 0 l 715 0 z "},"ｍ":{"ha":1389,"x_min":175,"x_max":1214,"o":"m 175 715 q 222 842 175 794 q 350 889 268 889 l 1214 889 l 1214 0 l 979 0 l 979 664 l 814 664 l 814 0 l 579 0 l 579 664 l 414 664 l 414 0 l 175 0 l 175 715 z "},"ｎ":{"ha":1389,"x_min":329,"x_max":1061,"o":"m 329 715 q 376 842 329 794 q 504 889 422 889 l 1061 889 l 1061 0 l 811 0 l 811 664 l 579 664 l 579 0 l 329 0 l 329 715 z "},"ｏ":{"ha":1389,"x_min":321,"x_max":1069,"o":"m 1069 174 q 1023 47 1069 94 q 894 0 976 0 l 496 0 q 367 47 414 0 q 321 174 321 94 l 321 715 q 367 842 321 794 q 496 889 414 889 l 894 889 q 1023 842 976 889 q 1069 715 1069 794 l 1069 174 m 571 664 l 571 225 l 819 225 l 819 664 l 571 664 z "},"ｐ":{"ha":1389,"x_min":347,"x_max":1085,"o":"m 597 889 l 597 719 l 721 889 l 910 889 q 1038 842 992 889 q 1085 715 1085 794 l 1085 174 q 1038 47 1085 94 q 910 0 992 0 l 597 0 l 597 -269 l 347 -269 l 347 889 l 597 889 m 835 225 l 835 664 l 597 664 l 597 225 l 835 225 z "},"ｑ":{"ha":1389,"x_min":299,"x_max":1036,"o":"m 663 0 l 474 0 q 345 47 392 0 q 299 174 299 94 l 299 715 q 345 842 299 794 q 474 889 392 889 l 1036 889 l 1036 -269 l 786 -269 l 786 168 l 663 0 m 786 664 l 549 664 l 549 225 l 786 225 l 786 664 z "},"ｒ":{"ha":1389,"x_min":425,"x_max":1033,"o":"m 425 715 q 472 842 425 794 q 600 889 518 889 l 1033 889 l 867 664 l 678 664 l 678 0 l 425 0 l 425 715 z "},"ｓ":{"ha":1389,"x_min":326,"x_max":1063,"o":"m 333 715 q 380 842 333 794 q 508 889 426 889 l 1063 889 l 896 668 l 583 668 l 583 546 l 1006 546 l 1006 174 q 959 47 1006 94 q 831 0 913 0 l 326 0 l 326 221 l 756 221 l 756 346 l 333 346 l 333 715 z "},"ｔ":{"ha":1389,"x_min":364,"x_max":1076,"o":"m 519 1131 l 772 1131 l 772 889 l 1076 889 l 910 667 l 772 667 l 772 225 l 990 225 l 990 0 l 694 0 q 566 47 613 0 q 519 174 519 94 l 519 667 l 364 667 l 364 889 l 519 889 l 519 1131 z "},"ｕ":{"ha":1389,"x_min":329,"x_max":1061,"o":"m 811 225 l 811 889 l 1061 889 l 1061 0 l 504 0 q 376 47 422 0 q 329 174 329 94 l 329 889 l 579 889 l 579 225 l 811 225 z "},"ｖ":{"ha":1389,"x_min":265,"x_max":1124,"o":"m 576 0 q 474 33 508 0 q 424 136 439 67 l 265 889 l 538 889 l 651 226 l 738 226 l 850 889 l 1124 889 l 938 0 l 576 0 z "},"ｗ":{"ha":1389,"x_min":128,"x_max":1261,"o":"m 753 0 q 653 29 683 0 q 615 128 622 58 l 538 0 l 382 0 q 284 29 314 0 q 244 128 254 58 l 128 889 l 386 889 l 472 226 l 606 226 l 543 889 l 793 889 l 844 226 l 907 226 l 1003 889 l 1261 889 l 1107 0 l 753 0 z "},"ｘ":{"ha":1389,"x_min":253,"x_max":1136,"o":"m 1136 0 l 865 0 l 721 332 l 668 332 l 524 0 l 253 0 l 464 453 l 261 889 l 529 889 l 667 558 l 722 558 l 860 889 l 1128 889 l 924 453 l 1136 0 z "},"ｙ":{"ha":1389,"x_min":263,"x_max":1126,"o":"m 585 78 q 481 107 517 78 q 431 203 446 136 l 263 889 l 531 889 l 654 303 l 728 303 l 865 889 l 1126 889 l 810 -269 l 554 -269 l 661 78 l 585 78 z "},"ｚ":{"ha":1389,"x_min":346,"x_max":1043,"o":"m 346 181 l 731 664 l 350 664 l 350 889 l 1028 889 l 1028 729 q 1014 649 1028 682 q 964 571 1000 617 l 682 225 l 1043 225 l 1043 0 l 346 0 l 346 181 z "},"｛":{"ha":1389,"x_min":776,"x_max":1285,"o":"m 874 649 q 906 658 897 649 q 914 692 914 667 l 914 1046 q 977 1220 914 1161 q 1153 1279 1040 1279 l 1285 1279 l 1285 1081 l 1136 1081 l 1136 706 q 1118 610 1136 649 q 1056 547 1100 572 q 1118 484 1100 522 q 1136 389 1136 446 l 1136 14 l 1285 14 l 1285 -185 l 1153 -185 q 977 -125 1040 -185 q 914 50 914 -65 l 914 403 q 906 437 914 428 q 874 446 897 446 l 776 446 l 776 649 l 874 649 z "},"｜":{"ha":1389,"x_min":568,"x_max":821,"o":"m 821 1164 l 821 -101 l 568 -101 l 568 1164 l 821 1164 z "},"｝":{"ha":1389,"x_min":104,"x_max":613,"o":"m 515 464 q 483 455 492 464 q 475 421 475 446 l 475 67 q 412 -108 475 -49 q 236 -167 349 -167 l 104 -167 l 104 32 l 253 32 l 253 407 q 271 502 253 464 q 333 565 289 540 q 271 628 289 590 q 253 724 253 667 l 253 1099 l 104 1099 l 104 1297 l 236 1297 q 412 1238 349 1297 q 475 1063 475 1178 l 475 710 q 483 676 475 685 q 515 667 492 667 l 613 667 l 613 464 l 515 464 z "},"ㄱ":{"ha":1278,"x_min":158,"x_max":1097,"o":"m 158 931 l 924 931 q 1056 889 1015 931 q 1097 754 1097 847 l 1097 300 l 938 136 l 839 136 l 839 706 l 158 706 l 158 931 z "},"ㄲ":{"ha":1278,"x_min":111,"x_max":1142,"o":"m 363 714 l 111 714 l 111 929 l 490 929 q 581 894 550 929 q 611 801 611 860 l 611 285 l 479 136 l 363 136 l 363 714 m 893 714 l 656 714 l 656 929 l 1021 929 q 1111 894 1081 929 q 1142 801 1142 860 l 1142 299 l 1010 150 l 893 150 l 893 714 z "},"ㄳ":{"ha":1278,"x_min":75,"x_max":1225,"o":"m 992 744 q 982 649 992 692 l 1225 289 l 1049 169 l 879 425 q 707 161 786 263 l 568 271 l 568 189 l 332 189 l 332 714 l 75 714 l 75 929 l 447 929 q 538 894 507 929 q 568 801 568 860 l 568 353 q 726 603 671 494 q 758 749 758 665 l 758 933 l 992 933 l 992 744 z "},"ㄴ":{"ha":1278,"x_min":169,"x_max":1160,"o":"m 1032 181 l 290 181 q 200 215 231 181 q 169 308 169 250 l 169 931 l 428 931 l 428 406 l 1160 406 l 1032 181 z "},"ㄵ":{"ha":1278,"x_min":111,"x_max":1239,"o":"m 1124 772 q 1119 722 1124 740 q 1101 681 1115 704 q 1024 553 1063 611 l 1239 303 l 1089 163 l 899 385 q 686 156 796 258 l 579 268 l 536 181 l 224 181 q 111 300 111 181 l 111 925 l 347 925 l 347 397 l 617 397 q 867 715 786 571 l 596 715 l 596 929 l 1124 929 l 1124 772 z "},"ㄶ":{"ha":1278,"x_min":89,"x_max":1211,"o":"m 325 397 l 564 397 l 564 446 q 613 576 564 528 q 753 624 663 624 l 992 624 q 1131 576 1082 624 q 1181 446 1181 528 l 1181 332 q 1131 202 1181 250 q 992 154 1082 154 l 753 154 q 624 193 672 154 q 565 301 575 232 l 506 181 l 201 181 q 89 300 89 181 l 89 925 l 325 925 l 325 397 m 760 979 l 982 979 l 982 858 l 1211 858 l 1211 676 l 533 676 l 533 858 l 760 858 l 760 979 m 972 324 l 972 454 l 772 454 l 772 324 l 972 324 z "},"ㄷ":{"ha":1278,"x_min":154,"x_max":1158,"o":"m 1158 392 l 1033 172 l 275 172 q 185 207 215 172 q 154 300 154 242 l 154 929 l 1110 929 l 1110 707 l 413 707 l 413 392 l 1158 392 z "},"ㄸ":{"ha":1278,"x_min":122,"x_max":1214,"o":"m 632 383 l 632 929 l 1164 929 l 1164 710 l 876 710 l 876 383 l 1214 383 l 1099 167 l 744 167 q 632 286 632 167 l 632 300 l 571 167 l 235 167 q 122 286 122 167 l 122 929 l 590 929 l 590 710 l 367 710 l 367 383 l 632 383 z "},"ㄹ":{"ha":1278,"x_min":171,"x_max":1181,"o":"m 292 142 q 203 176 236 142 q 171 269 171 211 l 171 649 l 854 649 l 854 740 l 172 740 l 172 954 l 1110 954 l 1110 550 q 1085 479 1110 507 q 1015 451 1061 451 l 426 451 l 426 356 l 1181 356 l 1060 142 l 292 142 z "},"ㄺ":{"ha":1278,"x_min":125,"x_max":1147,"o":"m 208 146 q 147 169 168 146 q 125 236 125 193 l 125 639 l 400 639 l 400 750 l 126 750 l 126 950 l 622 950 l 622 546 q 605 487 622 507 q 554 467 588 467 l 350 467 l 350 346 l 732 346 l 631 146 l 208 146 m 921 146 l 921 739 l 672 739 l 672 950 l 1147 950 l 1147 146 l 921 146 z "},"ㄻ":{"ha":1278,"x_min":103,"x_max":1175,"o":"m 731 146 q 663 171 689 146 q 638 240 638 196 l 638 950 l 1175 950 l 1175 146 l 967 146 l 967 279 l 900 146 l 731 146 m 967 750 l 843 750 l 843 346 l 967 346 l 967 750 m 186 146 q 124 169 146 146 q 103 236 103 193 l 103 639 l 354 639 l 354 750 l 104 750 l 104 950 l 565 950 l 565 546 q 548 487 565 507 q 497 467 531 467 l 314 467 l 314 346 l 614 346 l 513 146 l 186 146 z "},"ㄼ":{"ha":1278,"x_min":103,"x_max":1175,"o":"m 731 146 q 663 171 689 146 q 638 240 638 196 l 638 950 l 842 950 l 842 740 l 968 740 l 968 950 l 1175 950 l 1175 146 l 731 146 m 186 146 q 124 169 146 146 q 103 236 103 193 l 103 639 l 354 639 l 354 750 l 104 750 l 104 950 l 565 950 l 565 546 q 548 487 565 507 q 497 467 531 467 l 314 467 l 314 346 l 614 346 l 513 146 l 186 146 m 842 553 l 842 343 l 968 343 l 968 553 l 842 553 z "},"ㄽ":{"ha":1278,"x_min":117,"x_max":1250,"o":"m 1010 740 q 1000 643 1010 686 l 1250 253 l 1078 138 l 907 414 q 726 122 824 263 l 594 225 l 554 146 l 200 146 q 138 169 160 146 q 117 236 117 193 l 117 639 l 389 639 l 389 750 l 118 750 l 118 950 l 608 950 l 608 546 q 591 487 608 507 q 540 467 574 467 l 336 467 l 336 346 l 618 346 q 757 590 718 494 q 785 747 785 660 l 785 950 l 1010 950 l 1010 740 z "},"ㄾ":{"ha":1278,"x_min":114,"x_max":1200,"o":"m 883 346 l 1200 346 l 1099 146 l 751 146 q 690 169 711 146 q 668 236 668 193 l 668 950 l 1156 950 l 1156 750 l 883 750 l 883 640 l 1143 640 l 1143 465 l 883 465 l 883 346 m 197 146 q 135 169 157 146 q 114 236 114 193 l 114 639 l 379 639 l 379 750 l 115 750 l 115 950 l 594 950 l 594 546 q 577 487 594 507 q 526 467 560 467 l 329 467 l 329 346 l 643 346 l 542 146 l 197 146 z "},"ㄿ":{"ha":1278,"x_min":90,"x_max":1193,"o":"m 1193 750 l 1124 750 l 1124 408 l 1071 346 l 1183 346 l 1183 146 l 613 146 l 613 346 l 672 346 l 672 750 l 607 750 l 607 950 l 1193 950 l 1193 750 m 174 146 q 112 169 133 146 q 90 236 90 193 l 90 639 l 349 639 l 349 750 l 92 750 l 92 950 l 560 950 l 560 546 q 542 487 560 507 q 492 467 525 467 l 301 467 l 301 346 l 594 346 l 493 146 l 174 146 m 935 750 l 858 750 l 858 346 l 935 346 l 935 750 z "},"ㅀ":{"ha":1278,"x_min":89,"x_max":1207,"o":"m 172 146 q 110 169 132 146 q 89 236 89 193 l 89 639 l 354 639 l 354 750 l 90 750 l 90 950 l 565 950 l 565 546 q 548 487 565 507 q 497 467 531 467 l 300 467 l 300 346 l 594 346 l 499 146 l 172 146 m 815 132 q 676 180 725 132 q 626 310 626 228 l 626 453 q 676 583 626 535 q 815 631 725 631 l 1001 631 q 1141 583 1092 631 q 1190 453 1190 535 l 1190 310 q 1141 180 1190 228 q 1001 132 1092 132 l 815 132 m 799 990 l 1013 990 l 1013 861 l 1207 861 l 1207 683 l 608 683 l 608 861 l 799 861 l 799 990 m 992 299 l 992 464 l 825 464 l 825 299 l 992 299 z "},"ㅁ":{"ha":1278,"x_min":158,"x_max":1119,"o":"m 279 167 q 189 201 219 167 q 158 294 158 236 l 158 929 l 1119 929 l 1119 167 l 279 167 m 864 386 l 864 710 l 414 710 l 414 386 l 864 386 z "},"ㅂ":{"ha":1278,"x_min":156,"x_max":1122,"o":"m 276 167 q 186 201 217 167 q 156 294 156 236 l 156 940 l 408 940 l 408 772 l 869 772 l 869 940 l 1122 940 l 1122 167 l 276 167 m 408 558 l 408 383 l 869 383 l 869 558 l 408 558 z "},"ㅃ":{"ha":1278,"x_min":101,"x_max":1176,"o":"m 211 167 q 126 195 151 167 q 101 281 101 224 l 101 942 l 299 942 l 299 756 l 410 756 l 410 942 l 601 942 l 601 167 l 211 167 m 786 167 q 701 195 726 167 q 676 281 676 224 l 676 942 l 868 942 l 868 756 l 979 756 l 979 942 l 1176 942 l 1176 167 l 786 167 m 299 556 l 299 372 l 410 372 l 410 556 l 299 556 m 868 556 l 868 372 l 979 372 l 979 556 l 868 556 z "},"ㅄ":{"ha":1278,"x_min":97,"x_max":1249,"o":"m 1010 776 q 1001 663 1010 713 l 1249 289 l 1085 172 l 914 432 q 749 161 842 299 l 625 257 l 625 167 l 207 167 q 122 195 147 167 q 97 281 97 224 l 97 942 l 300 942 l 300 756 l 424 756 l 424 942 l 625 942 l 625 368 q 702 494 665 431 q 758 600 739 558 q 781 672 775 635 q 788 763 788 708 l 788 942 l 1010 942 l 1010 776 m 300 556 l 300 372 l 424 372 l 424 556 l 300 556 z "},"ㅅ":{"ha":1278,"x_min":75,"x_max":1188,"o":"m 761 744 q 754 674 761 708 l 1188 350 l 1046 160 l 625 481 q 430 308 540 400 q 222 144 319 217 l 75 340 q 424 624 333 533 q 482 700 467 667 q 497 790 497 733 l 497 954 l 761 954 l 761 744 z "},"ㅆ":{"ha":1278,"x_min":28,"x_max":1247,"o":"m 500 758 q 497 703 500 739 l 660 504 q 719 600 696 558 q 750 751 750 657 l 750 943 l 986 943 l 986 738 q 982 665 986 699 l 1247 338 l 1085 192 l 885 439 q 771 274 836 363 q 647 117 706 185 l 479 265 l 529 326 l 407 475 q 206 186 310 321 l 28 326 q 140 476 86 397 q 226 613 194 556 q 264 764 264 678 l 264 943 l 500 943 l 500 758 z "},"ㅇ":{"ha":1278,"x_min":151,"x_max":1126,"o":"m 871 375 l 871 721 l 407 721 l 407 375 l 871 375 m 1126 401 q 1057 219 1126 285 q 860 153 988 153 l 418 153 q 221 219 290 153 q 151 401 151 285 l 151 694 q 221 877 151 811 q 418 943 290 943 l 860 943 q 1057 877 988 943 q 1126 694 1126 811 l 1126 401 z "},"ㅈ":{"ha":1278,"x_min":104,"x_max":1168,"o":"m 1043 764 q 1031 685 1043 714 q 979 622 1018 656 q 829 504 917 569 l 1168 328 l 1060 129 l 626 361 q 208 121 392 207 l 104 336 q 433 514 256 407 q 718 704 610 621 l 182 704 l 182 929 l 1043 929 l 1043 764 z "},"ㅉ":{"ha":1278,"x_min":46,"x_max":1233,"o":"m 1126 760 q 1121 708 1126 728 q 1101 667 1115 689 q 1008 532 1035 568 l 1233 326 l 1096 172 l 883 369 q 649 103 756 210 l 494 250 l 543 300 l 410 419 q 199 171 299 276 l 46 319 q 219 519 133 410 q 358 711 306 628 l 103 711 l 103 929 l 610 929 l 610 760 q 604 709 610 729 q 585 667 599 689 q 528 579 565 633 l 675 449 q 872 711 793 588 l 647 711 l 647 929 l 1126 929 l 1126 760 z "},"ㅊ":{"ha":1278,"x_min":117,"x_max":1154,"o":"m 1056 715 q 1042 639 1056 669 q 994 582 1028 608 q 847 476 924 526 l 1154 363 l 1076 163 l 618 342 q 197 150 396 224 l 117 365 q 436 500 263 417 q 724 656 610 583 l 192 656 l 192 875 l 492 875 l 492 1053 l 750 1053 l 750 875 l 1056 875 l 1056 715 z "},"ㅋ":{"ha":1278,"x_min":144,"x_max":1117,"o":"m 792 333 l 144 333 l 144 550 l 863 550 l 863 707 l 161 707 l 161 929 l 956 929 q 1077 890 1038 929 q 1117 765 1117 850 l 1117 279 l 957 115 l 863 115 l 863 475 l 792 333 z "},"ㅌ":{"ha":1278,"x_min":158,"x_max":1171,"o":"m 279 142 q 191 176 224 142 q 158 269 158 211 l 158 954 l 1114 954 l 1114 740 l 415 740 l 415 649 l 1085 649 l 1085 451 l 415 451 l 415 356 l 1171 356 l 1050 142 l 279 142 z "},"ㅍ":{"ha":1278,"x_min":136,"x_max":1142,"o":"m 858 376 l 1139 376 l 1139 163 l 139 163 l 139 376 l 285 376 l 285 718 l 136 718 l 136 938 l 1142 938 l 1142 718 l 993 718 l 993 479 l 858 376 m 742 718 l 536 718 l 536 376 l 742 376 l 742 718 z "},"ㅎ":{"ha":1278,"x_min":114,"x_max":1164,"o":"m 851 668 q 1042 606 978 668 q 1106 433 1106 543 l 1106 342 q 1042 169 1106 232 q 851 107 978 107 l 426 107 q 236 169 300 107 q 172 342 172 232 l 172 433 q 236 606 172 543 q 426 668 300 668 l 851 668 m 510 1079 l 768 1079 l 768 940 l 1164 940 l 1164 732 l 114 732 l 114 940 l 510 940 l 510 1079 m 425 307 l 853 307 l 853 468 l 425 468 l 425 307 z "},"ㅏ":{"ha":1278,"x_min":517,"x_max":999,"o":"m 999 761 l 999 532 l 767 532 l 767 -94 l 517 -94 l 517 1194 l 767 1194 l 767 761 l 999 761 z "},"ㅐ":{"ha":1278,"x_min":357,"x_max":921,"o":"m 690 -94 l 690 528 l 585 528 l 585 -74 l 357 -74 l 357 1186 l 585 1186 l 585 756 l 690 756 l 690 1194 l 921 1194 l 921 -94 l 690 -94 z "},"ㅑ":{"ha":1278,"x_min":517,"x_max":999,"o":"m 999 956 l 999 733 l 767 733 l 767 532 l 999 532 l 999 310 l 767 310 l 767 -94 l 517 -94 l 517 1194 l 767 1194 l 767 956 l 999 956 z "},"ㅒ":{"ha":1278,"x_min":357,"x_max":921,"o":"m 690 -94 l 690 310 l 585 310 l 585 -74 l 357 -74 l 357 1186 l 585 1186 l 585 956 l 690 956 l 690 1194 l 921 1194 l 921 -94 l 690 -94 m 690 733 l 585 733 l 585 532 l 690 532 l 690 733 z "},"ㅓ":{"ha":1278,"x_min":340,"x_max":869,"o":"m 869 1194 l 869 -94 l 619 -94 l 619 532 l 340 532 l 340 761 l 619 761 l 619 1194 l 869 1194 z "},"ㅔ":{"ha":1278,"x_min":274,"x_max":1004,"o":"m 492 1186 l 708 1186 l 708 -74 l 492 -74 l 492 535 l 274 535 l 274 754 l 492 754 l 492 1186 m 782 -94 l 782 1194 l 1004 1194 l 1004 -94 l 782 -94 z "},"ㅕ":{"ha":1278,"x_min":339,"x_max":869,"o":"m 339 729 l 339 954 l 619 954 l 619 1194 l 869 1194 l 869 -94 l 619 -94 l 619 311 l 339 311 l 339 536 l 619 536 l 619 729 l 339 729 z "},"ㅖ":{"ha":1278,"x_min":274,"x_max":1004,"o":"m 274 740 l 274 960 l 492 960 l 492 1186 l 708 1186 l 708 -74 l 492 -74 l 492 333 l 274 333 l 274 553 l 492 553 l 492 740 l 274 740 m 782 -94 l 782 1194 l 1004 1194 l 1004 -94 l 782 -94 z "},"ㅗ":{"ha":1278,"x_min":42,"x_max":1236,"o":"m 511 876 l 767 876 l 767 526 l 1236 526 l 1236 304 l 42 304 l 42 526 l 511 526 l 511 876 z "},"ㅘ":{"ha":1278,"x_min":14,"x_max":1271,"o":"m 317 674 l 563 674 l 563 261 l 865 265 l 865 1194 l 1110 1194 l 1110 761 l 1271 761 l 1271 532 l 1110 532 l 1110 -94 l 865 -94 l 865 211 l 785 50 l 14 36 l 14 253 l 317 257 l 317 674 z "},"ㅙ":{"ha":1278,"x_min":14,"x_max":1222,"o":"m 1000 -94 l 1000 526 l 915 526 l 915 -74 l 699 -74 l 699 210 l 626 56 l 14 42 l 14 253 l 231 257 l 231 621 l 467 621 l 467 261 l 699 265 l 699 1186 l 915 1186 l 915 746 l 1000 746 l 1000 1194 l 1222 1194 l 1222 -94 l 1000 -94 z "},"ㅚ":{"ha":1278,"x_min":35,"x_max":1181,"o":"m 333 596 l 583 596 l 583 247 l 936 253 l 936 1194 l 1181 1194 l 1181 -94 l 936 -94 l 936 214 l 847 36 l 35 22 l 35 239 l 333 243 l 333 596 z "},"ㅛ":{"ha":1278,"x_min":42,"x_max":1236,"o":"m 1236 526 l 1236 304 l 42 304 l 42 526 l 294 526 l 294 869 l 544 869 l 544 526 l 733 526 l 733 869 l 983 869 l 983 526 l 1236 526 z "},"ㅜ":{"ha":1278,"x_min":42,"x_max":1236,"o":"m 1236 497 l 768 497 l 768 82 l 510 82 l 510 497 l 42 497 l 42 717 l 1236 717 l 1236 497 z "},"ㅝ":{"ha":1278,"x_min":31,"x_max":1181,"o":"m 936 1194 l 1181 1194 l 1181 -94 l 936 -94 l 936 85 l 696 85 l 696 282 l 936 282 l 936 544 l 851 378 l 569 372 l 569 -64 l 325 -64 l 325 368 l 31 363 l 31 569 l 936 583 l 936 1194 z "},"ㅞ":{"ha":1278,"x_min":14,"x_max":1222,"o":"m 724 542 l 657 400 l 451 396 l 451 -58 l 226 -58 l 226 390 l 14 386 l 14 585 l 724 597 l 724 1186 l 932 1186 l 932 -74 l 724 -74 l 724 89 l 531 89 l 531 278 l 724 278 l 724 542 m 1006 -94 l 1006 1194 l 1222 1194 l 1222 -94 l 1006 -94 z "},"ㅟ":{"ha":1278,"x_min":31,"x_max":1181,"o":"m 936 1194 l 1181 1194 l 1181 -94 l 936 -94 l 936 536 l 847 361 l 589 357 l 589 -64 l 344 -64 l 344 353 l 31 347 l 31 561 l 936 575 l 936 1194 z "},"ㅠ":{"ha":1278,"x_min":42,"x_max":1236,"o":"m 542 76 l 292 76 l 292 492 l 42 492 l 42 711 l 1236 711 l 1236 492 l 986 492 l 986 76 l 736 76 l 736 492 l 542 492 l 542 76 z "},"ㅡ":{"ha":1278,"x_min":42,"x_max":1236,"o":"m 1236 446 l 42 446 l 42 668 l 1236 668 l 1236 446 z "},"ㅢ":{"ha":1278,"x_min":35,"x_max":1181,"o":"m 935 1194 l 1181 1194 l 1181 -94 l 935 -94 l 935 254 l 847 78 l 35 64 l 35 283 l 935 297 l 935 1194 z "},"ㅣ":{"ha":1278,"x_min":513,"x_max":765,"o":"m 513 -94 l 513 1194 l 765 1194 l 765 -94 l 513 -94 z "},"ㅥ":{"ha":1278,"x_min":129,"x_max":1207,"o":"m 1099 181 l 747 181 q 669 211 696 181 q 643 297 643 242 l 643 313 l 582 181 l 233 181 q 156 211 182 181 q 129 297 129 242 l 129 925 l 374 925 l 374 397 l 643 397 l 643 925 l 888 925 l 888 397 l 1207 397 l 1099 181 z "},"ㅦ":{"ha":1278,"x_min":122,"x_max":1214,"o":"m 632 929 l 1158 929 l 1158 710 l 876 710 l 876 390 l 1214 390 l 1099 174 l 744 174 q 632 293 632 174 l 632 313 l 571 181 l 226 181 q 149 211 175 181 q 122 297 122 242 l 122 925 l 367 925 l 367 397 l 632 397 l 632 929 z "},"ㅧ":{"ha":1278,"x_min":111,"x_max":1247,"o":"m 1004 739 q 996 654 1004 694 l 1247 274 l 1071 154 l 893 424 q 800 276 851 354 q 710 146 749 197 l 572 254 l 536 181 l 224 181 q 111 300 111 181 l 111 925 l 347 925 l 347 397 l 614 397 q 738 594 700 517 q 771 743 771 664 l 771 925 l 1004 925 l 1004 739 z "},"ㅨ":{"ha":1278,"x_min":97,"x_max":1240,"o":"m 333 397 l 610 397 l 501 181 l 210 181 q 97 300 97 181 l 97 925 l 333 925 l 333 397 m 549 181 l 879 949 l 910 949 l 1240 181 l 549 181 m 972 349 l 894 574 l 817 349 l 972 349 z "},"ㅩ":{"ha":1278,"x_min":33,"x_max":1278,"o":"m 1100 736 q 1093 653 1100 697 l 1278 213 l 1118 131 l 1010 397 q 893 128 956 254 l 785 194 l 785 146 l 590 146 l 590 747 l 436 747 l 436 950 l 785 950 l 785 328 q 889 583 849 467 q 910 729 910 643 l 910 950 l 1100 950 l 1100 736 m 106 146 q 33 225 33 146 l 33 632 l 217 632 l 217 758 l 35 758 l 35 950 l 406 950 l 406 544 q 391 491 406 508 q 346 474 376 474 l 222 474 l 222 338 l 508 338 l 413 146 l 106 146 z "},"ㅪ":{"ha":1278,"x_min":114,"x_max":1189,"o":"m 761 146 q 694 171 719 146 q 668 240 668 196 l 668 950 l 1144 950 l 1144 744 l 889 744 l 889 351 l 1189 351 l 1088 146 l 761 146 m 197 146 q 135 169 157 146 q 114 236 114 193 l 114 639 l 379 639 l 379 750 l 115 750 l 115 950 l 594 950 l 594 546 q 577 487 594 507 q 526 467 560 467 l 329 467 l 329 346 l 643 346 l 542 146 l 197 146 z "},"ㅫ":{"ha":1278,"x_min":33,"x_max":1292,"o":"m 1115 736 q 1111 649 1115 693 l 1292 213 l 1132 131 l 1032 381 q 933 128 975 226 l 831 183 l 831 146 l 506 146 q 429 229 429 146 l 429 290 l 357 146 l 106 146 q 33 225 33 146 l 33 632 l 207 632 l 207 758 l 35 758 l 35 950 l 378 950 l 378 544 q 363 491 378 508 q 318 474 349 474 l 204 474 l 204 338 l 429 338 l 429 950 l 589 950 l 589 726 l 671 726 l 671 950 l 831 950 l 831 343 q 874 456 851 394 q 904 542 896 518 q 912 564 908 554 q 918 583 915 574 q 939 729 939 643 l 939 950 l 1115 950 l 1115 736 m 589 547 l 589 328 l 671 328 l 671 547 l 589 547 z "},"ㅬ":{"ha":1278,"x_min":103,"x_max":1254,"o":"m 186 146 q 124 169 146 146 q 103 236 103 193 l 103 639 l 375 639 l 375 750 l 104 750 l 104 950 l 594 950 l 594 546 q 577 487 594 507 q 526 467 560 467 l 322 467 l 322 346 l 642 346 l 540 146 l 186 146 m 604 146 l 914 969 l 944 969 l 1254 146 l 604 146 m 1007 314 l 929 553 l 851 314 l 1007 314 z "},"ㅭ":{"ha":1278,"x_min":89,"x_max":1193,"o":"m 994 324 l 994 514 l 822 514 l 822 324 l 994 324 m 1179 756 l 636 756 l 636 950 l 1179 950 l 1179 756 m 813 146 q 673 194 722 146 q 624 324 624 242 l 624 514 q 673 644 624 596 q 813 692 722 692 l 1004 692 q 1144 644 1094 692 q 1193 514 1193 596 l 1193 324 q 1144 194 1193 242 q 1004 146 1094 146 l 813 146 m 172 146 q 110 169 132 146 q 89 236 89 193 l 89 639 l 354 639 l 354 750 l 90 750 l 90 950 l 565 950 l 565 546 q 548 487 565 507 q 497 467 531 467 l 300 467 l 300 346 l 594 346 l 499 146 l 172 146 z "},"ㅮ":{"ha":1278,"x_min":101,"x_max":1176,"o":"m 211 167 q 126 195 151 167 q 101 281 101 224 l 101 942 l 601 942 l 601 167 l 410 167 l 410 300 l 343 167 l 211 167 m 786 167 q 701 195 726 167 q 676 281 676 224 l 676 942 l 868 942 l 868 756 l 979 756 l 979 942 l 1176 942 l 1176 167 l 786 167 m 410 736 l 299 736 l 299 372 l 410 372 l 410 736 m 868 556 l 868 372 l 979 372 l 979 556 l 868 556 z "},"ㅯ":{"ha":1278,"x_min":97,"x_max":1249,"o":"m 1010 776 q 1001 663 1010 713 l 1249 289 l 1085 172 l 914 432 q 749 161 842 299 l 625 257 l 625 167 l 424 167 l 424 300 l 357 167 l 207 167 q 122 195 147 167 q 97 281 97 224 l 97 942 l 625 942 l 625 368 q 702 494 665 431 q 758 600 739 558 q 781 672 775 635 q 788 763 788 708 l 788 942 l 1010 942 l 1010 776 m 424 736 l 301 736 l 301 372 l 424 372 l 424 736 z "},"ㅰ":{"ha":1278,"x_min":97,"x_max":1254,"o":"m 207 167 q 122 195 147 167 q 97 281 97 224 l 97 942 l 625 942 l 625 167 l 424 167 l 424 300 l 357 167 l 207 167 m 424 736 l 301 736 l 301 372 l 424 372 l 424 736 m 632 167 l 928 961 l 958 961 l 1254 167 l 632 167 m 1007 335 l 943 544 l 879 335 l 1007 335 z "},"ㅱ":{"ha":1278,"x_min":174,"x_max":1104,"o":"m 726 147 l 726 250 l 551 250 l 551 147 l 726 147 m 551 -4 q 418 41 465 -4 q 371 165 371 86 l 371 232 q 418 356 371 311 q 551 401 465 401 l 726 401 q 860 356 813 401 q 907 232 907 311 l 907 165 q 860 41 907 86 q 726 -4 813 -4 l 551 -4 m 294 472 q 204 507 235 472 q 174 600 174 542 l 174 1068 l 1104 1068 l 1104 472 l 294 472 m 851 683 l 851 857 l 426 857 l 426 683 l 851 683 z "},"ㅲ":{"ha":1278,"x_min":119,"x_max":1158,"o":"m 229 167 q 144 195 169 167 q 119 281 119 224 l 119 942 l 322 942 l 322 756 l 450 756 l 450 942 l 651 942 l 651 167 l 229 167 m 931 156 l 931 731 l 700 731 l 700 942 l 1158 942 l 1158 156 l 931 156 m 322 556 l 322 372 l 450 372 l 450 556 l 322 556 z "},"ㅳ":{"ha":1278,"x_min":86,"x_max":1222,"o":"m 196 167 q 111 195 136 167 q 86 281 86 224 l 86 942 l 289 942 l 289 756 l 410 756 l 410 942 l 611 942 l 611 167 l 196 167 m 1121 168 l 775 168 q 713 192 735 168 q 692 258 692 215 l 692 942 l 1172 942 l 1172 733 l 910 733 l 910 376 l 1222 376 l 1121 168 m 289 556 l 289 372 l 410 372 l 410 556 l 289 556 z "},"ㅴ":{"ha":1278,"x_min":56,"x_max":1222,"o":"m 792 728 q 785 647 792 689 l 969 213 l 810 131 l 703 406 q 585 128 628 218 l 476 192 l 476 146 l 132 146 q 56 229 56 146 l 56 950 l 222 950 l 222 726 l 310 726 l 310 950 l 476 950 l 476 325 q 581 575 542 463 q 601 721 601 635 l 601 950 l 792 950 l 792 728 m 1028 146 l 1028 747 l 864 747 l 864 950 l 1222 950 l 1222 146 l 1028 146 m 222 547 l 222 328 l 310 328 l 310 547 l 222 547 z "},"ㅵ":{"ha":1278,"x_min":56,"x_max":1263,"o":"m 1172 146 l 954 146 q 886 190 899 146 l 767 131 l 671 381 q 574 128 617 226 l 463 186 l 463 146 l 132 146 q 56 229 56 146 l 56 950 l 215 950 l 215 726 l 303 726 l 303 950 l 463 950 l 463 311 q 547 543 485 368 q 552 558 550 550 q 558 575 554 567 q 576 721 576 628 l 576 950 l 753 950 l 753 728 q 747 642 753 681 l 882 301 l 882 950 l 1228 950 l 1228 758 l 1063 758 l 1063 338 l 1263 338 l 1172 146 m 215 547 l 215 328 l 303 328 l 303 547 l 215 547 z "},"ㅶ":{"ha":1278,"x_min":83,"x_max":1257,"o":"m 1151 785 q 1147 736 1151 754 q 1129 693 1142 718 q 1042 543 1092 622 l 1257 282 l 1107 146 l 924 371 q 739 139 818 226 l 611 263 l 611 167 l 193 167 q 108 195 133 167 q 83 281 83 224 l 83 942 l 286 942 l 286 756 l 410 756 l 410 942 l 611 942 l 611 315 q 776 527 699 418 q 901 728 853 636 l 669 728 l 669 942 l 1151 942 l 1151 785 m 286 556 l 286 372 l 410 372 l 410 556 l 286 556 z "},"ㅷ":{"ha":1278,"x_min":86,"x_max":1231,"o":"m 196 167 q 111 195 136 167 q 86 281 86 224 l 86 942 l 289 942 l 289 756 l 410 756 l 410 942 l 611 942 l 611 167 l 196 167 m 907 371 l 1231 371 l 1129 168 l 775 168 q 713 192 735 168 q 692 258 692 215 l 692 942 l 1186 942 l 1186 739 l 907 739 l 907 650 l 1174 650 l 1174 469 l 907 469 l 907 371 m 289 556 l 289 372 l 410 372 l 410 556 l 289 556 z "},"ㅸ":{"ha":1278,"x_min":171,"x_max":1107,"o":"m 292 467 q 201 501 232 467 q 171 594 171 536 l 171 1079 l 418 1079 l 418 981 l 860 981 l 860 1079 l 1107 1079 l 1107 467 l 292 467 m 551 -4 q 418 41 465 -4 q 371 165 371 86 l 371 232 q 418 356 371 311 q 551 401 465 401 l 726 401 q 860 356 813 401 q 907 232 907 311 l 907 165 q 860 41 907 86 q 726 -4 813 -4 l 551 -4 m 418 774 l 418 675 l 860 675 l 860 774 l 418 774 m 726 147 l 726 250 l 551 250 l 551 147 l 726 147 z "},"ㅹ":{"ha":1278,"x_min":117,"x_max":1161,"o":"m 226 467 q 142 495 167 467 q 117 581 117 524 l 117 1081 l 314 1081 l 314 974 l 415 974 l 415 1081 l 607 1081 l 607 467 l 226 467 m 781 467 q 696 495 721 467 q 671 581 671 524 l 671 1081 l 863 1081 l 863 974 l 964 974 l 964 1081 l 1161 1081 l 1161 467 l 781 467 m 551 -4 q 418 41 465 -4 q 371 165 371 86 l 371 232 q 418 356 371 311 q 551 401 465 401 l 726 401 q 860 356 813 401 q 907 232 907 311 l 907 165 q 860 41 907 86 q 726 -4 813 -4 l 551 -4 m 726 147 l 726 250 l 551 250 l 551 147 l 726 147 m 314 786 l 314 660 l 415 660 l 415 786 l 314 786 m 863 786 l 863 660 l 964 660 l 964 786 l 863 786 z "},"ㅺ":{"ha":1278,"x_min":38,"x_max":1140,"o":"m 508 736 q 501 649 508 694 l 750 290 l 574 161 l 399 418 q 308 278 358 353 q 218 153 257 203 l 38 299 q 158 461 101 378 q 243 599 215 544 q 275 744 275 661 l 275 933 l 508 933 l 508 736 m 636 929 l 1140 929 l 1140 189 l 904 189 l 904 714 l 636 714 l 636 929 z "},"ㅻ":{"ha":1278,"x_min":15,"x_max":1242,"o":"m 471 736 q 461 640 471 681 l 697 281 l 521 161 l 358 414 q 193 153 261 240 l 15 294 q 206 594 118 424 q 238 740 238 657 l 238 933 l 471 933 l 471 736 m 949 397 l 1242 397 l 1133 181 l 825 181 q 713 300 713 181 l 713 925 l 949 925 l 949 397 z "},"ㅼ":{"ha":1278,"x_min":15,"x_max":1256,"o":"m 1256 390 l 1140 174 l 818 174 q 706 293 706 174 l 706 929 l 1200 929 l 1200 710 l 944 710 l 944 390 l 1256 390 m 467 736 q 457 640 467 681 l 689 281 l 513 161 l 354 413 q 193 153 250 225 l 15 294 q 201 594 107 408 q 233 740 233 657 l 233 933 l 467 933 l 467 736 z "},"ㅽ":{"ha":1278,"x_min":33,"x_max":1210,"o":"m 468 768 q 460 654 468 704 l 671 335 l 671 932 l 871 932 l 871 754 l 1006 754 l 1006 932 l 1210 932 l 1210 174 l 781 174 q 705 194 731 174 q 672 256 679 215 l 543 164 l 372 424 q 207 153 300 290 l 33 288 q 138 447 85 357 q 217 592 192 536 q 240 663 233 626 q 246 754 246 700 l 246 933 l 468 933 l 468 768 m 871 554 l 871 379 l 1006 379 l 1006 554 l 871 554 z "},"ㅾ":{"ha":1278,"x_min":28,"x_max":1233,"o":"m 1126 760 q 1121 708 1126 728 q 1101 667 1115 689 q 1015 543 1064 608 l 1233 326 l 1096 172 l 890 381 q 658 117 774 233 l 504 264 l 538 297 l 388 457 q 200 176 294 299 l 28 317 q 141 474 88 394 q 219 603 194 553 q 254 754 254 672 l 254 933 l 488 933 l 488 749 q 481 669 488 711 l 678 451 q 872 711 790 585 l 622 711 l 622 929 l 1126 929 l 1126 760 z "},"ㅿ":{"ha":1278,"x_min":197,"x_max":1081,"o":"m 197 158 l 629 1004 l 649 1004 l 1081 158 l 197 158 m 767 343 l 639 618 l 511 343 l 767 343 z "},"ㆀ":{"ha":1278,"x_min":49,"x_max":1229,"o":"m 411 358 l 411 738 l 250 738 l 250 358 l 411 358 m 613 371 q 551 215 613 272 q 392 158 489 158 l 269 158 q 110 215 172 158 q 49 371 49 272 l 49 725 q 110 881 49 824 q 269 938 172 938 l 392 938 q 551 881 489 938 q 613 725 613 824 l 613 371 m 1028 358 l 1028 738 l 867 738 l 867 358 l 1028 358 m 665 725 q 727 881 665 824 q 886 938 789 938 l 1008 938 q 1167 881 1106 938 q 1229 725 1229 824 l 1229 371 q 1167 215 1229 272 q 1008 158 1106 158 l 886 158 q 727 215 789 158 q 665 371 665 272 l 665 725 z "},"ㆁ":{"ha":1278,"x_min":160,"x_max":1118,"o":"m 1118 381 q 1049 198 1118 264 q 851 132 979 132 l 426 132 q 229 198 299 132 q 160 381 160 264 l 160 640 q 229 823 160 757 q 426 889 299 889 l 510 889 l 510 1031 l 768 1031 l 768 889 l 851 889 q 1049 823 979 889 q 1118 640 1118 757 l 1118 381 m 863 354 l 863 667 l 415 667 l 415 354 l 863 354 z "},"ㆂ":{"ha":1278,"x_min":49,"x_max":1249,"o":"m 1010 776 q 1001 663 1010 713 l 1249 289 l 1085 172 l 914 432 q 749 161 842 299 l 597 278 q 519 185 574 218 q 392 153 465 153 l 269 153 q 110 210 172 153 q 49 365 49 267 l 49 664 q 93 806 49 754 q 219 867 138 858 l 219 982 l 442 982 l 442 867 q 568 806 524 858 q 613 664 613 754 l 613 365 q 611 347 613 353 q 697 485 656 414 q 758 600 738 556 q 781 672 775 635 q 788 763 788 708 l 788 942 l 1010 942 l 1010 776 m 411 353 l 411 676 l 250 676 l 250 353 l 411 353 z "},"ㆃ":{"ha":1278,"x_min":60,"x_max":1240,"o":"m 624 365 q 562 210 624 267 q 403 153 500 153 l 281 153 q 122 210 183 153 q 60 365 60 267 l 60 664 q 104 806 60 754 q 231 867 149 858 l 231 982 l 453 982 l 453 867 q 579 806 535 858 q 624 664 624 754 l 624 365 m 604 167 l 907 961 l 938 961 l 1240 167 l 604 167 m 422 353 l 422 676 l 261 676 l 261 353 l 422 353 m 993 335 l 922 544 l 851 335 l 993 335 z "},"ㆄ":{"ha":1278,"x_min":150,"x_max":1128,"o":"m 871 671 l 1119 671 l 1119 460 l 153 460 l 153 671 l 290 671 l 290 863 l 150 863 l 150 1076 l 1128 1076 l 1128 863 l 988 863 l 988 760 l 871 671 m 551 -4 q 418 41 465 -4 q 371 165 371 86 l 371 232 q 418 356 371 311 q 551 401 465 401 l 726 401 q 860 356 813 401 q 907 232 907 311 l 907 165 q 860 41 907 86 q 726 -4 813 -4 l 551 -4 m 739 863 l 539 863 l 539 671 l 739 671 l 739 863 m 726 147 l 726 250 l 551 250 l 551 147 l 726 147 z "},"ㆅ":{"ha":1278,"x_min":53,"x_max":1222,"o":"m 861 132 q 722 180 771 132 q 672 310 672 228 l 672 453 q 722 583 672 535 q 861 631 771 631 l 1017 631 q 1156 583 1107 631 q 1206 453 1206 535 l 1206 310 q 1156 180 1206 228 q 1017 132 1107 132 l 861 132 m 258 132 q 119 180 168 132 q 69 310 69 228 l 69 453 q 119 583 69 535 q 258 631 168 631 l 414 631 q 553 583 504 631 q 603 453 603 535 l 603 310 q 553 180 603 228 q 414 132 504 132 l 258 132 m 836 990 l 1044 990 l 1044 861 l 1222 861 l 1222 683 l 658 683 l 658 861 l 836 861 l 836 990 m 617 683 l 53 683 l 53 861 l 231 861 l 231 990 l 439 990 l 439 861 l 617 861 l 617 683 m 408 299 l 408 464 l 264 464 l 264 299 l 408 299 m 1011 299 l 1011 464 l 867 464 l 867 299 l 1011 299 z "},"ㆆ":{"ha":1278,"x_min":169,"x_max":1108,"o":"m 1108 804 l 169 804 l 169 1018 l 1108 1018 l 1108 804 m 432 335 l 846 335 l 846 508 l 432 508 l 432 335 m 844 714 q 1035 651 971 714 q 1099 479 1099 589 l 1099 364 q 1035 192 1099 254 q 844 129 971 129 l 433 129 q 243 192 307 129 q 179 364 179 254 l 179 479 q 243 651 179 589 q 433 714 307 714 l 844 714 z "},"ㆇ":{"ha":1278,"x_min":14,"x_max":1271,"o":"m 865 265 l 865 1194 l 1110 1194 l 1110 956 l 1271 956 l 1271 733 l 1110 733 l 1110 532 l 1271 532 l 1271 310 l 1110 310 l 1110 -94 l 865 -94 l 865 211 l 785 50 l 14 36 l 14 253 l 149 254 l 149 647 l 374 647 l 374 258 l 482 260 l 482 647 l 707 647 l 707 264 l 865 265 z "},"ㆈ":{"ha":1278,"x_min":14,"x_max":1222,"o":"m 1003 -94 l 1003 310 l 913 310 l 913 -74 l 699 -74 l 699 210 l 626 56 l 14 42 l 14 253 l 115 254 l 115 647 l 310 647 l 310 258 l 394 260 l 394 647 l 589 647 l 589 264 l 699 265 l 699 1186 l 913 1186 l 913 956 l 1003 956 l 1003 1194 l 1222 1194 l 1222 -94 l 1003 -94 m 1003 733 l 913 733 l 913 532 l 1003 532 l 1003 733 z "},"ㆉ":{"ha":1278,"x_min":35,"x_max":1181,"o":"m 936 253 l 936 1194 l 1181 1194 l 1181 -94 l 936 -94 l 936 214 l 847 36 l 35 22 l 35 239 l 165 240 l 165 647 l 407 647 l 407 244 l 522 246 l 522 647 l 764 647 l 764 250 l 936 253 z "},"ㆊ":{"ha":1278,"x_min":31,"x_max":1194,"o":"m 950 1194 l 1194 1194 l 1194 -94 l 950 -94 l 950 10 l 753 10 l 753 176 l 950 176 l 950 228 l 753 228 l 753 394 l 950 394 l 950 614 l 865 450 l 686 446 l 686 -58 l 472 -58 l 472 443 l 376 440 l 376 -58 l 163 -58 l 163 436 l 31 435 l 31 639 l 950 653 l 950 1194 z "},"ㆋ":{"ha":1278,"x_min":14,"x_max":1229,"o":"m 753 1186 l 957 1186 l 957 -74 l 753 -74 l 753 0 l 599 0 l 599 157 l 753 157 l 753 214 l 599 214 l 599 371 l 753 371 l 753 565 l 686 425 l 539 421 l 539 -58 l 363 -58 l 363 418 l 294 417 l 294 -58 l 119 -58 l 119 413 l 14 411 l 14 607 l 753 619 l 753 1186 m 1022 -94 l 1022 1194 l 1229 1194 l 1229 -94 l 1022 -94 z "},"ㆌ":{"ha":1278,"x_min":31,"x_max":1181,"o":"m 936 1194 l 1181 1194 l 1181 -94 l 936 -94 l 936 536 l 847 361 l 746 360 l 746 -58 l 518 -58 l 518 356 l 417 354 l 417 -58 l 189 -58 l 189 350 l 31 347 l 31 561 l 936 575 l 936 1194 z "},"ㆍ":{"ha":1278,"x_min":514,"x_max":764,"o":"m 514 435 l 514 701 l 764 701 l 764 435 l 514 435 z "},"ㆎ":{"ha":1278,"x_min":268,"x_max":997,"o":"m 744 -94 l 744 1194 l 997 1194 l 997 -94 l 744 -94 m 268 435 l 268 701 l 518 701 l 518 435 l 268 435 z "},"ⅰ":{"ha":1389,"x_min":568,"x_max":821,"o":"m 821 0 l 568 0 l 568 889 l 821 889 l 821 0 m 568 964 l 568 1186 l 821 1186 l 821 964 l 568 964 z "},"ⅱ":{"ha":1389,"x_min":381,"x_max":1008,"o":"m 1008 0 l 756 0 l 756 889 l 1008 889 l 1008 0 m 756 964 l 756 1186 l 1008 1186 l 1008 964 l 756 964 m 633 0 l 381 0 l 381 889 l 633 889 l 633 0 m 381 964 l 381 1186 l 633 1186 l 633 964 l 381 964 z "},"ⅲ":{"ha":1389,"x_min":201,"x_max":1188,"o":"m 449 0 l 201 0 l 201 889 l 449 889 l 449 0 m 201 964 l 201 1186 l 449 1186 l 449 964 l 201 964 m 818 0 l 571 0 l 571 889 l 818 889 l 818 0 m 571 964 l 571 1186 l 818 1186 l 818 964 l 571 964 m 1188 0 l 940 0 l 940 889 l 1188 889 l 1188 0 m 940 964 l 940 1186 l 1188 1186 l 1188 964 l 940 964 z "},"ⅳ":{"ha":1389,"x_min":111,"x_max":1311,"o":"m 364 0 l 111 0 l 111 889 l 364 889 l 364 0 m 111 964 l 111 1186 l 364 1186 l 364 964 l 111 964 m 1125 0 l 764 0 q 661 33 696 0 q 611 136 626 67 l 453 889 l 725 889 l 839 226 l 925 226 l 1038 889 l 1311 889 l 1125 0 z "},"ⅴ":{"ha":1389,"x_min":265,"x_max":1124,"o":"m 576 0 q 474 33 508 0 q 424 136 439 67 l 265 889 l 538 889 l 651 226 l 738 226 l 850 889 l 1124 889 l 938 0 l 576 0 z "},"ⅵ":{"ha":1389,"x_min":78,"x_max":1278,"o":"m 1278 0 l 1025 0 l 1025 889 l 1278 889 l 1278 0 m 1025 964 l 1025 1186 l 1278 1186 l 1278 964 l 1025 964 m 750 0 l 389 0 q 286 33 321 0 q 236 136 251 67 l 78 889 l 350 889 l 464 226 l 550 226 l 663 889 l 936 889 l 750 0 z "},"ⅶ":{"ha":1389,"x_min":19,"x_max":1342,"o":"m 597 0 l 288 0 q 199 33 229 0 q 156 136 168 67 l 19 889 l 267 889 l 365 226 l 411 226 l 508 889 l 758 889 l 597 0 m 1032 0 l 807 0 l 807 889 l 1032 889 l 1032 0 m 807 964 l 807 1186 l 1032 1186 l 1032 964 l 807 964 m 1342 0 l 1117 0 l 1117 889 l 1342 889 l 1342 0 m 1117 964 l 1117 1186 l 1342 1186 l 1342 964 l 1117 964 z "},"ⅷ":{"ha":1389,"x_min":17,"x_max":1353,"o":"m 493 0 l 235 0 q 162 33 188 0 q 126 136 136 67 l 17 889 l 221 889 l 300 226 l 339 226 l 418 889 l 624 889 l 493 0 m 850 0 l 663 0 l 663 889 l 850 889 l 850 0 m 663 964 l 663 1186 l 850 1186 l 850 964 l 663 964 m 1101 0 l 915 0 l 915 889 l 1101 889 l 1101 0 m 915 964 l 915 1186 l 1101 1186 l 1101 964 l 915 964 m 1353 0 l 1167 0 l 1167 889 l 1353 889 l 1353 0 m 1167 964 l 1167 1186 l 1353 1186 l 1353 964 l 1167 964 z "},"ⅸ":{"ha":1389,"x_min":132,"x_max":1326,"o":"m 714 0 l 443 0 l 654 453 l 451 889 l 719 889 l 857 558 l 913 558 l 1050 889 l 1318 889 l 1114 453 l 1326 0 l 1056 0 l 911 332 l 858 332 l 714 0 m 385 0 l 132 0 l 132 889 l 385 889 l 385 0 m 132 964 l 132 1186 l 385 1186 l 385 964 l 132 964 z "},"ⅹ":{"ha":1389,"x_min":253,"x_max":1136,"o":"m 524 0 l 253 0 l 464 453 l 261 889 l 529 889 l 667 558 l 722 558 l 860 889 l 1128 889 l 924 453 l 1136 0 l 865 0 l 721 332 l 668 332 l 524 0 z "},"Ⅰ":{"ha":1389,"x_min":564,"x_max":825,"o":"m 564 1131 l 825 1131 l 825 0 l 564 0 l 564 1131 z "},"Ⅱ":{"ha":1389,"x_min":374,"x_max":1015,"o":"m 374 1131 l 635 1131 l 635 0 l 374 0 l 374 1131 m 754 1131 l 1015 1131 l 1015 0 l 754 0 l 754 1131 z "},"Ⅲ":{"ha":1389,"x_min":192,"x_max":1199,"o":"m 192 1131 l 446 1131 l 446 0 l 192 0 l 192 1131 m 568 1131 l 822 1131 l 822 0 l 568 0 l 568 1131 m 944 1131 l 1199 1131 l 1199 0 l 944 0 l 944 1131 z "},"Ⅳ":{"ha":1389,"x_min":97,"x_max":1331,"o":"m 97 1131 l 351 1131 l 351 0 l 97 0 l 97 1131 m 1110 0 l 761 0 q 590 156 624 0 l 415 1131 l 676 1131 l 825 226 l 907 226 l 1068 1131 l 1331 1131 l 1110 0 z "},"Ⅴ":{"ha":1389,"x_min":217,"x_max":1174,"o":"m 590 0 q 419 156 453 0 l 217 1131 l 485 1131 l 661 226 l 729 226 l 904 1131 l 1174 1131 l 939 0 l 590 0 z "},"Ⅵ":{"ha":1389,"x_min":58,"x_max":1292,"o":"m 1038 1131 l 1292 1131 l 1292 0 l 1038 0 l 1038 1131 m 753 0 l 404 0 q 233 156 267 0 l 58 1131 l 319 1131 l 468 226 l 550 226 l 711 1131 l 974 1131 l 753 0 z "},"Ⅶ":{"ha":1389,"x_min":19,"x_max":1333,"o":"m 581 0 l 315 0 q 219 33 251 0 q 175 142 186 67 l 19 1131 l 247 1131 l 372 226 l 404 226 l 528 1131 l 757 1131 l 581 0 m 804 1131 l 1031 1131 l 1031 0 l 804 0 l 804 1131 m 1108 1131 l 1333 1131 l 1333 0 l 1108 0 l 1108 1131 z "},"Ⅷ":{"ha":1389,"x_min":25,"x_max":1350,"o":"m 506 0 l 275 0 q 192 32 219 0 q 154 132 164 64 l 25 1131 l 221 1131 l 324 226 l 354 226 l 457 1131 l 653 1131 l 506 0 m 692 1131 l 872 1131 l 872 0 l 692 0 l 692 1131 m 931 1131 l 1111 1131 l 1111 0 l 931 0 l 931 1131 m 1169 1131 l 1350 1131 l 1350 0 l 1169 0 l 1169 1131 z "},"Ⅸ":{"ha":1389,"x_min":125,"x_max":1303,"o":"m 711 0 l 450 0 l 631 589 l 457 1131 l 717 1131 l 838 679 l 915 679 l 1036 1131 l 1296 1131 l 1122 589 l 1303 0 l 1042 0 l 917 451 l 835 451 l 711 0 m 125 1131 l 379 1131 l 379 0 l 125 0 l 125 1131 z "},"Ⅹ":{"ha":1389,"x_min":250,"x_max":1139,"o":"m 1139 0 l 867 0 l 736 451 l 651 451 l 522 0 l 250 0 l 438 588 l 257 1131 l 528 1131 l 654 679 l 735 679 l 861 1131 l 1132 1131 l 950 588 l 1139 0 z "},"Α":{"ha":992,"x_min":22,"x_max":967,"o":"m 343 313 l 286 0 l 22 0 l 210 975 q 381 1131 240 1131 l 747 1131 l 967 0 l 701 0 l 644 313 l 343 313 m 539 900 l 450 900 l 385 540 l 604 540 l 539 900 z "},"Β":{"ha":976,"x_min":6,"x_max":893,"o":"m 640 226 l 640 465 l 353 465 l 353 226 l 640 226 m 622 904 l 353 904 l 353 676 l 622 676 l 622 904 m 663 1131 q 820 1079 765 1131 q 875 932 875 1028 l 875 714 q 794 575 875 629 q 869 519 846 556 q 893 425 893 483 l 893 179 q 844 48 893 96 q 710 0 796 0 l 100 0 l 100 756 l 228 904 l 6 904 l 169 1131 l 663 1131 z "},"Γ":{"ha":881,"x_min":100,"x_max":875,"o":"m 100 1131 l 875 1131 l 707 904 l 357 904 l 357 0 l 100 0 l 100 1131 z "},"Δ":{"ha":992,"x_min":22,"x_max":967,"o":"m 210 975 q 381 1131 240 1131 l 747 1131 l 967 0 l 22 0 l 210 975 m 539 900 l 450 900 l 328 228 l 660 228 l 539 900 z "},"Ε":{"ha":875,"x_min":100,"x_max":867,"o":"m 100 1131 l 867 1131 l 699 904 l 356 904 l 356 693 l 722 693 l 722 482 l 356 482 l 356 226 l 804 226 l 804 0 l 100 0 l 100 1131 z "},"Ζ":{"ha":908,"x_min":69,"x_max":846,"o":"m 825 985 q 813 905 825 946 q 778 831 800 864 l 389 226 l 846 226 l 846 0 l 69 0 l 69 196 l 525 904 l 69 904 l 69 1131 l 825 1131 l 825 985 z "},"Η":{"ha":1019,"x_min":100,"x_max":919,"o":"m 353 1131 l 353 692 l 665 692 l 665 1131 l 919 1131 l 919 0 l 665 0 l 665 464 l 353 464 l 353 0 l 100 0 l 100 1131 l 353 1131 z "},"Θ":{"ha":1097,"x_min":93,"x_max":1004,"o":"m 283 0 q 144 51 196 0 q 93 189 93 103 l 93 940 q 144 1079 93 1028 q 283 1131 196 1131 l 813 1131 q 953 1079 901 1131 q 1004 940 1004 1028 l 1004 189 q 953 51 1004 101 q 813 0 901 0 l 283 0 m 347 226 l 750 226 l 750 904 l 347 904 l 347 226 m 408 481 l 408 664 l 689 664 l 689 481 l 408 481 z "},"Ι":{"ha":469,"x_min":104,"x_max":365,"o":"m 365 1131 l 365 0 l 104 0 l 104 1131 l 365 1131 z "},"Κ":{"ha":958,"x_min":100,"x_max":950,"o":"m 353 1131 l 353 689 l 447 689 l 653 1131 l 928 1131 l 667 579 l 950 0 l 663 0 l 450 461 l 353 461 l 353 0 l 100 0 l 100 1131 l 353 1131 z "},"Λ":{"ha":992,"x_min":22,"x_max":967,"o":"m 539 900 l 450 900 l 286 0 l 22 0 l 210 975 q 381 1131 240 1131 l 747 1131 l 967 0 l 701 0 l 539 900 z "},"Μ":{"ha":1301,"x_min":97,"x_max":1201,"o":"m 347 904 l 347 0 l 97 0 l 97 940 q 149 1079 97 1028 q 288 1131 200 1131 l 1201 1131 l 1201 0 l 954 0 l 954 904 l 774 904 l 774 0 l 528 0 l 528 904 l 347 904 z "},"Ν":{"ha":1015,"x_min":97,"x_max":915,"o":"m 350 904 l 350 0 l 97 0 l 97 940 q 149 1079 97 1028 q 288 1131 200 1131 l 915 1131 l 915 0 l 663 0 l 663 904 l 350 904 z "},"Ξ":{"ha":878,"x_min":35,"x_max":843,"o":"m 35 903 l 35 1131 l 843 1131 l 843 903 l 35 903 m 115 450 l 115 678 l 763 678 l 763 450 l 115 450 m 35 0 l 35 228 l 843 228 l 843 0 l 35 0 z "},"Ο":{"ha":1014,"x_min":93,"x_max":921,"o":"m 283 0 q 144 51 196 0 q 93 189 93 103 l 93 940 q 144 1079 93 1028 q 283 1131 196 1131 l 729 1131 q 869 1079 818 1131 q 921 940 921 1028 l 921 189 q 869 51 921 101 q 729 0 818 0 l 283 0 m 664 226 l 664 904 l 350 904 l 350 226 l 664 226 z "},"Π":{"ha":1013,"x_min":97,"x_max":915,"o":"m 915 1131 l 915 0 l 663 0 l 663 904 l 350 904 l 350 0 l 97 0 l 97 1131 l 915 1131 z "},"Ρ":{"ha":949,"x_min":6,"x_max":881,"o":"m 357 904 l 357 547 l 624 547 l 624 904 l 357 904 m 100 0 l 100 757 l 228 904 l 6 904 l 171 1131 l 697 1131 q 833 1083 785 1131 q 881 951 881 1035 l 881 500 q 833 369 881 417 q 697 321 785 321 l 357 321 l 357 0 l 100 0 z "},"Σ":{"ha":908,"x_min":56,"x_max":839,"o":"m 839 0 l 56 0 l 56 201 l 340 565 l 124 842 q 90 899 100 869 q 81 967 81 928 l 81 1131 l 839 1131 l 839 904 l 385 904 l 646 569 l 385 226 l 839 226 l 839 0 z "},"Τ":{"ha":933,"x_min":33,"x_max":943,"o":"m 33 899 l 33 1131 l 943 1131 l 775 899 l 575 899 l 575 0 l 313 0 l 313 899 l 33 899 z "},"Υ":{"ha":1000,"x_min":22,"x_max":978,"o":"m 317 375 q 231 398 260 375 q 188 475 201 421 l 22 1131 l 282 1131 l 399 599 l 601 599 l 718 1131 l 978 1131 l 813 475 q 771 398 799 421 q 686 375 743 375 l 632 375 l 632 0 l 371 0 l 371 375 l 317 375 z "},"Φ":{"ha":1214,"x_min":63,"x_max":1151,"o":"m 63 764 q 114 903 63 853 q 251 954 165 954 l 481 954 l 481 1131 l 733 1131 l 733 954 l 961 954 q 1100 903 1049 954 q 1151 764 1151 851 l 1151 401 q 1100 261 1151 313 q 961 210 1049 210 l 733 210 l 733 0 l 481 0 l 481 210 l 251 210 q 113 261 164 210 q 63 401 63 313 l 63 764 m 901 433 l 901 731 l 733 731 l 733 433 l 901 433 m 313 731 l 313 433 l 481 433 l 481 731 l 313 731 z "},"Χ":{"ha":942,"x_min":26,"x_max":915,"o":"m 915 0 l 643 0 l 513 451 l 428 451 l 299 0 l 26 0 l 214 588 l 33 1131 l 304 1131 l 431 679 l 511 679 l 638 1131 l 908 1131 l 726 588 l 915 0 z "},"Ψ":{"ha":1236,"x_min":83,"x_max":1153,"o":"m 274 304 q 135 356 186 304 q 83 494 83 407 l 83 1131 l 331 1131 l 331 531 l 485 531 l 485 1131 l 738 1131 l 738 531 l 906 531 l 906 1131 l 1153 1131 l 1153 494 q 1101 356 1153 407 q 963 304 1050 304 l 738 304 l 738 0 l 485 0 l 485 304 l 274 304 z "},"Ω":{"ha":978,"x_min":47,"x_max":931,"o":"m 217 289 q 105 348 147 303 q 63 479 63 393 l 63 903 q 122 1067 63 1004 q 290 1131 182 1131 l 688 1131 q 856 1067 796 1131 q 915 903 915 1004 l 915 479 q 873 348 915 393 q 761 289 831 303 l 761 214 l 931 214 l 931 0 l 525 0 l 525 471 l 665 471 l 665 908 l 313 908 l 313 471 l 453 471 l 453 0 l 47 0 l 47 214 l 217 214 l 217 289 z "},"α":{"ha":899,"x_min":76,"x_max":815,"o":"m 442 0 l 251 0 q 123 47 169 0 q 76 174 76 94 l 76 715 q 123 842 76 794 q 251 889 169 889 l 815 889 l 815 0 l 565 0 l 565 168 l 442 0 m 565 664 l 326 664 l 326 225 l 565 225 l 565 664 z "},"β":{"ha":944,"x_min":90,"x_max":868,"o":"m 90 -269 l 90 932 q 145 1079 90 1028 q 303 1131 200 1131 l 638 1131 q 795 1079 740 1131 q 850 932 850 1028 l 850 714 q 769 575 850 629 q 844 519 821 556 q 868 425 868 483 l 868 179 q 819 48 868 96 q 685 0 771 0 l 342 0 l 342 -269 l 90 -269 m 619 225 l 619 465 l 421 465 l 421 676 l 601 676 l 601 904 l 342 904 l 342 64 l 460 225 l 619 225 z "},"γ":{"ha":975,"x_min":21,"x_max":968,"o":"m 404 -269 l 404 50 l 372 50 q 285 74 315 50 q 243 150 254 97 l 154 668 l 21 668 l 21 889 l 269 889 q 351 859 325 889 q 389 761 378 829 l 461 274 l 594 274 l 708 889 l 968 889 l 813 150 q 772 73 801 96 q 686 50 743 50 l 654 50 l 654 -269 l 404 -269 z "},"δ":{"ha":910,"x_min":83,"x_max":826,"o":"m 576 606 l 333 606 l 333 225 l 576 225 l 576 606 m 826 174 q 780 47 826 94 q 651 0 733 0 l 258 0 q 130 47 176 0 q 83 174 83 94 l 83 651 q 130 778 83 731 q 258 825 176 825 l 361 825 l 147 949 q 115 985 125 963 q 106 1050 106 1008 l 106 1188 l 769 1188 l 769 985 l 436 985 l 728 810 q 803 738 781 778 q 826 625 826 697 l 826 174 z "},"ε":{"ha":764,"x_min":63,"x_max":708,"o":"m 301 365 l 301 206 l 472 206 l 472 293 l 708 293 l 708 179 q 653 49 708 99 q 490 0 599 0 l 279 0 q 117 49 171 0 q 63 179 63 99 l 63 297 q 84 390 63 349 q 149 453 106 432 q 75 593 75 492 l 75 710 q 129 840 75 790 q 292 889 183 889 l 490 889 q 653 840 599 889 q 708 710 708 790 l 708 607 l 472 607 l 472 683 l 314 683 l 314 544 l 485 544 l 485 365 l 301 365 z "},"ζ":{"ha":882,"x_min":83,"x_max":813,"o":"m 638 267 q 766 219 719 267 q 813 93 813 172 l 813 -54 q 753 -210 813 -150 q 596 -269 693 -269 l 258 -269 l 403 -47 l 563 -47 l 563 42 l 258 42 q 130 89 176 42 q 83 215 83 136 l 83 568 q 106 681 83 640 q 182 753 129 721 l 438 904 l 88 904 l 88 1131 l 779 1131 l 779 940 q 769 876 779 900 q 738 839 760 853 l 333 576 l 333 267 l 638 267 z "},"η":{"ha":899,"x_min":83,"x_max":815,"o":"m 83 715 q 130 842 83 794 q 258 889 176 889 l 815 889 l 815 -269 l 565 -269 l 565 664 l 333 664 l 333 0 l 83 0 l 83 715 z "},"θ":{"ha":1014,"x_min":93,"x_max":921,"o":"m 283 0 q 144 51 196 0 q 93 189 93 103 l 93 940 q 144 1079 93 1028 q 283 1131 196 1131 l 729 1131 q 869 1079 818 1131 q 921 940 921 1028 l 921 189 q 869 51 921 101 q 729 0 818 0 l 283 0 m 350 461 l 350 226 l 664 226 l 664 461 l 350 461 m 664 669 l 664 904 l 350 904 l 350 669 l 664 669 z "},"ι":{"ha":447,"x_min":97,"x_max":350,"o":"m 350 0 l 97 0 l 97 889 l 350 889 l 350 0 z "},"κ":{"ha":897,"x_min":83,"x_max":890,"o":"m 333 589 l 419 589 l 544 803 q 674 889 594 889 l 858 889 l 858 665 l 733 665 l 618 479 l 890 0 l 607 0 l 408 363 l 333 363 l 333 0 l 83 0 l 83 889 l 333 889 l 333 589 z "},"λ":{"ha":975,"x_min":14,"x_max":956,"o":"m 321 1131 q 399 1108 364 1131 q 450 1044 433 1085 l 806 222 l 956 222 l 956 0 l 733 0 q 656 24 690 0 q 604 86 621 47 l 438 471 l 271 0 l 14 0 l 306 774 l 249 908 l 54 908 l 54 1131 l 321 1131 z "},"μ":{"ha":954,"x_min":83,"x_max":922,"o":"m 922 225 l 922 0 l 747 0 q 632 34 676 0 q 576 129 588 68 l 490 0 l 333 0 l 333 -269 l 83 -269 l 83 889 l 333 889 l 333 218 l 572 218 l 572 889 l 822 889 l 822 225 l 922 225 z "},"ν":{"ha":892,"x_min":22,"x_max":857,"o":"m 319 0 q 216 33 251 0 q 167 136 181 67 l 22 889 l 294 889 l 394 226 l 529 226 l 594 664 l 474 664 l 474 889 l 704 889 q 817 851 776 889 q 857 749 857 813 q 854 715 857 738 l 758 160 q 697 41 744 82 q 574 0 649 0 l 319 0 z "},"ξ":{"ha":894,"x_min":83,"x_max":825,"o":"m 575 -62 l 575 17 l 269 17 q 136 62 186 17 q 86 183 86 107 l 86 299 q 103 396 86 357 q 160 456 121 435 q 110 505 124 475 q 97 582 97 535 l 97 663 q 120 750 97 717 q 196 806 143 783 l 447 913 l 83 913 l 83 1131 l 761 1131 l 761 935 q 748 869 761 893 q 706 831 735 846 l 347 650 l 347 581 l 700 581 l 700 369 l 336 369 l 336 228 l 650 228 q 778 181 731 228 q 825 54 825 135 l 825 -56 q 765 -211 825 -151 q 608 -271 706 -271 l 257 -271 l 390 -62 l 575 -62 z "},"ο":{"ha":901,"x_min":76,"x_max":825,"o":"m 825 174 q 778 47 825 94 q 650 0 732 0 l 251 0 q 123 47 169 0 q 76 174 76 94 l 76 715 q 123 842 76 794 q 251 889 169 889 l 650 889 q 778 842 732 889 q 825 715 825 794 l 825 174 m 326 664 l 326 225 l 575 225 l 575 664 l 326 664 z "},"π":{"ha":1047,"x_min":28,"x_max":994,"o":"m 994 225 l 994 0 l 760 0 q 631 47 678 0 q 585 174 585 94 l 585 665 l 464 665 l 464 492 q 418 264 464 357 q 342 125 383 192 q 231 -36 300 58 l 28 108 q 186 356 146 268 q 217 492 217 424 l 217 665 l 69 665 l 69 889 l 986 889 l 986 665 l 832 665 l 832 225 l 994 225 z "},"ρ":{"ha":897,"x_min":83,"x_max":821,"o":"m 83 715 q 130 842 83 794 q 258 889 176 889 l 646 889 q 774 842 728 889 q 821 715 821 794 l 821 174 q 774 47 821 94 q 646 0 728 0 l 333 0 l 333 -269 l 83 -269 l 83 715 m 571 664 l 333 664 l 333 225 l 571 225 l 571 664 z "},"σ":{"ha":972,"x_min":76,"x_max":944,"o":"m 811 174 q 765 47 811 94 q 636 0 718 0 l 251 0 q 123 47 169 0 q 76 174 76 94 l 76 715 q 123 842 76 794 q 251 889 169 889 l 944 889 l 944 664 l 811 664 l 811 174 m 561 664 l 326 664 l 326 225 l 561 225 l 561 664 z "},"τ":{"ha":756,"x_min":28,"x_max":783,"o":"m 642 225 l 642 0 l 401 0 q 273 47 319 0 q 226 174 226 94 l 226 665 l 28 665 l 28 888 l 783 888 l 617 665 l 479 665 l 479 225 l 642 225 z "},"υ":{"ha":910,"x_min":83,"x_max":833,"o":"m 258 0 q 130 47 176 0 q 83 174 83 94 l 83 889 l 333 889 l 333 225 l 583 225 l 583 664 l 463 664 l 463 889 l 658 889 q 787 842 740 889 q 833 715 833 794 l 833 174 q 787 47 833 94 q 658 0 740 0 l 258 0 z "},"φ":{"ha":1222,"x_min":76,"x_max":1146,"o":"m 500 0 l 251 0 q 123 47 169 0 q 76 174 76 94 l 76 715 q 123 842 76 794 q 251 889 169 889 l 447 889 l 447 664 l 321 664 l 321 225 l 500 225 l 500 715 q 547 842 500 794 q 675 889 593 889 l 971 889 q 1099 842 1053 889 q 1146 715 1146 794 l 1146 174 q 1099 47 1146 94 q 971 0 1053 0 l 747 0 l 747 -269 l 500 -269 l 500 0 m 901 664 l 747 664 l 747 225 l 901 225 l 901 664 z "},"χ":{"ha":924,"x_min":21,"x_max":903,"o":"m 218 889 q 302 863 268 889 q 347 792 336 836 l 439 433 l 471 433 l 614 889 l 885 889 l 685 315 l 779 -47 l 903 -47 l 903 -269 l 704 -269 q 621 -243 654 -269 q 576 -175 588 -217 l 476 207 l 440 207 l 296 -269 l 25 -269 l 233 350 l 147 667 l 21 667 l 21 889 l 218 889 z "},"ψ":{"ha":1236,"x_min":83,"x_max":1153,"o":"m 1153 174 q 1106 47 1153 94 q 978 0 1060 0 l 742 0 l 742 -269 l 494 -269 l 494 0 l 258 0 q 130 47 176 0 q 83 174 83 94 l 83 889 l 328 889 l 328 225 l 494 225 l 494 889 l 742 889 l 742 225 l 908 225 l 908 889 l 1153 889 l 1153 174 z "},"ω":{"ha":1235,"x_min":76,"x_max":1158,"o":"m 1158 174 q 1111 47 1158 94 q 982 0 1064 0 l 683 0 q 571 33 615 0 q 513 124 526 65 l 438 0 l 251 0 q 123 47 169 0 q 76 174 76 94 l 76 699 q 128 838 76 788 q 265 889 179 889 l 457 889 l 457 663 l 315 663 l 315 225 l 508 225 l 508 589 l 743 589 l 743 225 l 922 225 l 922 663 l 776 663 l 776 889 l 983 889 q 1112 841 1065 889 q 1158 708 1158 793 l 1158 174 z "},"─":{"ha":1389,"x_min":0,"x_max":1389,"o":"m 0 504 l 1389 504 l 1389 413 l 0 413 l 0 504 z "},"│":{"ha":1389,"x_min":646,"x_max":743,"o":"m 646 -236 l 646 1153 l 743 1153 l 743 -236 l 646 -236 z "},"┌":{"ha":1389,"x_min":646,"x_max":1389,"o":"m 743 -236 l 646 -236 l 646 504 l 1389 504 l 1389 413 l 743 413 l 743 -236 z "},"┐":{"ha":1389,"x_min":0,"x_max":743,"o":"m 0 413 l 0 504 l 743 504 l 743 -236 l 646 -236 l 646 413 l 0 413 z "},"┘":{"ha":1389,"x_min":0,"x_max":743,"o":"m 646 504 l 646 1153 l 743 1153 l 743 413 l 0 413 l 0 504 l 646 504 z "},"└":{"ha":1389,"x_min":646,"x_max":1389,"o":"m 1389 504 l 1389 413 l 646 413 l 646 1153 l 743 1153 l 743 504 l 1389 504 z "},"├":{"ha":1389,"x_min":646,"x_max":1389,"o":"m 1389 504 l 1389 413 l 743 413 l 743 -236 l 646 -236 l 646 1153 l 743 1153 l 743 504 l 1389 504 z "},"┬":{"ha":1389,"x_min":0,"x_max":1389,"o":"m 646 -236 l 646 413 l 0 413 l 0 504 l 1389 504 l 1389 413 l 743 413 l 743 -236 l 646 -236 z "},"┤":{"ha":1389,"x_min":0,"x_max":743,"o":"m 646 1153 l 743 1153 l 743 -236 l 646 -236 l 646 413 l 0 413 l 0 504 l 646 504 l 646 1153 z "},"┴":{"ha":1389,"x_min":0,"x_max":1389,"o":"m 646 504 l 646 1153 l 743 1153 l 743 504 l 1389 504 l 1389 413 l 0 413 l 0 504 l 646 504 z "},"┼":{"ha":1389,"x_min":0,"x_max":1389,"o":"m 646 -236 l 646 413 l 0 413 l 0 504 l 646 504 l 646 1153 l 743 1153 l 743 504 l 1389 504 l 1389 413 l 743 413 l 743 -236 l 646 -236 z "},"━":{"ha":1389,"x_min":0,"x_max":1389,"o":"m 0 336 l 0 581 l 1389 581 l 1389 336 l 0 336 z "},"┃":{"ha":1389,"x_min":565,"x_max":824,"o":"m 565 -236 l 565 1153 l 824 1153 l 824 -236 l 565 -236 z "},"┏":{"ha":1389,"x_min":565,"x_max":1389,"o":"m 824 -236 l 565 -236 l 565 581 l 1389 581 l 1389 336 l 824 336 l 824 -236 z "},"┓":{"ha":1389,"x_min":0,"x_max":824,"o":"m 824 581 l 824 -236 l 565 -236 l 565 336 l 0 336 l 0 581 l 824 581 z "},"┛":{"ha":1389,"x_min":0,"x_max":824,"o":"m 0 336 l 0 581 l 565 581 l 565 1153 l 824 1153 l 824 336 l 0 336 z "},"┗":{"ha":1389,"x_min":565,"x_max":1389,"o":"m 824 581 l 1389 581 l 1389 336 l 565 336 l 565 1153 l 824 1153 l 824 581 z "},"┣":{"ha":1389,"x_min":565,"x_max":1389,"o":"m 824 581 l 1389 581 l 1389 336 l 824 336 l 824 -236 l 565 -236 l 565 1153 l 824 1153 l 824 581 z "},"┳":{"ha":1389,"x_min":0,"x_max":1389,"o":"m 1389 581 l 1389 336 l 824 336 l 824 -236 l 565 -236 l 565 336 l 0 336 l 0 581 l 1389 581 z "},"┫":{"ha":1389,"x_min":0,"x_max":824,"o":"m 824 1153 l 824 -236 l 565 -236 l 565 336 l 0 336 l 0 581 l 565 581 l 565 1153 l 824 1153 z "},"┻":{"ha":1389,"x_min":0,"x_max":1389,"o":"m 824 1153 l 824 581 l 1389 581 l 1389 336 l 0 336 l 0 581 l 565 581 l 565 1153 l 824 1153 z "},"╋":{"ha":1389,"x_min":0,"x_max":1389,"o":"m 824 1153 l 824 581 l 1389 581 l 1389 336 l 824 336 l 824 -236 l 565 -236 l 565 336 l 0 336 l 0 581 l 565 581 l 565 1153 l 824 1153 z "},"┠":{"ha":1389,"x_min":565,"x_max":1389,"o":"m 1389 504 l 1389 413 l 824 413 l 824 -236 l 565 -236 l 565 1153 l 824 1153 l 824 504 l 1389 504 z "},"┯":{"ha":1389,"x_min":0,"x_max":1389,"o":"m 1389 581 l 1389 336 l 743 336 l 743 -236 l 646 -236 l 646 336 l 0 336 l 0 581 l 1389 581 z "},"┨":{"ha":1389,"x_min":0,"x_max":824,"o":"m 565 1153 l 824 1153 l 824 -236 l 565 -236 l 565 413 l 0 413 l 0 504 l 565 504 l 565 1153 z "},"┷":{"ha":1389,"x_min":0,"x_max":1389,"o":"m 646 1153 l 743 1153 l 743 581 l 1389 581 l 1389 336 l 0 336 l 0 581 l 646 581 l 646 1153 z "},"┿":{"ha":1389,"x_min":0,"x_max":1389,"o":"m 646 1153 l 743 1153 l 743 581 l 1389 581 l 1389 336 l 743 336 l 743 -236 l 646 -236 l 646 336 l 0 336 l 0 581 l 646 581 l 646 1153 z "},"┝":{"ha":1389,"x_min":646,"x_max":1389,"o":"m 1389 581 l 1389 336 l 743 336 l 743 -236 l 646 -236 l 646 1153 l 743 1153 l 743 581 l 1389 581 z "},"┰":{"ha":1389,"x_min":0,"x_max":1389,"o":"m 1389 504 l 1389 413 l 824 413 l 824 -236 l 565 -236 l 565 413 l 0 413 l 0 504 l 1389 504 z "},"┥":{"ha":1389,"x_min":0,"x_max":743,"o":"m 646 1153 l 743 1153 l 743 -236 l 646 -236 l 646 336 l 0 336 l 0 581 l 646 581 l 646 1153 z "},"┸":{"ha":1389,"x_min":0,"x_max":1389,"o":"m 565 1153 l 824 1153 l 824 504 l 1389 504 l 1389 413 l 0 413 l 0 504 l 565 504 l 565 1153 z "},"╂":{"ha":1389,"x_min":0,"x_max":1389,"o":"m 565 1153 l 824 1153 l 824 504 l 1389 504 l 1389 413 l 824 413 l 824 -236 l 565 -236 l 565 413 l 0 413 l 0 504 l 565 504 l 565 1153 z "},"┒":{"ha":1389,"x_min":0,"x_max":824,"o":"m 565 -236 l 565 413 l 0 413 l 0 504 l 824 504 l 824 -236 l 565 -236 z "},"┑":{"ha":1389,"x_min":0,"x_max":743,"o":"m 646 336 l 0 336 l 0 581 l 743 581 l 743 -236 l 646 -236 l 646 336 z "},"┚":{"ha":1389,"x_min":0,"x_max":824,"o":"m 565 1153 l 824 1153 l 824 413 l 0 413 l 0 504 l 565 504 l 565 1153 z "},"┙":{"ha":1389,"x_min":0,"x_max":743,"o":"m 743 336 l 0 336 l 0 581 l 646 581 l 646 1153 l 743 1153 l 743 336 z "},"┖":{"ha":1389,"x_min":565,"x_max":1389,"o":"m 1389 504 l 1389 413 l 565 413 l 565 1153 l 824 1153 l 824 504 l 1389 504 z "},"┕":{"ha":1389,"x_min":646,"x_max":1389,"o":"m 1389 581 l 1389 336 l 646 336 l 646 1153 l 743 1153 l 743 581 l 1389 581 z "},"┎":{"ha":1389,"x_min":565,"x_max":1389,"o":"m 1389 413 l 824 413 l 824 -236 l 565 -236 l 565 504 l 1389 504 l 1389 413 z "},"┍":{"ha":1389,"x_min":646,"x_max":1389,"o":"m 1389 336 l 743 336 l 743 -236 l 646 -236 l 646 581 l 1389 581 l 1389 336 z "},"┞":{"ha":1389,"x_min":565,"x_max":1389,"o":"m 743 413 l 743 -236 l 646 -236 l 646 413 l 565 413 l 565 1153 l 824 1153 l 824 504 l 1389 504 l 1389 413 l 743 413 z "},"┟":{"ha":1389,"x_min":565,"x_max":1389,"o":"m 646 1153 l 743 1153 l 743 504 l 1389 504 l 1389 413 l 824 413 l 824 -236 l 565 -236 l 565 504 l 646 504 l 646 1153 z "},"┡":{"ha":1389,"x_min":565,"x_max":1389,"o":"m 824 1153 l 824 581 l 1389 581 l 1389 336 l 743 336 l 743 -236 l 646 -236 l 646 336 l 565 336 l 565 1153 l 824 1153 z "},"┢":{"ha":1389,"x_min":565,"x_max":1389,"o":"m 824 336 l 824 -236 l 565 -236 l 565 581 l 646 581 l 646 1153 l 743 1153 l 743 581 l 1389 581 l 1389 336 l 824 336 z "},"┦":{"ha":1389,"x_min":0,"x_max":824,"o":"m 565 1153 l 824 1153 l 824 413 l 743 413 l 743 -236 l 646 -236 l 646 413 l 0 413 l 0 504 l 565 504 l 565 1153 z "},"┧":{"ha":1389,"x_min":0,"x_max":824,"o":"m 565 -236 l 565 413 l 0 413 l 0 504 l 646 504 l 646 1153 l 743 1153 l 743 504 l 824 504 l 824 -236 l 565 -236 z "},"┩":{"ha":1389,"x_min":0,"x_max":824,"o":"m 743 -236 l 646 -236 l 646 336 l 0 336 l 0 581 l 565 581 l 565 1153 l 824 1153 l 824 336 l 743 336 l 743 -236 z "},"┪":{"ha":1389,"x_min":0,"x_max":824,"o":"m 646 1153 l 743 1153 l 743 581 l 824 581 l 824 -236 l 565 -236 l 565 336 l 0 336 l 0 581 l 646 581 l 646 1153 z "},"┭":{"ha":1389,"x_min":0,"x_max":1389,"o":"m 824 413 l 824 336 l 743 336 l 743 -236 l 646 -236 l 646 336 l 0 336 l 0 581 l 824 581 l 824 504 l 1389 504 l 1389 413 l 824 413 z "},"┮":{"ha":1389,"x_min":0,"x_max":1389,"o":"m 565 581 l 1389 581 l 1389 336 l 743 336 l 743 -236 l 646 -236 l 646 336 l 565 336 l 565 413 l 0 413 l 0 504 l 565 504 l 565 581 z "},"┱":{"ha":1389,"x_min":0,"x_max":1389,"o":"m 824 504 l 1389 504 l 1389 413 l 824 413 l 824 -236 l 565 -236 l 565 336 l 0 336 l 0 581 l 824 581 l 824 504 z "},"┲":{"ha":1389,"x_min":0,"x_max":1389,"o":"m 565 581 l 1389 581 l 1389 336 l 824 336 l 824 -236 l 565 -236 l 565 413 l 0 413 l 0 504 l 565 504 l 565 581 z "},"┵":{"ha":1389,"x_min":0,"x_max":1389,"o":"m 646 1153 l 743 1153 l 743 581 l 824 581 l 824 504 l 1389 504 l 1389 413 l 824 413 l 824 336 l 0 336 l 0 581 l 646 581 l 646 1153 z "},"┶":{"ha":1389,"x_min":0,"x_max":1389,"o":"m 565 581 l 646 581 l 646 1153 l 743 1153 l 743 581 l 1389 581 l 1389 336 l 565 336 l 565 413 l 0 413 l 0 504 l 565 504 l 565 581 z "},"┹":{"ha":1389,"x_min":0,"x_max":1389,"o":"m 1389 504 l 1389 413 l 824 413 l 824 336 l 0 336 l 0 581 l 565 581 l 565 1153 l 824 1153 l 824 504 l 1389 504 z "},"┺":{"ha":1389,"x_min":0,"x_max":1389,"o":"m 565 1153 l 824 1153 l 824 581 l 1389 581 l 1389 336 l 565 336 l 565 413 l 0 413 l 0 504 l 565 504 l 565 1153 z "},"┽":{"ha":1389,"x_min":0,"x_max":1389,"o":"m 646 1153 l 743 1153 l 743 581 l 824 581 l 824 504 l 1389 504 l 1389 413 l 824 413 l 824 336 l 743 336 l 743 -236 l 646 -236 l 646 336 l 0 336 l 0 581 l 646 581 l 646 1153 z "},"┾":{"ha":1389,"x_min":0,"x_max":1389,"o":"m 565 581 l 646 581 l 646 1153 l 743 1153 l 743 581 l 1389 581 l 1389 336 l 743 336 l 743 -236 l 646 -236 l 646 336 l 565 336 l 565 413 l 0 413 l 0 504 l 565 504 l 565 581 z "},"╀":{"ha":1389,"x_min":0,"x_max":1389,"o":"m 565 1153 l 824 1153 l 824 504 l 1389 504 l 1389 413 l 743 413 l 743 -236 l 646 -236 l 646 413 l 0 413 l 0 504 l 565 504 l 565 1153 z "},"╁":{"ha":1389,"x_min":0,"x_max":1389,"o":"m 824 413 l 824 -236 l 565 -236 l 565 413 l 0 413 l 0 504 l 646 504 l 646 1153 l 743 1153 l 743 504 l 1389 504 l 1389 413 l 824 413 z "},"╃":{"ha":1389,"x_min":0,"x_max":1389,"o":"m 565 1153 l 824 1153 l 824 504 l 1389 504 l 1389 413 l 824 413 l 824 336 l 743 336 l 743 -236 l 646 -236 l 646 336 l 0 336 l 0 581 l 565 581 l 565 1153 z "},"╄":{"ha":1389,"x_min":0,"x_max":1389,"o":"m 824 581 l 1389 581 l 1389 336 l 743 336 l 743 -236 l 646 -236 l 646 336 l 565 336 l 565 413 l 0 413 l 0 504 l 565 504 l 565 1153 l 824 1153 l 824 581 z "},"╅":{"ha":1389,"x_min":0,"x_max":1389,"o":"m 646 1153 l 743 1153 l 743 581 l 824 581 l 824 504 l 1389 504 l 1389 413 l 824 413 l 824 -236 l 565 -236 l 565 336 l 0 336 l 0 581 l 646 581 l 646 1153 z "},"╆":{"ha":1389,"x_min":0,"x_max":1389,"o":"m 565 581 l 646 581 l 646 1153 l 743 1153 l 743 581 l 1389 581 l 1389 336 l 824 336 l 824 -236 l 565 -236 l 565 413 l 0 413 l 0 504 l 565 504 l 565 581 z "},"╇":{"ha":1389,"x_min":0,"x_max":1389,"o":"m 565 581 l 565 1153 l 824 1153 l 824 581 l 1389 581 l 1389 336 l 743 336 l 743 -236 l 646 -236 l 646 336 l 0 336 l 0 581 l 565 581 z "},"╈":{"ha":1389,"x_min":0,"x_max":1389,"o":"m 646 1153 l 743 1153 l 743 581 l 1389 581 l 1389 336 l 824 336 l 824 -236 l 565 -236 l 565 336 l 0 336 l 0 581 l 646 581 l 646 1153 z "},"╉":{"ha":1389,"x_min":0,"x_max":1389,"o":"m 565 1153 l 824 1153 l 824 504 l 1389 504 l 1389 413 l 824 413 l 824 -236 l 565 -236 l 565 336 l 0 336 l 0 581 l 565 581 l 565 1153 z "},"╊":{"ha":1389,"x_min":0,"x_max":1389,"o":"m 1389 581 l 1389 336 l 824 336 l 824 -236 l 565 -236 l 565 413 l 0 413 l 0 504 l 565 504 l 565 1153 l 824 1153 l 824 581 l 1389 581 z "},"㎕":{"ha":1528,"x_min":40,"x_max":1475,"o":"m 364 225 l 546 225 l 664 889 l 900 889 l 782 225 l 850 225 l 804 286 q 1003 449 918 374 l 1003 875 q 1064 1114 1003 1033 q 1247 1194 1125 1194 q 1420 1117 1365 1194 q 1475 925 1475 1039 q 1221 379 1469 636 l 1221 225 l 1400 225 l 1400 0 l 1179 0 q 1051 47 1097 0 q 1004 174 1004 94 l 1004 192 l 922 131 l 876 192 l 843 0 l 724 0 q 602 36 650 0 q 543 133 554 72 l 422 0 l 324 0 l 276 -269 l 40 -269 l 244 889 l 481 889 l 364 225 m 1211 625 q 1265 778 1247 699 q 1283 929 1283 858 q 1276 969 1283 957 q 1253 982 1268 982 q 1223 942 1235 982 q 1211 818 1211 901 l 1211 625 z "},"㎖":{"ha":1667,"x_min":108,"x_max":1590,"o":"m 108 715 q 155 842 108 794 q 283 889 201 889 l 951 889 l 951 311 q 1118 449 1068 404 l 1118 875 q 1179 1114 1118 1033 q 1363 1194 1240 1194 q 1535 1117 1481 1194 q 1590 925 1590 1039 q 1336 379 1585 636 l 1336 225 l 1515 225 l 1515 0 l 1294 0 q 1166 47 1213 0 q 1119 174 1119 94 l 1119 192 l 1038 131 l 951 244 l 951 0 l 729 0 l 729 692 l 640 692 l 640 0 l 418 0 l 418 692 l 331 692 l 331 0 l 108 0 l 108 715 m 1326 625 q 1381 778 1363 699 q 1399 929 1399 858 q 1391 969 1399 957 q 1368 982 1383 982 q 1338 942 1350 982 q 1326 818 1326 901 l 1326 625 z "},"㎗":{"ha":1389,"x_min":60,"x_max":1346,"o":"m 756 350 l 874 449 l 874 875 q 935 1114 874 1033 q 1118 1194 996 1194 q 1291 1117 1236 1194 q 1346 925 1346 1039 q 1092 379 1340 636 l 1092 225 l 1271 225 l 1271 0 l 1050 0 q 922 47 968 0 q 875 174 875 94 l 875 192 l 793 131 l 756 181 l 756 0 l 519 0 l 519 128 l 410 0 l 235 0 q 106 47 153 0 q 60 174 60 94 l 60 715 q 106 842 60 794 q 235 889 153 889 l 519 889 l 519 1186 l 756 1186 l 756 350 m 519 678 l 296 678 l 296 211 l 519 211 l 519 678 m 1082 625 q 1136 778 1118 699 q 1154 929 1154 858 q 1147 969 1154 957 q 1124 982 1139 982 q 1094 942 1106 982 q 1082 818 1082 901 l 1082 625 z "},"ℓ":{"ha":764,"x_min":4,"x_max":675,"o":"m 4 286 q 203 449 118 374 l 203 875 q 264 1114 203 1033 q 447 1194 325 1194 q 620 1117 565 1194 q 675 925 675 1039 q 604 649 672 783 q 421 379 536 514 l 421 225 l 600 225 l 600 0 l 379 0 q 251 47 297 0 q 204 174 204 94 l 204 192 l 122 131 l 4 286 m 411 639 q 483 929 483 789 q 476 969 483 957 q 453 982 468 982 q 411 832 411 982 l 411 639 z "},"㎘":{"ha":1389,"x_min":90,"x_max":1346,"o":"m 328 589 l 374 589 l 526 889 l 785 889 l 569 478 l 797 0 l 532 0 l 358 376 l 328 376 l 328 0 l 90 0 l 90 1186 l 328 1186 l 328 589 m 675 286 q 874 449 789 374 l 874 875 q 935 1114 874 1033 q 1118 1194 996 1194 q 1291 1117 1236 1194 q 1346 925 1346 1039 q 1092 379 1340 636 l 1092 225 l 1271 225 l 1271 0 l 1050 0 q 922 47 968 0 q 875 174 875 94 l 875 192 l 793 131 l 675 286 m 1082 625 q 1136 778 1118 699 q 1154 929 1154 858 q 1147 969 1154 957 q 1124 982 1139 982 q 1094 942 1106 982 q 1082 818 1082 901 l 1082 625 z "},"㏄":{"ha":1389,"x_min":72,"x_max":1376,"o":"m 658 211 l 658 0 l 247 0 q 119 47 165 0 q 72 174 72 94 l 72 715 q 119 842 72 794 q 247 889 165 889 l 714 889 l 558 678 l 318 678 l 318 211 l 658 211 m 1321 211 l 1321 0 l 910 0 q 781 47 828 0 q 735 174 735 94 l 735 715 q 781 842 735 794 q 910 889 828 889 l 1376 889 l 1221 678 l 981 678 l 981 211 l 1321 211 z "},"㎣":{"ha":1667,"x_min":54,"x_max":1633,"o":"m 336 0 l 336 692 l 258 692 l 258 0 l 54 0 l 54 715 q 98 842 54 794 q 217 889 142 889 l 814 889 l 814 0 l 614 0 l 614 692 l 536 692 l 536 0 l 336 0 m 1136 0 l 1136 692 l 1058 692 l 1058 0 l 854 0 l 854 715 q 898 842 854 794 q 1017 889 942 889 l 1614 889 l 1614 0 l 1414 0 l 1414 692 l 1336 692 l 1336 0 l 1136 0 m 1431 1081 l 1501 1081 l 1501 1164 l 1392 1164 l 1392 1264 l 1496 1264 l 1496 1329 l 1431 1329 l 1431 1292 l 1301 1292 l 1301 1343 q 1330 1420 1301 1389 q 1408 1451 1358 1451 l 1521 1451 q 1599 1421 1571 1451 q 1628 1343 1628 1390 l 1628 1276 q 1607 1218 1628 1239 q 1633 1150 1633 1193 l 1633 1067 q 1605 990 1633 1019 q 1526 960 1576 960 l 1408 960 q 1330 990 1358 960 q 1301 1067 1301 1021 l 1301 1133 l 1431 1133 l 1431 1081 z "},"㎤":{"ha":1667,"x_min":72,"x_max":1606,"o":"m 1057 0 l 1057 692 l 957 692 l 957 0 l 735 0 l 735 715 q 781 842 735 794 q 910 889 828 889 l 1601 889 l 1601 0 l 1379 0 l 1379 692 l 1279 692 l 1279 0 l 1057 0 m 658 211 l 658 0 l 247 0 q 119 47 165 0 q 72 174 72 94 l 72 715 q 119 842 72 794 q 247 889 165 889 l 714 889 l 558 678 l 318 678 l 318 211 l 658 211 m 1403 1081 l 1474 1081 l 1474 1164 l 1364 1164 l 1364 1264 l 1468 1264 l 1468 1329 l 1403 1329 l 1403 1292 l 1274 1292 l 1274 1343 q 1302 1420 1274 1389 q 1381 1451 1331 1451 l 1493 1451 q 1572 1421 1543 1451 q 1600 1343 1600 1390 l 1600 1276 q 1579 1218 1600 1239 q 1606 1150 1606 1193 l 1606 1067 q 1577 990 1606 1019 q 1499 960 1549 960 l 1381 960 q 1302 990 1331 960 q 1274 1067 1274 1021 l 1274 1133 l 1403 1133 l 1403 1081 z "},"㎥":{"ha":1389,"x_min":83,"x_max":1329,"o":"m 488 0 l 488 664 l 322 664 l 322 0 l 83 0 l 83 715 q 130 842 83 794 q 258 889 176 889 l 1122 889 l 1122 0 l 888 0 l 888 664 l 722 664 l 722 0 l 488 0 m 1126 1081 l 1197 1081 l 1197 1164 l 1088 1164 l 1088 1264 l 1192 1264 l 1192 1329 l 1126 1329 l 1126 1292 l 997 1292 l 997 1343 q 1026 1420 997 1389 q 1104 1451 1054 1451 l 1217 1451 q 1295 1421 1267 1451 q 1324 1343 1324 1390 l 1324 1276 q 1303 1218 1324 1239 q 1329 1150 1329 1193 l 1329 1067 q 1301 990 1329 1019 q 1222 960 1272 960 l 1104 960 q 1026 990 1054 960 q 997 1067 997 1021 l 997 1133 l 1126 1133 l 1126 1081 z "},"㎦":{"ha":1667,"x_min":67,"x_max":1647,"o":"m 1092 0 l 1092 692 l 1004 692 l 1004 0 l 782 0 l 782 715 q 828 842 782 794 q 957 889 875 889 l 1625 889 l 1625 0 l 1403 0 l 1403 692 l 1314 692 l 1314 0 l 1092 0 m 304 589 l 350 589 l 503 889 l 761 889 l 544 478 l 774 0 l 508 0 l 333 376 l 304 376 l 304 0 l 67 0 l 67 1186 l 304 1186 l 304 589 m 1444 1081 l 1515 1081 l 1515 1164 l 1406 1164 l 1406 1264 l 1510 1264 l 1510 1329 l 1444 1329 l 1444 1292 l 1315 1292 l 1315 1343 q 1344 1420 1315 1389 q 1422 1451 1372 1451 l 1535 1451 q 1613 1421 1585 1451 q 1642 1343 1642 1390 l 1642 1276 q 1621 1218 1642 1239 q 1647 1150 1647 1193 l 1647 1067 q 1619 990 1647 1019 q 1540 960 1590 960 l 1422 960 q 1344 990 1372 960 q 1315 1067 1315 1021 l 1315 1133 l 1444 1133 l 1444 1081 z "},"㎙":{"ha":1528,"x_min":35,"x_max":1493,"o":"m 169 0 l 169 633 l 35 633 l 35 842 l 169 842 l 169 1013 q 216 1139 169 1092 q 344 1186 263 1186 l 729 1186 l 563 967 l 422 967 l 422 842 l 672 842 q 801 889 722 889 l 1493 889 l 1493 0 l 1271 0 l 1271 692 l 1171 692 l 1171 0 l 949 0 l 949 692 l 849 692 l 849 0 l 626 0 l 626 715 q 628 744 626 735 l 539 633 l 422 633 l 422 0 l 169 0 z "},"㎚":{"ha":1667,"x_min":72,"x_max":1625,"o":"m 1114 0 l 1114 692 l 1031 692 l 1031 0 l 811 0 l 811 715 q 858 842 811 794 q 985 889 904 889 l 1625 889 l 1625 0 l 1411 0 l 1411 692 l 1328 692 l 1328 0 l 1114 0 m 72 715 q 119 842 72 794 q 247 889 165 889 l 721 889 l 721 0 l 485 0 l 485 678 l 308 678 l 308 0 l 72 0 l 72 715 z "},"㎛":{"ha":1667,"x_min":-57,"x_max":1625,"o":"m 1135 0 l 1135 692 l 1054 692 l 1054 0 l 844 0 l 844 715 q 889 842 844 794 q 1011 889 933 889 l 1625 889 l 1625 0 l 1419 0 l 1419 692 l 1340 692 l 1340 0 l 1135 0 m 626 0 q 505 35 553 0 q 446 133 457 71 l 325 0 l 226 0 l 179 -269 l -57 -269 l 147 889 l 383 889 l 265 225 l 449 225 l 567 889 l 803 889 l 685 225 l 785 225 l 746 0 l 626 0 z "},"㎜":{"ha":1667,"x_min":54,"x_max":1614,"o":"m 336 0 l 336 692 l 258 692 l 258 0 l 54 0 l 54 715 q 98 842 54 794 q 217 889 142 889 l 814 889 l 814 0 l 614 0 l 614 692 l 536 692 l 536 0 l 336 0 m 1136 0 l 1136 692 l 1058 692 l 1058 0 l 854 0 l 854 715 q 898 842 854 794 q 1017 889 942 889 l 1614 889 l 1614 0 l 1414 0 l 1414 692 l 1336 692 l 1336 0 l 1136 0 z "},"㎝":{"ha":1667,"x_min":72,"x_max":1601,"o":"m 1057 0 l 1057 692 l 957 692 l 957 0 l 735 0 l 735 715 q 781 842 735 794 q 910 889 828 889 l 1601 889 l 1601 0 l 1379 0 l 1379 692 l 1279 692 l 1279 0 l 1057 0 m 658 211 l 658 0 l 247 0 q 119 47 165 0 q 72 174 72 94 l 72 715 q 119 842 72 794 q 247 889 165 889 l 714 889 l 558 678 l 318 678 l 318 211 l 658 211 z "},"㎞":{"ha":1667,"x_min":67,"x_max":1625,"o":"m 1092 0 l 1092 692 l 1004 692 l 1004 0 l 782 0 l 782 715 q 828 842 782 794 q 957 889 875 889 l 1625 889 l 1625 0 l 1403 0 l 1403 692 l 1314 692 l 1314 0 l 1092 0 m 304 589 l 350 589 l 503 889 l 761 889 l 544 478 l 774 0 l 508 0 l 333 376 l 304 376 l 304 0 l 67 0 l 67 1186 l 304 1186 l 304 589 z "},"㎟":{"ha":1667,"x_min":54,"x_max":1633,"o":"m 336 0 l 336 692 l 258 692 l 258 0 l 54 0 l 54 715 q 98 842 54 794 q 217 889 142 889 l 814 889 l 814 0 l 614 0 l 614 692 l 536 692 l 536 0 l 336 0 m 1136 0 l 1136 692 l 1058 692 l 1058 0 l 854 0 l 854 715 q 898 842 854 794 q 1017 889 942 889 l 1614 889 l 1614 0 l 1414 0 l 1414 692 l 1336 692 l 1336 0 l 1136 0 m 1518 1451 q 1596 1421 1568 1451 q 1624 1344 1624 1390 l 1624 1272 q 1617 1224 1624 1244 q 1590 1183 1610 1204 l 1493 1081 l 1633 1081 l 1633 960 l 1308 960 l 1308 1056 l 1488 1260 q 1493 1288 1493 1269 l 1493 1331 l 1432 1331 l 1432 1268 l 1303 1268 l 1303 1344 q 1331 1422 1303 1392 q 1411 1451 1360 1451 l 1518 1451 z "},"㎠":{"ha":1667,"x_min":72,"x_max":1619,"o":"m 1057 0 l 1057 692 l 957 692 l 957 0 l 735 0 l 735 715 q 781 842 735 794 q 910 889 828 889 l 1601 889 l 1601 0 l 1379 0 l 1379 692 l 1279 692 l 1279 0 l 1057 0 m 658 211 l 658 0 l 247 0 q 119 47 165 0 q 72 174 72 94 l 72 715 q 119 842 72 794 q 247 889 165 889 l 714 889 l 558 678 l 318 678 l 318 211 l 658 211 m 1504 1451 q 1582 1421 1554 1451 q 1610 1344 1610 1390 l 1610 1272 q 1603 1224 1610 1244 q 1576 1183 1596 1204 l 1479 1081 l 1619 1081 l 1619 960 l 1294 960 l 1294 1056 l 1474 1260 q 1479 1288 1479 1269 l 1479 1331 l 1418 1331 l 1418 1268 l 1289 1268 l 1289 1344 q 1317 1422 1289 1392 q 1397 1451 1346 1451 l 1504 1451 z "},"㎡":{"ha":1389,"x_min":83,"x_max":1272,"o":"m 488 0 l 488 664 l 322 664 l 322 0 l 83 0 l 83 715 q 130 842 83 794 q 258 889 176 889 l 1122 889 l 1122 0 l 888 0 l 888 664 l 722 664 l 722 0 l 488 0 m 1157 1451 q 1235 1421 1207 1451 q 1263 1344 1263 1390 l 1263 1272 q 1256 1224 1263 1244 q 1229 1183 1249 1204 l 1132 1081 l 1272 1081 l 1272 960 l 947 960 l 947 1056 l 1126 1260 q 1132 1288 1132 1269 l 1132 1331 l 1071 1331 l 1071 1268 l 942 1268 l 942 1344 q 970 1422 942 1392 q 1050 1451 999 1451 l 1157 1451 z "},"㎢":{"ha":1667,"x_min":67,"x_max":1647,"o":"m 1092 0 l 1092 692 l 1004 692 l 1004 0 l 782 0 l 782 715 q 828 842 782 794 q 957 889 875 889 l 1625 889 l 1625 0 l 1403 0 l 1403 692 l 1314 692 l 1314 0 l 1092 0 m 304 589 l 350 589 l 503 889 l 761 889 l 544 478 l 774 0 l 508 0 l 333 376 l 304 376 l 304 0 l 67 0 l 67 1186 l 304 1186 l 304 589 m 1532 1451 q 1610 1421 1582 1451 q 1638 1344 1638 1390 l 1638 1272 q 1631 1224 1638 1244 q 1604 1183 1624 1204 l 1507 1081 l 1647 1081 l 1647 960 l 1322 960 l 1322 1056 l 1501 1260 q 1507 1288 1507 1269 l 1507 1331 l 1446 1331 l 1446 1268 l 1317 1268 l 1317 1344 q 1345 1422 1317 1392 q 1425 1451 1374 1451 l 1532 1451 z "},"㏊":{"ha":1667,"x_min":90,"x_max":1608,"o":"m 1057 0 q 932 47 978 0 q 886 174 886 94 l 886 715 q 932 842 886 794 q 1057 889 978 889 l 1608 889 l 1608 0 l 1364 0 l 1364 138 l 1257 0 l 1057 0 m 563 663 l 340 663 l 340 0 l 90 0 l 90 1186 l 340 1186 l 340 889 l 642 889 q 767 842 721 889 q 813 715 813 794 l 813 0 l 563 0 l 563 663 m 1131 664 l 1131 225 l 1364 225 l 1364 664 l 1131 664 z "},"㎍":{"ha":1667,"x_min":68,"x_max":1594,"o":"m 1154 78 q 1026 125 1072 78 q 979 251 979 172 l 979 715 q 1026 842 979 794 q 1154 889 1072 889 l 1594 889 l 1594 -54 q 1535 -210 1594 -150 q 1378 -269 1475 -269 l 982 -269 l 1117 -61 l 1358 -61 l 1358 207 l 1261 78 l 1154 78 m 751 0 q 630 35 678 0 q 571 133 582 71 l 450 0 l 351 0 l 304 -269 l 68 -269 l 272 889 l 508 889 l 390 225 l 574 225 l 692 889 l 928 889 l 810 225 l 910 225 l 871 0 l 751 0 m 1215 683 l 1215 279 l 1358 279 l 1358 683 l 1215 683 z "},"㎎":{"ha":1667,"x_min":67,"x_max":1594,"o":"m 376 0 l 376 692 l 289 692 l 289 0 l 67 0 l 67 715 q 113 842 67 794 q 242 889 160 889 l 910 889 l 910 0 l 688 0 l 688 692 l 599 692 l 599 0 l 376 0 m 1154 78 q 1026 125 1072 78 q 979 251 979 172 l 979 715 q 1026 842 979 794 q 1154 889 1072 889 l 1594 889 l 1594 -54 q 1535 -210 1594 -150 q 1378 -269 1475 -269 l 982 -269 l 1117 -61 l 1358 -61 l 1358 207 l 1261 78 l 1154 78 m 1215 683 l 1215 279 l 1358 279 l 1358 683 l 1215 683 z "},"㎏":{"ha":1528,"x_min":125,"x_max":1463,"o":"m 1022 78 q 894 125 940 78 q 847 251 847 172 l 847 715 q 894 842 847 794 q 1022 889 940 889 l 1463 889 l 1463 -54 q 1403 -210 1463 -150 q 1246 -269 1343 -269 l 850 -269 l 985 -61 l 1226 -61 l 1226 207 l 1129 78 l 1022 78 m 368 589 l 413 589 l 594 889 l 857 889 l 601 481 l 874 0 l 600 0 l 401 363 l 368 363 l 368 0 l 125 0 l 125 1186 l 368 1186 l 368 589 m 1083 683 l 1083 279 l 1226 279 l 1226 683 l 1083 683 z "},"㏏":{"ha":1389,"x_min":67,"x_max":1406,"o":"m 304 589 l 346 589 l 489 889 l 747 889 l 544 479 l 760 0 l 494 0 l 332 376 l 304 376 l 304 0 l 67 0 l 67 1186 l 304 1186 l 304 589 m 1333 239 l 1333 0 l 1065 0 q 937 47 983 0 q 890 174 890 94 l 890 653 l 749 653 l 749 889 l 890 889 l 890 1131 l 1136 1131 l 1136 889 l 1406 889 l 1232 653 l 1136 653 l 1136 239 l 1333 239 z "},"㎈":{"ha":1667,"x_min":61,"x_max":1647,"o":"m 808 0 q 680 47 726 0 q 633 174 633 94 l 633 715 q 680 842 633 794 q 808 889 726 889 l 1233 889 l 1233 0 l 997 0 l 997 142 l 901 0 l 808 0 m 564 211 l 564 0 l 236 0 q 108 47 154 0 q 61 174 61 94 l 61 715 q 108 842 61 794 q 236 889 154 889 l 619 889 l 467 678 l 306 678 l 306 211 l 564 211 m 1504 0 q 1376 47 1422 0 q 1329 174 1329 94 l 1329 1186 l 1571 1186 l 1571 225 l 1647 225 l 1647 0 l 1504 0 m 869 678 l 869 211 l 997 211 l 997 678 l 869 678 z "},"㎉":{"ha":1667,"x_min":56,"x_max":1653,"o":"m 233 589 l 253 589 l 378 889 l 569 889 l 393 482 l 581 0 l 381 0 l 244 363 l 233 363 l 233 0 l 56 0 l 56 1186 l 233 1186 l 233 589 m 1064 0 q 976 47 1008 0 q 944 174 944 94 l 944 715 q 976 842 944 794 q 1064 889 1008 889 l 1369 889 l 1369 0 l 1197 0 l 1197 149 l 1128 0 l 1064 0 m 904 218 l 904 0 l 679 0 q 590 47 622 0 q 558 174 558 93 l 558 715 q 590 842 558 796 q 679 889 622 889 l 942 889 l 835 671 l 738 671 l 738 218 l 904 218 m 1542 0 q 1454 47 1486 0 q 1422 174 1422 94 l 1422 1186 l 1599 1186 l 1599 211 l 1653 211 l 1653 0 l 1542 0 m 1118 657 l 1118 232 l 1197 232 l 1197 657 l 1118 657 z "},"㏈":{"ha":1667,"x_min":60,"x_max":1607,"o":"m 1418 1131 q 1552 1083 1515 1131 q 1589 932 1589 1035 l 1589 714 q 1508 575 1589 629 q 1583 519 1560 556 q 1607 425 1607 483 l 1607 179 q 1558 48 1607 96 q 1424 0 1510 0 l 869 0 l 869 756 l 1008 918 l 785 918 l 939 1131 l 1418 1131 m 235 0 q 106 47 153 0 q 60 174 60 94 l 60 715 q 106 842 60 794 q 235 889 153 889 l 519 889 l 519 1186 l 756 1186 l 756 0 l 519 0 l 519 128 l 410 0 l 235 0 m 296 678 l 296 211 l 519 211 l 519 678 l 296 678 m 1114 213 l 1363 213 l 1363 465 l 1114 465 l 1114 213 m 1344 676 l 1344 918 l 1114 918 l 1114 676 l 1344 676 z "},"㎧":{"ha":1667,"x_min":99,"x_max":1578,"o":"m 338 522 l 338 1025 l 272 1025 l 272 522 l 99 522 l 99 1064 q 127 1159 99 1124 q 206 1194 156 1194 l 744 1194 l 744 522 l 574 522 l 574 1025 l 508 1025 l 508 522 l 338 522 m 1074 542 q 1106 637 1074 601 q 1194 672 1138 672 l 1578 672 l 1456 492 l 1246 492 l 1246 413 l 1539 413 l 1539 132 q 1506 35 1539 71 q 1418 0 1474 0 l 1068 0 l 1068 181 l 1351 181 l 1351 261 l 1074 261 l 1074 542 m 789 -56 l 589 -56 l 1018 1186 l 1218 1186 l 789 -56 z "},"㎨":{"ha":1667,"x_min":99,"x_max":1633,"o":"m 338 522 l 338 1025 l 272 1025 l 272 522 l 99 522 l 99 1064 q 127 1159 99 1124 q 206 1194 156 1194 l 744 1194 l 744 522 l 574 522 l 574 1025 l 508 1025 l 508 522 l 338 522 m 1074 542 q 1106 637 1074 601 q 1194 672 1138 672 l 1578 672 l 1456 492 l 1246 492 l 1246 413 l 1539 413 l 1539 132 q 1506 35 1539 71 q 1418 0 1474 0 l 1068 0 l 1068 181 l 1351 181 l 1351 261 l 1074 261 l 1074 542 m 789 -56 l 589 -56 l 1018 1186 l 1218 1186 l 789 -56 m 1518 1285 q 1596 1254 1568 1285 q 1624 1178 1624 1224 l 1624 1106 q 1617 1058 1624 1078 q 1590 1017 1610 1038 l 1493 914 l 1633 914 l 1633 793 l 1308 793 l 1308 889 l 1488 1093 q 1493 1121 1493 1103 l 1493 1164 l 1432 1164 l 1432 1101 l 1303 1101 l 1303 1178 q 1331 1255 1303 1225 q 1411 1285 1360 1285 l 1518 1285 z "},"㎰":{"ha":1528,"x_min":65,"x_max":1514,"o":"m 586 889 q 715 842 668 889 q 761 715 761 794 l 761 174 q 715 47 761 94 q 586 0 668 0 l 301 0 l 301 -269 l 65 -269 l 65 889 l 301 889 l 301 739 l 411 889 l 586 889 m 840 715 q 887 842 840 794 q 1015 889 933 889 l 1514 889 l 1357 682 l 1063 682 l 1063 546 l 1457 546 l 1457 174 q 1410 47 1457 94 q 1282 0 1364 0 l 833 0 l 833 207 l 1235 207 l 1235 346 l 840 346 l 840 715 m 525 211 l 525 678 l 301 678 l 301 211 l 525 211 z "},"㎱":{"ha":1528,"x_min":75,"x_max":1510,"o":"m 75 715 q 122 842 75 794 q 250 889 168 889 l 724 889 l 724 0 l 488 0 l 488 678 l 311 678 l 311 0 l 75 0 l 75 715 m 808 715 q 855 842 808 794 q 983 889 901 889 l 1510 889 l 1339 668 l 1044 668 l 1044 551 l 1453 551 l 1453 174 q 1406 47 1453 94 q 1278 0 1360 0 l 801 0 l 801 221 l 1217 221 l 1217 344 l 808 344 l 808 715 z "},"㎲":{"ha":1528,"x_min":-57,"x_max":1551,"o":"m 626 0 q 505 35 553 0 q 446 133 457 71 l 325 0 l 226 0 l 179 -269 l -57 -269 l 147 889 l 383 889 l 265 225 l 449 225 l 567 889 l 803 889 l 685 225 l 785 225 l 746 0 l 626 0 m 850 715 q 897 842 850 794 q 1025 889 943 889 l 1551 889 l 1381 668 l 1086 668 l 1086 551 l 1494 551 l 1494 174 q 1448 47 1494 94 q 1319 0 1401 0 l 843 0 l 843 221 l 1258 221 l 1258 344 l 850 344 l 850 715 z "},"㎳":{"ha":1667,"x_min":44,"x_max":1644,"o":"m 354 0 l 354 692 l 267 692 l 267 0 l 44 0 l 44 715 q 91 842 44 794 q 219 889 138 889 l 888 889 l 888 0 l 665 0 l 665 692 l 576 692 l 576 0 l 354 0 m 943 715 q 990 842 943 794 q 1118 889 1036 889 l 1644 889 l 1474 668 l 1179 668 l 1179 551 l 1588 551 l 1588 174 q 1541 47 1588 94 q 1413 0 1494 0 l 936 0 l 936 221 l 1351 221 l 1351 344 l 943 344 l 943 715 z "},"㎴":{"ha":1667,"x_min":79,"x_max":1632,"o":"m 600 889 q 728 842 682 889 q 775 715 775 794 l 775 174 q 728 47 775 94 q 600 0 682 0 l 315 0 l 315 -269 l 79 -269 l 79 889 l 315 889 l 315 739 l 425 889 l 600 889 m 1431 0 l 1106 0 q 958 156 988 0 l 786 1131 l 1033 1131 l 1183 207 l 1233 207 l 1383 1131 l 1632 1131 l 1431 0 m 539 211 l 539 678 l 315 678 l 315 211 l 539 211 z "},"㎵":{"ha":1667,"x_min":126,"x_max":1632,"o":"m 126 715 q 173 842 126 794 q 301 889 219 889 l 775 889 l 775 0 l 539 0 l 539 678 l 363 678 l 363 0 l 126 0 l 126 715 m 1431 0 l 1106 0 q 958 156 988 0 l 786 1131 l 1033 1131 l 1183 207 l 1233 207 l 1383 1131 l 1632 1131 l 1431 0 z "},"㎶":{"ha":1667,"x_min":-18,"x_max":1650,"o":"m 1449 0 l 1124 0 q 976 156 1006 0 l 804 1131 l 1051 1131 l 1201 207 l 1251 207 l 1401 1131 l 1650 1131 l 1449 0 m 651 0 q 530 35 578 0 q 471 133 482 71 l 350 0 l 265 0 l 218 -269 l -18 -269 l 186 889 l 422 889 l 304 225 l 474 225 l 592 889 l 828 889 l 710 225 l 810 225 l 771 0 l 651 0 z "},"㎷":{"ha":1667,"x_min":54,"x_max":1672,"o":"m 336 0 l 336 692 l 258 692 l 258 0 l 54 0 l 54 715 q 98 842 54 794 q 217 889 142 889 l 814 889 l 814 0 l 614 0 l 614 692 l 536 692 l 536 0 l 336 0 m 1471 0 l 1146 0 q 999 156 1028 0 l 826 1131 l 1074 1131 l 1224 207 l 1274 207 l 1424 1131 l 1672 1131 l 1471 0 z "},"㎸":{"ha":1528,"x_min":67,"x_max":1517,"o":"m 304 589 l 350 589 l 503 889 l 713 889 l 671 1131 l 918 1131 l 1068 207 l 1118 207 l 1268 1131 l 1517 1131 l 1315 0 l 990 0 q 843 156 872 0 l 725 821 l 544 478 l 774 0 l 508 0 l 333 376 l 304 376 l 304 0 l 67 0 l 67 1186 l 304 1186 l 304 589 z "},"㎹":{"ha":1667,"x_min":58,"x_max":1629,"o":"m 353 0 l 353 933 l 268 933 l 268 0 l 58 0 l 58 957 q 102 1083 58 1036 q 221 1131 146 1131 l 850 1131 l 850 0 l 644 0 l 644 933 l 558 933 l 558 0 l 353 0 m 1479 0 l 1171 0 q 1077 40 1113 0 q 1032 156 1042 81 l 910 1131 l 1144 1131 l 1244 207 l 1293 207 l 1393 1131 l 1629 1131 l 1479 0 z "},"㎀":{"ha":1667,"x_min":107,"x_max":1650,"o":"m 642 889 q 770 842 724 889 q 817 715 817 794 l 817 174 q 770 47 817 94 q 642 0 724 0 l 343 0 l 343 -269 l 107 -269 l 107 889 l 343 889 l 343 739 l 453 889 l 642 889 m 1363 326 l 1139 326 l 1090 0 l 853 0 l 1011 975 q 1156 1131 1038 1131 l 1464 1131 l 1650 0 l 1413 0 l 1363 326 m 581 211 l 581 678 l 343 678 l 343 211 l 581 211 m 1275 914 l 1228 914 l 1171 540 l 1331 540 l 1275 914 z "},"㎁":{"ha":1528,"x_min":36,"x_max":1511,"o":"m 1224 326 l 1000 326 l 951 0 l 714 0 l 872 975 q 1017 1131 899 1131 l 1325 1131 l 1511 0 l 1274 0 l 1224 326 m 36 715 q 83 842 36 794 q 211 889 129 889 l 671 889 l 671 0 l 435 0 l 435 678 l 272 678 l 272 0 l 36 0 l 36 715 m 1136 914 l 1089 914 l 1032 540 l 1192 540 l 1136 914 z "},"㎂":{"ha":1667,"x_min":-1,"x_max":1650,"o":"m 1363 326 l 1139 326 l 1090 0 l 853 0 l 1011 975 q 1156 1131 1038 1131 l 1464 1131 l 1650 0 l 1413 0 l 1363 326 m 682 0 q 560 35 608 0 q 501 133 513 71 l 381 0 l 282 0 l 235 -269 l -1 -269 l 203 889 l 439 889 l 321 225 l 504 225 l 622 889 l 858 889 l 740 225 l 840 225 l 801 0 l 682 0 m 1275 914 l 1228 914 l 1171 540 l 1331 540 l 1275 914 z "},"㎃":{"ha":1667,"x_min":33,"x_max":1658,"o":"m 343 0 l 343 678 l 256 678 l 256 0 l 33 0 l 33 715 q 80 842 33 794 q 208 889 126 889 l 876 889 l 876 8 l 1033 975 q 1178 1131 1060 1131 l 1472 1131 l 1658 0 l 1421 0 l 1371 326 l 1161 326 l 1113 0 l 654 0 l 654 678 l 565 678 l 565 0 l 343 0 m 1283 914 l 1250 914 l 1193 540 l 1339 540 l 1283 914 z "},"㎄":{"ha":1667,"x_min":111,"x_max":1594,"o":"m 354 589 l 399 589 l 581 889 l 843 889 l 588 481 l 811 85 l 956 975 q 1100 1131 982 1131 l 1408 1131 l 1594 0 l 1357 0 l 1307 326 l 1083 326 l 1035 0 l 586 0 l 388 363 l 354 363 l 354 0 l 111 0 l 111 1186 l 354 1186 l 354 589 m 1219 914 l 1172 914 l 1115 540 l 1275 540 l 1219 914 z "},"㎺":{"ha":1667,"x_min":46,"x_max":1646,"o":"m 1258 1131 l 1315 226 l 1357 226 l 1426 1131 l 1646 1131 l 1538 0 l 1244 0 q 1163 35 1193 0 q 1122 135 1132 71 l 1057 0 l 944 0 q 858 37 889 0 q 821 147 828 74 l 717 1131 l 938 1131 l 1025 226 l 1115 226 l 1046 1131 l 1258 1131 m 539 889 q 667 842 621 889 q 714 715 714 794 l 714 174 q 667 47 714 94 q 539 0 621 0 l 282 0 l 282 -269 l 46 -269 l 46 889 l 282 889 l 282 739 l 392 889 l 539 889 m 478 211 l 478 678 l 282 678 l 282 211 l 478 211 z "},"㎻":{"ha":1667,"x_min":43,"x_max":1646,"o":"m 1258 1131 l 1315 226 l 1357 226 l 1426 1131 l 1646 1131 l 1538 0 l 1244 0 q 1163 35 1193 0 q 1122 135 1132 71 l 1057 0 l 944 0 q 858 37 889 0 q 821 147 828 74 l 717 1131 l 938 1131 l 1025 226 l 1115 226 l 1046 1131 l 1258 1131 m 43 715 q 90 842 43 794 q 218 889 136 889 l 692 889 l 692 0 l 456 0 l 456 678 l 279 678 l 279 0 l 43 0 l 43 715 z "},"㎼":{"ha":1667,"x_min":-18,"x_max":1643,"o":"m 1299 1131 l 1351 226 l 1383 226 l 1449 1131 l 1643 1131 l 1540 0 l 1283 0 q 1208 33 1236 0 q 1171 125 1181 65 l 1114 0 l 1008 0 q 927 37 956 0 q 892 147 899 74 l 821 853 l 710 225 l 810 225 l 771 0 l 651 0 q 530 35 578 0 q 471 133 482 71 l 350 0 l 265 0 l 218 -269 l -18 -269 l 186 889 l 422 889 l 304 225 l 474 225 l 592 889 l 818 889 l 794 1131 l 1003 1131 l 1086 226 l 1163 226 l 1097 1131 l 1299 1131 z "},"㎽":{"ha":1667,"x_min":40,"x_max":1657,"o":"m 1313 1131 l 1365 226 l 1397 226 l 1463 1131 l 1657 1131 l 1554 0 l 1297 0 q 1222 33 1250 0 q 1185 125 1194 65 l 1128 0 l 1022 0 q 941 37 969 0 q 906 147 913 74 l 808 1131 l 1017 1131 l 1100 226 l 1176 226 l 1111 1131 l 1313 1131 m 322 0 l 322 692 l 244 692 l 244 0 l 40 0 l 40 715 q 84 842 40 794 q 203 889 128 889 l 800 889 l 800 0 l 600 0 l 600 692 l 522 692 l 522 0 l 322 0 z "},"㎾":{"ha":1667,"x_min":67,"x_max":1663,"o":"m 1256 1131 l 1318 226 l 1365 226 l 1440 1131 l 1663 1131 l 1544 0 l 1256 0 q 1126 138 1147 0 l 1053 0 l 929 0 q 794 147 811 0 l 717 831 l 531 478 l 760 0 l 494 0 l 319 376 l 304 376 l 304 0 l 67 0 l 67 1186 l 304 1186 l 304 589 l 336 589 l 489 889 l 710 889 l 682 1131 l 906 1131 l 1001 226 l 1118 226 l 1042 1131 l 1256 1131 z "},"㎿":{"ha":1667,"x_min":17,"x_max":1657,"o":"m 303 0 l 303 933 l 221 933 l 221 0 l 17 0 l 17 957 q 59 1083 17 1036 q 175 1131 101 1131 l 786 1131 l 786 0 l 586 0 l 586 933 l 503 933 l 503 0 l 303 0 m 1321 1131 l 1372 226 l 1404 226 l 1468 1131 l 1657 1131 l 1557 0 l 1307 0 q 1234 33 1261 0 q 1197 125 1207 65 l 1142 0 l 1039 0 q 959 37 986 0 q 925 147 932 74 l 829 1131 l 1033 1131 l 1114 226 l 1189 226 l 1125 1131 l 1321 1131 z "},"㎐":{"ha":1389,"x_min":64,"x_max":1354,"o":"m 478 464 l 310 464 l 310 0 l 64 0 l 64 1131 l 310 1131 l 310 692 l 478 692 l 478 1131 l 724 1131 l 724 0 l 478 0 l 478 464 m 781 0 l 781 181 l 1076 678 l 783 678 l 783 889 l 1343 889 l 1343 729 q 1332 651 1343 683 q 1292 571 1321 619 l 1078 211 l 1354 211 l 1354 0 l 781 0 z "},"㎑":{"ha":1667,"x_min":32,"x_max":1643,"o":"m 939 478 l 806 478 l 806 0 l 599 0 l 599 1131 l 806 1131 l 806 692 l 939 692 l 939 1131 l 1147 1131 l 1147 0 l 939 0 l 939 478 m 238 575 l 257 575 l 372 889 l 579 889 l 425 479 l 589 0 l 376 0 l 251 376 l 238 376 l 238 0 l 32 0 l 32 1186 l 238 1186 l 238 575 m 1181 0 l 1181 181 l 1432 678 l 1183 678 l 1183 889 l 1643 889 l 1643 729 q 1635 649 1643 681 q 1603 571 1626 617 l 1421 211 l 1639 211 l 1639 0 l 1181 0 z "},"㎒":{"ha":1667,"x_min":26,"x_max":1643,"o":"m 468 932 l 417 932 l 417 0 l 249 0 l 249 932 l 196 932 l 196 0 l 26 0 l 26 940 q 55 1078 26 1026 q 131 1131 83 1131 l 636 1131 l 636 0 l 468 0 l 468 932 m 1007 478 l 886 478 l 886 0 l 700 0 l 700 1131 l 886 1131 l 886 692 l 1007 692 l 1007 1131 l 1196 1131 l 1196 0 l 1007 0 l 1007 478 m 1226 0 l 1226 181 l 1453 678 l 1228 678 l 1228 889 l 1643 889 l 1643 729 q 1635 649 1643 681 q 1607 571 1628 617 l 1443 211 l 1639 211 l 1639 0 l 1226 0 z "},"㎓":{"ha":1667,"x_min":25,"x_max":1642,"o":"m 938 478 l 804 478 l 804 0 l 597 0 l 597 1131 l 804 1131 l 804 692 l 938 692 l 938 1131 l 1146 1131 l 1146 0 l 938 0 l 938 478 m 149 0 q 58 51 92 0 q 25 189 25 103 l 25 940 q 58 1079 25 1028 q 149 1131 92 1131 l 558 1131 l 449 918 l 231 918 l 231 213 l 371 213 l 371 471 l 257 471 l 351 668 l 563 668 l 563 0 l 149 0 m 1179 0 l 1179 181 l 1431 678 l 1182 678 l 1182 889 l 1642 889 l 1642 729 q 1633 649 1642 681 q 1601 571 1625 617 l 1419 211 l 1638 211 l 1638 0 l 1179 0 z "},"㎔":{"ha":1667,"x_min":32,"x_max":1642,"o":"m 181 -3 l 181 885 l 32 885 l 32 1131 l 818 1131 l 818 692 l 951 692 l 951 1131 l 1160 1131 l 1160 0 l 951 0 l 951 478 l 818 478 l 818 0 l 611 0 l 611 1068 l 524 885 l 394 885 l 394 -3 l 181 -3 m 1193 0 l 1193 181 l 1444 678 l 1196 678 l 1196 889 l 1642 889 l 1642 729 q 1633 653 1642 683 q 1601 571 1625 622 l 1433 211 l 1638 211 l 1638 0 l 1193 0 z "},"Ω":{"ha":1278,"x_min":197,"x_max":1081,"o":"m 367 289 q 255 348 297 303 q 213 479 213 393 l 213 903 q 272 1067 213 1004 q 440 1131 332 1131 l 838 1131 q 1006 1067 946 1131 q 1065 903 1065 1004 l 1065 479 q 1023 348 1065 393 q 911 289 981 303 l 911 214 l 1081 214 l 1081 0 l 675 0 l 675 471 l 815 471 l 815 908 l 463 908 l 463 471 l 603 471 l 603 0 l 197 0 l 197 214 l 367 214 l 367 289 z "},"㏀":{"ha":1528,"x_min":67,"x_max":1504,"o":"m 914 339 q 841 388 867 353 q 815 471 815 422 l 815 981 q 856 1090 815 1050 q 964 1131 896 1131 l 1304 1131 q 1415 1090 1375 1131 q 1454 981 1454 1050 l 1454 482 q 1431 394 1454 431 q 1368 343 1408 358 l 1368 190 l 1504 190 l 1504 0 l 1304 0 q 1203 37 1240 0 q 1167 136 1167 74 l 1167 514 l 1239 514 l 1239 939 l 1031 939 l 1031 514 l 1115 514 l 1115 136 q 1078 37 1115 74 q 978 0 1042 0 l 778 0 l 778 190 l 914 190 l 914 339 m 304 589 l 350 589 l 503 889 l 761 889 l 544 478 l 774 0 l 508 0 l 333 376 l 304 376 l 304 0 l 67 0 l 67 1186 l 304 1186 l 304 589 z "},"㏁":{"ha":1667,"x_min":58,"x_max":1633,"o":"m 353 0 l 353 933 l 268 933 l 268 0 l 58 0 l 58 957 q 102 1083 58 1036 q 221 1131 146 1131 l 850 1131 l 850 0 l 644 0 l 644 933 l 558 933 l 558 0 l 353 0 m 1043 339 q 970 388 996 353 q 944 471 944 422 l 944 981 q 985 1090 944 1050 q 1093 1131 1025 1131 l 1433 1131 q 1544 1090 1504 1131 q 1583 981 1583 1050 l 1583 482 q 1560 394 1583 431 q 1497 343 1538 358 l 1497 190 l 1633 190 l 1633 0 l 1433 0 q 1333 37 1369 0 q 1296 136 1296 74 l 1296 514 l 1368 514 l 1368 939 l 1160 939 l 1160 514 l 1244 514 l 1244 136 q 1208 37 1244 74 q 1107 0 1171 0 l 907 0 l 907 190 l 1043 190 l 1043 339 z "},"㎊":{"ha":1667,"x_min":135,"x_max":1649,"o":"m 669 889 q 798 842 751 889 q 844 715 844 794 l 844 174 q 798 47 844 94 q 669 0 751 0 l 371 0 l 371 -269 l 135 -269 l 135 889 l 371 889 l 371 739 l 481 889 l 669 889 m 1517 469 l 1172 469 l 1172 0 l 929 0 l 929 1131 l 1649 1131 l 1492 918 l 1172 918 l 1172 669 l 1517 669 l 1517 469 m 608 211 l 608 678 l 371 678 l 371 211 l 608 211 z "},"㎋":{"ha":1528,"x_min":72,"x_max":1553,"o":"m 72 715 q 119 842 72 794 q 247 889 165 889 l 721 889 l 721 0 l 485 0 l 485 678 l 308 678 l 308 0 l 72 0 l 72 715 m 1421 469 l 1076 469 l 1076 0 l 833 0 l 833 1131 l 1553 1131 l 1396 918 l 1076 918 l 1076 669 l 1421 669 l 1421 469 z "},"㎌":{"ha":1667,"x_min":40,"x_max":1676,"o":"m 724 0 q 602 35 650 0 q 543 133 554 71 l 422 0 l 324 0 l 276 -269 l 40 -269 l 244 889 l 481 889 l 363 225 l 546 225 l 664 889 l 900 889 l 782 225 l 882 225 l 843 0 l 724 0 m 1544 469 l 1200 469 l 1200 0 l 957 0 l 957 1131 l 1676 1131 l 1519 918 l 1200 918 l 1200 669 l 1544 669 l 1544 469 z "},"㏖":{"ha":1667,"x_min":53,"x_max":1658,"o":"m 300 0 l 300 699 l 233 699 l 233 0 l 53 0 l 53 715 q 96 842 53 796 q 215 889 139 889 l 719 889 l 719 0 l 544 0 l 544 699 l 478 699 l 478 0 l 300 0 m 1290 174 q 1247 47 1290 94 q 1129 0 1204 0 l 926 0 q 808 47 851 0 q 765 174 765 94 l 765 715 q 808 842 765 794 q 926 889 851 889 l 1129 889 q 1247 842 1204 889 q 1290 715 1290 794 l 1290 174 m 1508 0 q 1390 47 1433 0 q 1347 174 1347 94 l 1347 1186 l 1549 1186 l 1549 204 l 1658 204 l 1658 0 l 1508 0 m 1097 692 l 958 692 l 958 197 l 1097 197 l 1097 692 z "},"㏅":{"ha":1528,"x_min":72,"x_max":1440,"o":"m 919 0 q 791 47 838 0 q 744 174 744 94 l 744 715 q 791 842 744 794 q 919 889 838 889 l 1204 889 l 1204 1186 l 1440 1186 l 1440 0 l 1204 0 l 1204 128 l 1094 0 l 919 0 m 658 211 l 658 0 l 247 0 q 119 47 165 0 q 72 174 72 94 l 72 715 q 119 842 72 794 q 247 889 165 889 l 714 889 l 558 678 l 318 678 l 318 211 l 658 211 m 981 678 l 981 211 l 1204 211 l 1204 678 l 981 678 z "},"㎭":{"ha":1667,"x_min":47,"x_max":1626,"o":"m 1206 0 q 1108 47 1143 0 q 1074 174 1074 93 l 1074 715 q 1108 842 1074 796 q 1206 889 1143 889 l 1439 889 l 1439 1186 l 1626 1186 l 1626 0 l 1439 0 l 1439 167 l 1347 0 l 1206 0 m 613 0 q 515 47 550 0 q 481 174 481 93 l 481 715 q 515 842 481 796 q 613 889 550 889 l 1033 889 l 1033 0 l 846 0 l 846 167 l 753 0 l 613 0 m 47 715 q 82 842 47 794 q 178 889 117 889 l 503 889 l 378 636 l 264 636 l 264 0 l 47 0 l 47 715 m 668 664 l 668 225 l 846 225 l 846 664 l 668 664 m 1261 664 l 1261 225 l 1439 225 l 1439 664 l 1261 664 z "},"㎮":{"ha":1667,"x_min":47,"x_max":1658,"o":"m 765 474 q 706 502 726 474 q 685 582 685 531 l 685 915 q 706 994 685 965 q 765 1024 728 1024 l 897 1024 l 897 1207 l 1028 1207 l 1028 474 l 897 474 l 897 574 l 854 474 l 765 474 m 1029 -56 l 871 -56 l 1300 1186 l 1458 1186 l 1029 -56 m 397 474 q 337 502 358 474 q 315 582 315 531 l 315 915 q 338 994 315 965 q 397 1024 360 1024 l 658 1024 l 658 474 l 528 474 l 528 574 l 485 474 l 397 474 m 1225 428 q 1254 506 1225 478 q 1333 535 1283 535 l 1658 535 l 1553 399 l 1371 399 l 1371 313 l 1624 313 l 1624 93 q 1595 15 1624 44 q 1515 -14 1567 -14 l 1221 -14 l 1221 122 l 1478 122 l 1478 199 l 1225 199 l 1225 428 m 47 915 q 69 994 47 965 q 128 1024 90 1024 l 329 1024 l 253 853 l 194 853 l 194 474 l 47 474 l 47 915 m 446 869 l 446 626 l 528 626 l 528 869 l 446 869 m 815 869 l 815 626 l 897 626 l 897 869 l 815 869 z "},"㎯":{"ha":1667,"x_min":47,"x_max":1665,"o":"m 765 474 q 706 502 726 474 q 685 582 685 531 l 685 915 q 706 994 685 965 q 765 1024 728 1024 l 897 1024 l 897 1207 l 1028 1207 l 1028 474 l 897 474 l 897 574 l 854 474 l 765 474 m 1008 -56 l 857 -56 l 1286 1186 l 1438 1186 l 1008 -56 m 397 474 q 337 502 358 474 q 315 582 315 531 l 315 915 q 338 994 315 965 q 397 1024 360 1024 l 658 1024 l 658 474 l 528 474 l 528 574 l 485 474 l 397 474 m 1225 428 q 1254 506 1225 478 q 1333 535 1283 535 l 1658 535 l 1553 399 l 1371 399 l 1371 313 l 1624 313 l 1624 93 q 1595 15 1624 44 q 1515 -14 1567 -14 l 1221 -14 l 1221 122 l 1478 122 l 1478 199 l 1225 199 l 1225 428 m 47 915 q 69 994 47 965 q 128 1024 90 1024 l 329 1024 l 253 853 l 194 853 l 194 474 l 47 474 l 47 915 m 1567 1065 q 1633 1039 1608 1065 q 1658 974 1658 1013 l 1658 917 q 1653 876 1658 893 q 1631 842 1647 860 l 1564 771 l 1665 771 l 1665 661 l 1393 661 l 1393 747 l 1538 911 q 1540 929 1540 919 l 1540 956 l 1506 956 l 1506 907 l 1389 907 l 1389 974 q 1413 1039 1389 1013 q 1482 1065 1438 1065 l 1567 1065 m 815 869 l 815 626 l 897 626 l 897 869 l 815 869 m 446 869 l 446 626 l 528 626 l 528 869 l 446 869 z "},"㏛":{"ha":1389,"x_min":71,"x_max":1356,"o":"m 789 715 q 835 842 789 794 q 964 889 882 889 l 1356 889 l 1189 650 l 1028 650 l 1028 0 l 789 0 l 789 715 m 78 715 q 124 842 78 794 q 253 889 171 889 l 779 889 l 608 668 l 314 668 l 314 551 l 722 551 l 722 174 q 676 47 722 94 q 547 0 629 0 l 71 0 l 71 221 l 486 221 l 486 344 l 78 344 l 78 715 z "},"㎩":{"ha":1667,"x_min":28,"x_max":1597,"o":"m 917 715 q 963 842 917 794 q 1088 889 1008 889 l 1597 889 l 1597 0 l 1367 0 l 1367 156 l 1246 0 l 1088 0 q 963 47 1008 0 q 917 174 917 94 l 917 715 m 1367 678 l 1147 678 l 1147 211 l 1367 211 l 1367 678 m 365 533 l 590 533 l 590 918 l 365 918 l 365 533 m 650 1131 q 785 1083 738 1131 q 833 951 833 1035 l 833 500 q 785 369 833 417 q 650 321 738 321 l 365 321 l 365 0 l 122 0 l 122 757 l 250 918 l 28 918 l 193 1131 l 650 1131 z "},"㎪":{"ha":1667,"x_min":32,"x_max":1631,"o":"m 608 789 l 692 922 l 547 922 l 654 1131 l 997 1131 q 1085 1083 1054 1131 q 1117 951 1117 1035 l 1117 500 q 1085 369 1117 417 q 997 321 1054 321 l 804 321 l 804 0 l 608 0 l 608 789 m 238 575 l 257 575 l 372 889 l 579 889 l 425 479 l 589 0 l 376 0 l 251 376 l 238 376 l 238 0 l 32 0 l 32 1186 l 238 1186 l 238 575 m 1263 0 q 1179 47 1210 0 q 1149 174 1149 94 l 1149 715 q 1179 842 1149 794 q 1263 889 1210 889 l 1631 889 l 1631 0 l 1439 0 l 1439 138 l 1372 0 l 1263 0 m 804 529 l 922 529 l 922 922 l 804 922 l 804 529 m 1339 664 l 1339 225 l 1439 225 l 1439 664 l 1339 664 z "},"㎫":{"ha":1667,"x_min":26,"x_max":1642,"o":"m 468 932 l 417 932 l 417 0 l 249 0 l 249 932 l 196 932 l 196 0 l 26 0 l 26 940 q 55 1078 26 1026 q 131 1131 83 1131 l 636 1131 l 636 0 l 468 0 l 468 932 m 700 789 l 778 929 l 643 929 l 742 1131 l 1057 1131 q 1140 1083 1111 1131 q 1169 951 1169 1035 l 1169 500 q 1140 369 1169 417 q 1057 321 1111 321 l 875 321 l 875 0 l 700 0 l 700 789 m 1301 0 q 1224 47 1253 0 q 1196 174 1196 94 l 1196 715 q 1224 842 1196 794 q 1301 889 1253 889 l 1642 889 l 1642 0 l 1471 0 l 1471 125 l 1415 0 l 1301 0 m 875 522 l 1001 522 l 1001 929 l 875 929 l 875 522 m 1367 671 l 1367 218 l 1471 218 l 1471 671 l 1367 671 z "},"㎬":{"ha":1667,"x_min":25,"x_max":1631,"o":"m 601 775 l 685 922 l 540 922 l 647 1131 l 990 1131 q 1078 1083 1047 1131 q 1110 951 1110 1035 l 1110 500 q 1078 369 1110 417 q 990 321 1047 321 l 797 321 l 797 0 l 601 0 l 601 775 m 149 0 q 58 51 92 0 q 25 189 25 103 l 25 940 q 58 1079 25 1028 q 149 1131 92 1131 l 558 1131 l 449 918 l 231 918 l 231 213 l 371 213 l 371 471 l 257 471 l 351 668 l 563 668 l 563 0 l 149 0 m 1263 0 q 1179 47 1210 0 q 1149 174 1149 94 l 1149 715 q 1179 842 1149 794 q 1263 889 1210 889 l 1631 889 l 1631 0 l 1439 0 l 1439 110 l 1386 0 l 1263 0 m 797 529 l 915 529 l 915 922 l 797 922 l 797 529 m 1339 664 l 1339 225 l 1439 225 l 1439 664 l 1339 664 z "},"㏝":{"ha":1667,"x_min":35,"x_max":1632,"o":"m 576 1131 l 633 226 l 675 226 l 744 1131 l 964 1131 l 856 0 l 563 0 q 481 35 511 0 q 440 135 450 71 l 375 0 l 263 0 q 176 37 207 0 q 139 147 146 74 l 35 1131 l 256 1131 l 343 226 l 433 226 l 364 1131 l 576 1131 m 1242 743 l 1338 889 l 1457 889 q 1585 842 1539 889 q 1632 715 1632 794 l 1632 174 q 1585 47 1632 94 q 1457 0 1539 0 l 1006 0 l 1006 1186 l 1242 1186 l 1242 743 m 1396 211 l 1396 678 l 1242 678 l 1242 211 l 1396 211 z "},"㏐":{"ha":1389,"x_min":63,"x_max":1339,"o":"m 801 0 l 801 678 l 696 678 l 696 0 l 471 0 l 471 715 q 517 842 471 794 q 646 889 564 889 l 1339 889 l 1339 0 l 1118 0 l 1118 678 l 1022 678 l 1022 0 l 801 0 m 238 0 q 109 47 156 0 q 63 174 63 94 l 63 1186 l 301 1186 l 301 211 l 426 211 l 426 0 l 238 0 z "},"㏓":{"ha":1389,"x_min":90,"x_max":1349,"o":"m 750 0 l 479 0 l 690 453 l 488 889 l 756 889 l 893 558 l 935 558 l 1072 889 l 1340 889 l 1136 453 l 1349 0 l 1078 0 l 933 332 l 894 332 l 750 0 m 265 0 q 137 47 183 0 q 90 174 90 94 l 90 1186 l 329 1186 l 329 211 l 454 211 l 454 0 l 265 0 z "},"㏃":{"ha":1667,"x_min":29,"x_max":1611,"o":"m 663 1131 q 797 1083 760 1131 q 833 932 833 1035 l 833 714 q 753 575 833 629 q 828 519 804 556 q 851 425 851 483 l 851 179 q 803 48 851 96 q 668 0 754 0 l 114 0 l 114 756 l 253 918 l 29 918 l 183 1131 l 663 1131 m 1367 168 l 1243 0 l 1104 0 q 976 47 1022 0 q 929 174 929 94 l 929 715 q 976 842 929 794 q 1104 889 1022 889 l 1611 889 l 1611 -269 l 1367 -269 l 1367 168 m 1174 678 l 1174 211 l 1367 211 l 1367 678 l 1174 678 m 358 213 l 607 213 l 607 465 l 358 465 l 358 213 m 589 676 l 589 918 l 358 918 l 358 676 l 589 676 z "},"㏉":{"ha":1667,"x_min":65,"x_max":1651,"o":"m 246 0 q 114 51 163 0 q 65 189 65 103 l 65 940 q 114 1078 65 1026 q 246 1131 163 1131 l 842 1131 l 700 904 l 306 904 l 306 226 l 589 226 l 589 457 l 376 457 l 519 668 l 828 668 l 828 0 l 246 0 m 1651 889 l 1351 -269 l 1108 -269 l 1210 78 l 1138 78 q 1040 107 1074 78 q 992 203 1007 136 l 832 889 l 1086 889 l 1203 317 l 1275 317 l 1404 889 l 1651 889 z "},"㏜":{"ha":1667,"x_min":78,"x_max":1643,"o":"m 556 226 l 556 456 l 81 456 l 81 940 q 132 1079 81 1028 q 271 1131 183 1131 l 832 1131 l 669 904 l 324 904 l 324 672 l 785 672 l 785 189 q 734 51 785 103 q 594 0 683 0 l 78 0 l 78 226 l 556 226 m 1457 0 l 1124 0 q 1020 33 1056 0 q 971 136 985 67 l 813 889 l 1071 889 l 1185 226 l 1271 226 l 1383 889 l 1643 889 l 1457 0 z "},"㏆":{"ha":1667,"x_min":28,"x_max":1628,"o":"m 1321 60 q 1253 96 1278 60 q 1228 193 1228 132 l 1228 551 q 1253 649 1228 613 q 1321 685 1278 685 l 1628 685 l 1628 -42 q 1596 -161 1628 -115 q 1511 -207 1564 -207 l 1278 -207 l 1350 -36 l 1463 -36 l 1463 160 l 1389 60 l 1321 60 m 974 453 l 993 453 l 1074 685 l 1233 685 l 1110 375 l 1246 0 l 1076 0 l 989 279 l 974 279 l 974 0 l 801 0 l 801 914 l 974 914 l 974 453 m 438 -56 l 238 -56 l 667 1186 l 867 1186 l 438 -56 m 449 814 l 449 640 l 203 640 q 74 688 121 640 q 28 814 28 735 l 28 1107 q 74 1233 28 1186 q 203 1281 121 1281 l 492 1281 l 365 1107 l 229 1107 l 229 814 l 449 814 m 1393 540 l 1393 201 l 1463 201 l 1463 540 l 1393 540 z "},"Æ":{"ha":1319,"x_min":22,"x_max":1311,"o":"m 628 540 l 628 900 l 478 900 l 399 540 l 628 540 m 1249 0 l 628 0 l 628 313 l 347 313 l 279 0 l 22 0 l 257 979 q 317 1092 275 1054 q 432 1131 360 1131 l 1311 1131 l 1143 904 l 883 904 l 883 693 l 1167 693 l 1167 482 l 883 482 l 883 226 l 1249 226 l 1249 0 z "},"Ð":{"ha":1074,"x_min":28,"x_max":981,"o":"m 422 672 l 583 672 l 583 444 l 422 444 l 422 226 l 728 226 l 728 904 l 422 904 l 422 672 m 169 444 l 28 444 l 28 672 l 169 672 l 169 758 l 296 904 l 74 904 l 239 1131 l 789 1131 q 929 1079 878 1131 q 981 940 981 1028 l 981 189 q 929 51 981 101 q 789 0 878 0 l 169 0 l 169 444 z "},"ª":{"ha":764,"x_min":104,"x_max":653,"o":"m 229 703 q 138 736 171 703 q 104 826 104 769 l 104 1197 q 138 1287 104 1254 q 229 1319 171 1319 l 646 1319 l 646 703 l 451 703 l 451 803 l 379 703 l 229 703 m 653 469 l 111 469 l 111 644 l 653 644 l 653 469 m 299 1144 l 299 878 l 451 878 l 451 1144 l 299 1144 z "},"Ħ":{"ha":1103,"x_min":28,"x_max":1075,"o":"m 394 1131 l 394 1003 l 707 1003 l 707 1131 l 961 1131 l 961 1003 l 1075 1003 l 1075 810 l 961 810 l 961 0 l 707 0 l 707 464 l 394 464 l 394 0 l 142 0 l 142 810 l 28 810 l 28 1003 l 142 1003 l 142 1131 l 394 1131 m 707 810 l 394 810 l 394 685 l 707 685 l 707 810 z "},"Ĳ":{"ha":1101,"x_min":104,"x_max":1004,"o":"m 104 1131 l 365 1131 l 365 0 l 104 0 l 104 1131 m 747 1131 l 1004 1131 l 1004 206 q 947 57 1004 114 q 796 0 889 0 l 392 0 l 558 229 l 747 229 l 747 1131 z "},"Ŀ":{"ha":838,"x_min":100,"x_max":835,"o":"m 100 0 l 100 1131 l 358 1131 l 358 229 l 835 229 l 665 0 l 100 0 m 714 518 l 514 518 l 514 732 l 714 732 l 714 518 z "},"Ł":{"ha":963,"x_min":0,"x_max":960,"o":"m 483 1131 l 483 844 l 604 965 l 760 810 l 483 533 l 483 229 l 960 229 l 790 0 l 225 0 l 225 275 l 156 206 l 0 363 l 225 586 l 225 1131 l 483 1131 z "},"Ø":{"ha":1014,"x_min":49,"x_max":965,"o":"m 576 910 l 342 910 l 342 458 l 576 910 m 438 221 l 672 221 l 672 671 l 438 221 m 268 -104 l 49 -104 l 135 61 q 93 189 93 110 l 93 940 q 144 1079 93 1028 q 283 1131 196 1131 l 692 1131 l 746 1235 l 965 1235 l 878 1068 q 921 940 921 1018 l 921 189 q 869 51 921 101 q 729 0 818 0 l 322 0 l 268 -104 z "},"Œ":{"ha":1383,"x_min":93,"x_max":1375,"o":"m 283 0 q 144 51 196 0 q 93 189 93 103 l 93 940 q 144 1079 93 1028 q 283 1131 196 1131 l 1375 1131 l 1207 904 l 892 904 l 892 693 l 1231 693 l 1231 482 l 892 482 l 892 226 l 1313 226 l 1313 0 l 283 0 m 350 226 l 636 226 l 636 904 l 350 904 l 350 226 z "},"º":{"ha":764,"x_min":110,"x_max":654,"o":"m 654 826 q 622 736 654 769 q 532 703 589 703 l 233 703 q 142 736 175 703 q 110 826 110 769 l 110 1197 q 142 1287 110 1254 q 233 1319 175 1319 l 532 1319 q 622 1287 589 1319 q 654 1197 654 1254 l 654 826 m 460 1144 l 304 1144 l 304 878 l 460 878 l 460 1144 m 653 469 l 111 469 l 111 644 l 653 644 l 653 469 z "},"Þ":{"ha":988,"x_min":104,"x_max":911,"o":"m 365 438 l 658 438 l 658 754 l 365 754 l 365 438 m 104 1131 l 365 1131 l 365 811 l 489 981 l 719 981 q 860 929 808 981 q 911 790 911 878 l 911 400 q 860 262 911 313 q 719 211 808 211 l 365 211 l 365 0 l 104 0 l 104 1131 z "},"Ŧ":{"ha":933,"x_min":33,"x_max":943,"o":"m 67 374 l 67 594 l 313 594 l 313 899 l 33 899 l 33 1131 l 943 1131 l 775 899 l 575 899 l 575 594 l 814 594 l 814 374 l 575 374 l 575 0 l 313 0 l 313 374 l 67 374 z "},"Ŋ":{"ha":1015,"x_min":97,"x_max":915,"o":"m 915 -54 q 856 -210 915 -150 q 699 -269 796 -269 l 358 -269 l 503 -47 l 663 -47 l 663 904 l 350 904 l 350 0 l 97 0 l 97 940 q 149 1079 97 1028 q 288 1131 200 1131 l 915 1131 l 915 -54 z "},"㉠":{"ha":1389,"x_min":69,"x_max":1319,"o":"m 339 -92 q 142 -23 215 -92 q 69 163 69 46 l 69 932 q 142 1117 69 1049 q 339 1186 215 1186 l 1050 1186 q 1247 1117 1174 1186 q 1319 932 1319 1049 l 1319 163 q 1247 -23 1319 46 q 1050 -92 1174 -92 l 339 -92 m 1153 1033 l 236 1033 l 236 61 l 1153 61 l 1153 1033 m 369 833 l 893 833 q 988 803 958 833 q 1017 708 1017 774 l 1017 385 l 903 269 l 825 269 l 825 665 l 369 665 l 369 833 z "},"㉡":{"ha":1389,"x_min":69,"x_max":1319,"o":"m 339 -92 q 142 -23 215 -92 q 69 163 69 46 l 69 932 q 142 1117 69 1049 q 339 1186 215 1186 l 1050 1186 q 1247 1117 1174 1186 q 1319 932 1319 1049 l 1319 163 q 1247 -23 1319 46 q 1050 -92 1174 -92 l 339 -92 m 1153 1033 l 236 1033 l 236 61 l 1153 61 l 1153 1033 m 969 299 l 456 299 q 392 324 414 299 q 371 390 371 349 l 371 832 l 563 832 l 563 467 l 1060 467 l 969 299 z "},"㉢":{"ha":1389,"x_min":69,"x_max":1319,"o":"m 339 -92 q 142 -23 215 -92 q 69 163 69 46 l 69 932 q 142 1117 69 1049 q 339 1186 215 1186 l 1050 1186 q 1247 1117 1174 1186 q 1319 932 1319 1049 l 1319 163 q 1247 -23 1319 46 q 1050 -92 1174 -92 l 339 -92 m 1153 1033 l 236 1033 l 236 61 l 1153 61 l 1153 1033 m 1043 457 l 954 296 l 444 296 q 381 321 403 296 q 358 386 358 346 l 358 833 l 1008 833 l 1008 669 l 550 669 l 550 457 l 1043 457 z "},"㉣":{"ha":1389,"x_min":69,"x_max":1319,"o":"m 339 -92 q 142 -23 215 -92 q 69 163 69 46 l 69 932 q 142 1117 69 1049 q 339 1186 215 1186 l 1050 1186 q 1247 1117 1174 1186 q 1319 932 1319 1049 l 1319 163 q 1247 -23 1319 46 q 1050 -92 1174 -92 l 339 -92 m 1153 1033 l 236 1033 l 236 61 l 1153 61 l 1153 1033 m 454 267 q 392 292 415 267 q 368 358 368 317 l 368 638 l 832 638 l 832 700 l 369 700 l 369 858 l 1021 858 l 1021 561 q 1003 511 1021 531 q 954 492 986 492 l 558 492 l 558 425 l 1071 425 l 986 267 l 454 267 z "},"㉤":{"ha":1389,"x_min":69,"x_max":1319,"o":"m 460 293 q 396 318 418 293 q 374 385 374 343 l 374 835 l 1014 835 l 1014 293 l 460 293 m 828 454 l 828 674 l 561 674 l 561 454 l 828 454 m 339 -92 q 142 -23 215 -92 q 69 163 69 46 l 69 932 q 142 1117 69 1049 q 339 1186 215 1186 l 1050 1186 q 1247 1117 1174 1186 q 1319 932 1319 1049 l 1319 163 q 1247 -23 1319 46 q 1050 -92 1174 -92 l 339 -92 m 1153 1033 l 236 1033 l 236 61 l 1153 61 l 1153 1033 z "}}}
